<svg width="45" height="46" viewBox="0 0 45 46" fill="none" xmlns="http://www.w3.org/2000/svg">
<rect y="0.5" width="45" height="45" rx="22.5" fill="#046F67" fill-opacity="0.5"/>
<path d="M29.5 23C29.5 22.6548 29.3569 22.3096 29.0849 22.0748L17.7331 11.3728C17.4898 11.1381 17.1749 11 16.8169 11C16.0726 11 15.5 11.5524 15.5 12.2705C15.5 12.6019 15.6432 12.9333 15.8721 13.168L26.2934 23L15.8721 32.832C15.6432 33.0668 15.5 33.3843 15.5 33.7295C15.5 34.4476 16.0726 35 16.8169 35C17.1749 35 17.4898 34.8619 17.7474 34.6272L29.0849 23.9252C29.3569 23.6628 29.5 23.359 29.5 23Z" fill="white"/>
</svg>
