<svg width="1184" height="124" viewBox="0 0 1184 124" fill="none" xmlns="http://www.w3.org/2000/svg">
<g filter="url(#filter0_d_307_425)">
<g clip-path="url(#clip0_307_425)">
<rect x="10" y="10" width="1164" height="104" fill="white"/>
<path d="M-250.08 113.802C-94.4449 41.7439 -191.362 72.4935 -165.579 -45.6987C-88.3965 44.853 242.421 -4.1986 427.421 6.8014C250.421 110.801 449.42 203.301 401.92 198.301C238.42 170.801 -76.5796 105.688 -250.08 113.802Z" fill="#B3658C" fill-opacity="0.2"/>
<path d="M-278.502 108.5C-122.867 36.4422 -219.783 67.1918 -194.001 -51.0004C-116.818 39.5513 213.999 -9.50036 398.999 1.49964C221.999 105.5 420.998 198 373.498 193C209.998 165.5 -105.001 100.387 -278.502 108.5Z" fill="#B3658C"/>
</g>
</g>
<defs>
<filter id="filter0_d_307_425" x="0" y="0" width="1184" height="124" filterUnits="userSpaceOnUse" color-interpolation-filters="sRGB">
<feFlood flood-opacity="0" result="BackgroundImageFix"/>
<feColorMatrix in="SourceAlpha" type="matrix" values="0 0 0 0 0 0 0 0 0 0 0 0 0 0 0 0 0 0 127 0" result="hardAlpha"/>
<feOffset/>
<feGaussianBlur stdDeviation="5"/>
<feComposite in2="hardAlpha" operator="out"/>
<feColorMatrix type="matrix" values="0 0 0 0 0.716479 0 0 0 0 0.716479 0 0 0 0 0.716479 0 0 0 0.25 0"/>
<feBlend mode="normal" in2="BackgroundImageFix" result="effect1_dropShadow_307_425"/>
<feBlend mode="normal" in="SourceGraphic" in2="effect1_dropShadow_307_425" result="shape"/>
</filter>
<clipPath id="clip0_307_425">
<rect x="10" y="10" width="1164" height="104" rx="10" fill="white"/>
</clipPath>
</defs>
</svg>
