<svg width="1402" height="631" viewBox="0 0 1402 631" fill="none" xmlns="http://www.w3.org/2000/svg">
<path d="M1400 2.96421C1339.39 2.96421 1278.67 -5.7345 1224.95 29.123C1191.51 50.8211 1169.86 84.6507 1151.08 119.909C1127.41 164.385 1111.25 215.944 1074.12 249.164C1036.99 282.384 991.059 302.45 945.6 313.176C890.511 326.174 838.303 288.042 801.125 249.472C755.433 202.069 723.298 137.723 722.535 69.4382C722.282 46.7514 738.895 21.66 762.125 18.8133C802.258 13.8953 808.113 138.915 809.102 163.302C810.401 195.329 812.189 229.893 802.602 260.859C782.628 325.375 686.92 348.5 672.374 352.03C657.828 355.56 558.756 382 462.753 398.5C366.75 415 255.839 405.47 160.065 437.892C111.513 454.328 60.7563 484.945 29.329 527.601C5.23282 560.306 5.26295 589.918 2 629.005" stroke="url(#paint0_linear_134_829)" stroke-width="4" stroke-linecap="round" stroke-dasharray="12 12"/>
<defs>
<linearGradient id="paint0_linear_134_829" x1="2.41855" y1="528" x2="1366.28" y2="38.5058" gradientUnits="userSpaceOnUse">
<stop stop-color="#B3658C" stop-opacity="0.36"/>
<stop offset="0.563099" stop-color="#B3658C" stop-opacity="0.44"/>
<stop offset="0.887261" stop-color="#B3658C" stop-opacity="0.74"/>
</linearGradient>
</defs>
</svg>
