<?xml version="1.0" encoding="UTF-8"?>
<svg id="Layer_1" data-name="Layer 1" xmlns="http://www.w3.org/2000/svg" viewBox="0 0 1200 630">
  <defs>
    <style>
      .cls-1 {
        fill: #00af9e;
      }

      .cls-1, .cls-2 {
        stroke-width: 0px;
      }

      .cls-2 {
        fill: #111;
      }
    </style>
  </defs>
  <g>
    <path class="cls-1" d="M522.35,227.03c0-35.05,25.58-63.46,60.63-63.46h4.93c18.69,0,33.45,4.95,44.29,14.86,10.84,9.91,16.26,22.8,16.26,38.68,0,10.28-2.71,19.2-8.13,26.77-5.42,7.56-12.52,12.94-21.31,16.12,10.65,2.8,19.25,8.5,25.79,17.1,6.54,8.6,9.82,18.69,9.82,30.27,0,16.07-5.71,29.24-17.1,39.52-11.4,10.28-26.26,15.41-44.57,15.41h-70.6v-135.26ZM552.87,247.66h30.55c9.72,0,17.38-2.52,22.98-7.56,5.61-5.05,8.41-11.77,8.41-20.18s-2.85-15.37-8.55-20.32c-5.71-4.95-13.59-7.43-23.69-7.43h0c-16.41,0-29.71,13.3-29.71,29.71v25.79ZM552.87,333.71h34.2c10.09,0,18.17-2.56,24.24-7.71,6.07-5.14,9.11-12.1,9.11-20.88s-2.85-15.83-8.55-21.16c-5.7-5.32-13.59-7.98-23.69-7.98h-35.31v57.74Z"/>
    <path class="cls-1" d="M829.74,310.44l27.47,8.69c-3.93,12.52-11.26,22.85-22.01,30.97-10.74,8.13-23.96,12.19-39.66,12.19-19.44,0-35.93-6.63-49.47-19.9-13.55-13.26-20.32-31.02-20.32-53.26,0-20.92,6.59-38.12,19.76-51.57,13.18-13.46,28.73-20.18,46.67-20.18,20.93,0,37.28,6.4,49.05,19.2,11.77,12.8,17.65,30.03,17.65,51.71,0,5.79-.28,9.25-.84,10.37h-99.78c.37,10.28,4.15,18.78,11.35,25.51,7.19,6.73,15.84,10.09,25.93,10.09,17.56,0,28.96-7.94,34.2-23.83ZM759.11,274.84h66.99c-.38-8.59-3.41-15.78-9.11-21.58-5.7-5.79-13.88-8.69-24.52-8.69-9.72,0-17.57,3.03-23.55,9.11-5.98,6.07-9.25,13.13-9.81,21.16Z"/>
    <path class="cls-1" d="M934.01,321.09l28.31-7.85c.56,6.54,3.27,12.06,8.13,16.54,4.86,4.49,11.4,6.73,19.62,6.73,6.35,0,11.35-1.5,15-4.49,3.65-2.98,5.47-6.73,5.47-11.21,0-7.84-5.32-12.89-15.98-15.13l-20.18-4.49c-11.77-2.61-20.83-7.47-27.19-14.58-6.35-7.1-9.53-15.51-9.53-25.22,0-11.96,4.86-22.28,14.58-30.97,9.72-8.69,21.58-13.03,35.6-13.03,8.97,0,16.91,1.31,23.82,3.92,6.91,2.62,12.29,6.02,16.12,10.23,3.83,4.2,6.78,8.27,8.83,12.19,2.05,3.92,3.36,7.85,3.92,11.77l-27.47,7.84c-.74-5.22-3.13-9.95-7.14-14.15-4.02-4.2-10.05-6.31-18.08-6.31-5.61,0-10.28,1.54-14.01,4.62-3.74,3.08-5.61,6.78-5.61,11.07,0,7.66,4.57,12.43,13.73,14.29l20.74,4.2c12.7,2.8,22.42,7.84,29.15,15.13,6.73,7.29,10.09,16.07,10.09,26.35,0,11.4-4.54,21.54-13.59,30.41-9.06,8.88-21.72,13.31-37.98,13.31-9.35,0-17.7-1.4-25.09-4.2-7.38-2.8-13.17-6.4-17.38-10.79-4.2-4.39-7.48-8.78-9.81-13.18-2.33-4.39-3.69-8.73-4.06-13.03Z"/>
    <path class="cls-1" d="M1171.41,209.26v12.34h28.31v28.87h-28.31v63.34c0,5.98,1.4,10.33,4.2,13.03,2.8,2.72,7.19,4.07,13.18,4.07,3.73,0,7.47-.37,11.21-1.12v26.91c-4.86,2.05-11.49,3.08-19.9,3.08-12.71,0-22.7-3.6-29.99-10.79-7.29-7.19-10.93-17.14-10.93-29.85v-68.67h-25.22v-28.87h7.01c6.91,0,12.14-1.96,15.7-5.89,3.55-3.92,5.32-9.06,5.32-15.41v-20.46h0c16.25,0,29.43,13.18,29.43,29.43Z"/>
    <path class="cls-2" d="M555.19,466.43c-9.86,0-18.25-3.34-25.17-10.03-6.92-6.69-10.38-15.55-10.38-26.61s3.51-19.86,10.53-26.61c7.01-6.75,15.32-10.13,24.92-10.13,8.47,0,15.44,2.15,20.9,6.45,5.46,4.3,9.05,9.76,10.77,16.38l-11.22,3.77c-1.13-4.57-3.41-8.27-6.85-11.12-3.44-2.85-7.98-4.27-13.6-4.27-6.29,0-11.73,2.23-16.33,6.7-4.6,4.47-6.9,10.74-6.9,18.81s2.28,14.05,6.85,18.52c4.57,4.47,10.06,6.7,16.48,6.7,5.49,0,10.03-1.49,13.6-4.47,3.57-2.98,6.02-6.65,7.35-11.02l10.92,3.57c-1.72,6.55-5.35,12.08-10.87,16.58-5.53,4.5-12.52,6.75-21,6.75Z"/>
    <path class="cls-2" d="M677.96,464.94h0c-3.18,0-5.76-2.58-5.76-5.76v-66.12h11.52v66.12c0,3.18-2.58,5.76-5.76,5.76Z"/>
    <path class="cls-2" d="M797.25,404.88c-1.46-1.46-2.18-3.21-2.18-5.26s.73-3.82,2.18-5.31c1.46-1.49,3.21-2.23,5.26-2.23s3.9.73,5.36,2.18c1.46,1.46,2.18,3.24,2.18,5.36s-.73,3.81-2.18,5.26-3.24,2.18-5.36,2.18-3.81-.73-5.26-2.18ZM802.56,464.94h0c-3.15,0-5.71-2.56-5.71-5.71v-42.64h11.42v42.64c0,3.15-2.56,5.71-5.71,5.71Z"/>
    <path class="cls-2" d="M917.19,437.04v27.9h-11.52v-48.35h11.22v6.45c1.52-2.64,3.56-4.62,6.1-5.91,2.55-1.29,5.28-1.94,8.19-1.94,5.69,0,10.03,1.79,13.01,5.36,2.98,3.57,4.47,8.18,4.47,13.8v30.58h-11.52v-28.59c0-3.24-.79-5.84-2.38-7.79-1.59-1.95-4.11-2.93-7.54-2.93-3.18,0-5.64,1.08-7.4,3.23-1.75,2.15-2.63,4.88-2.63,8.19Z"/>
    <path class="cls-2" d="M1046.46,404.88c-1.46-1.46-2.18-3.21-2.18-5.26s.73-3.82,2.18-5.31c1.46-1.49,3.21-2.23,5.26-2.23s3.9.73,5.36,2.18c1.46,1.46,2.18,3.24,2.18,5.36s-.73,3.81-2.18,5.26c-1.46,1.46-3.24,2.18-5.36,2.18s-3.81-.73-5.26-2.18ZM1051.77,464.94h0c-3.15,0-5.71-2.56-5.71-5.71v-42.64h11.42v42.64c0,3.15-2.56,5.71-5.71,5.71Z"/>
    <path class="cls-2" d="M1177.56,425.72c-3.71,0-6.85,1.34-9.43,4.02-2.58,2.68-3.87,6.34-3.87,10.97s1.31,8.41,3.92,11.12c2.61,2.72,5.81,4.07,9.58,4.07,3.37,0,6.07-.91,8.09-2.73,2.02-1.82,3.36-3.89,4.02-6.2l10.13,3.67c-1.33,4.3-3.89,8.01-7.69,11.12-3.81,3.11-8.65,4.67-14.55,4.67-7.08,0-13.02-2.45-17.82-7.35-4.8-4.9-7.2-11.02-7.2-18.37s2.36-13.54,7.1-18.37c4.73-4.83,10.61-7.25,17.62-7.25,6.02,0,10.94,1.56,14.74,4.67,3.8,3.11,6.27,6.85,7.4,11.22l-10.33,3.77c-.66-2.51-1.94-4.65-3.82-6.4-1.89-1.75-4.52-2.63-7.89-2.63Z"/>
  </g>
  <g>
    <path class="cls-2" d="M227.38,94.23c121.74,0,220.77,99.04,220.77,220.77s-99.04,220.77-220.77,220.77S6.61,436.73,6.61,315,105.65,94.23,227.38,94.23M227.38,87.62C101.8,87.62,0,189.42,0,315s101.8,227.38,227.38,227.38,227.38-101.8,227.38-227.38-101.8-227.38-227.38-227.38h0Z"/>
    <g>
      <path class="cls-1" d="M429.74,315c0-1.44-.08-2.85-.11-4.28-28.98-3.48-59.22,5.85-81.42,28.05-.43.43-.86.87-1.27,1.3-36.98,38.35-36.67,99.54.92,137.52,49.68-36.87,81.88-95.96,81.88-162.58Z"/>
      <path class="cls-1" d="M25.03,315c0,3.68.11,7.34.31,10.97,32.13,11.06,69.12,5.54,97.02-17.8l.1-.08c42.31-35.49,47.86-98.79,12.37-141.1-6.36-7.58-13.61-13.95-21.47-19.15-53.32,36.44-88.32,97.71-88.32,167.16Z"/>
      <path class="cls-1" d="M282.77,408.36c0-25.07,6.79-49.09,19.5-69.98,2.44-4.02,5.1-7.92,7.98-11.69l-32.01-32.01v35.26h-36.62v-98.59h96.97v36.62h-35.26l32.82,32.81c23.37-17.82,51.78-27.48,81.67-27.48,2.57,0,5.12.09,7.66.23-19.13-91.87-100.54-160.9-198.09-160.9-27.76,0-54.2,5.6-78.29,15.71,5.07,4.5,9.84,9.4,14.27,14.68,23.59,28.12,34.82,63.75,31.61,100.32-2.28,26.03-11.69,50.32-27.06,70.66-2.52,3.34-5.21,6.57-8.05,9.69l28.35,33.8,29.44-24.7,23.95,28.55-29.45,24.7,22.75,27.12-28.55,23.95-22.75-27.12-29.45,24.7-23.95-28.55,29.45-24.7-28.35-33.8c-25.28,15.99-54.93,23.25-85.24,20.6-4.91-.43-9.74-1.13-14.51-2.06,22.67,86.97,101.74,151.17,195.81,151.17,31.77,0,61.81-7.34,88.57-20.38-21.45-24.58-33.19-55.69-33.19-88.62Z"/>
    </g>
  </g>
</svg>