<svg width="500" height="500" viewBox="0 0 500 500" fill="none" xmlns="http://www.w3.org/2000/svg">
<g clip-path="url(#clip0_415_4864)">
<path d="M500 382.398H0V382.648H500V382.398Z" fill="#EBEBEB"/>
<path d="M78.4579 391.922H52.4609V392.172H78.4579V391.922Z" fill="#EBEBEB"/>
<path d="M200.433 389.208H146.332V389.458H200.433V389.208Z" fill="#EBEBEB"/>
<path d="M105.774 401.208H79.457V401.458H105.774V401.208Z" fill="#EBEBEB"/>
<path d="M449.903 399.528H430.668V399.778H449.903V399.528Z" fill="#EBEBEB"/>
<path d="M421.765 399.528H391.473V399.778H421.765V399.528Z" fill="#EBEBEB"/>
<path d="M312.783 395.306H258.227V395.556H312.783V395.306Z" fill="#EBEBEB"/>
<path d="M382.193 149.609H312.759C309.013 153.354 306.914 155.454 303.168 159.2V372.807C306.913 376.553 309.013 378.652 312.759 382.398H382.193C385.938 378.653 388.038 376.553 391.784 372.807V159.2C388.038 155.455 385.938 153.355 382.193 149.609Z" fill="#E0E0E0"/>
<path d="M303.168 372.808L312.758 382.398H334.292L324.701 372.808H303.168Z" fill="#EBEBEB"/>
<path d="M303.168 159.2L312.758 149.609H334.292L324.701 159.2H303.168Z" fill="#EBEBEB"/>
<path d="M420.409 149.609H334.294C330.549 153.354 328.449 155.454 324.703 159.2V372.807C328.448 376.553 330.548 378.652 334.294 382.398H420.409C424.154 378.653 426.254 376.553 430 372.807V159.2C426.254 155.455 424.155 153.355 420.409 149.609Z" fill="#EBEBEB"/>
<path d="M335.513 377.92L329.18 371.587V160.421L335.513 154.087H419.186L425.52 160.421V371.587L419.186 377.92H335.513Z" fill="white"/>
<path d="M425.517 165.454H333.656V183.952H425.517V165.454Z" fill="#EBEBEB"/>
<path d="M420.332 352.914C420.332 353.357 420.691 353.716 421.135 353.716C421.578 353.716 421.937 353.357 421.937 352.914C421.937 352.471 421.578 352.111 421.135 352.111C420.691 352.111 420.332 352.471 420.332 352.914Z" fill="#F5F5F5"/>
<path d="M416.473 352.914C416.473 353.357 416.832 353.716 417.275 353.716C417.718 353.716 418.078 353.357 418.078 352.914C418.078 352.471 417.719 352.111 417.275 352.111C416.833 352.111 416.473 352.471 416.473 352.914Z" fill="white"/>
<path d="M412.613 352.914C412.613 353.357 412.972 353.716 413.415 353.716C413.858 353.716 414.217 353.357 414.217 352.914C414.217 352.471 413.858 352.111 413.415 352.111C412.973 352.111 412.613 352.471 412.613 352.914Z" fill="#F5F5F5"/>
<path d="M425.517 172.905H333.656V176.5H425.517V172.905Z" fill="#F5F5F5"/>
<path d="M329.178 183.951H333.656V165.453H329.178V183.951Z" fill="#E0E0E0"/>
<path d="M425.517 185.743H333.656V204.241H425.517V185.743Z" fill="#EBEBEB"/>
<path d="M420.332 332.625C420.332 333.068 420.691 333.427 421.135 333.427C421.578 333.427 421.937 333.068 421.937 332.625C421.937 332.182 421.578 331.823 421.135 331.823C420.691 331.822 420.332 332.181 420.332 332.625Z" fill="#F5F5F5"/>
<path d="M416.473 332.625C416.473 333.068 416.832 333.427 417.275 333.427C417.718 333.427 418.078 333.068 418.078 332.625C418.078 332.182 417.719 331.823 417.275 331.823C416.833 331.822 416.473 332.181 416.473 332.625Z" fill="white"/>
<path d="M412.613 332.625C412.613 333.068 412.972 333.427 413.415 333.427C413.858 333.427 414.217 333.068 414.217 332.625C414.217 332.182 413.858 331.823 413.415 331.823C412.973 331.822 412.613 332.181 412.613 332.625Z" fill="white"/>
<path d="M425.517 193.194H333.656V196.789H425.517V193.194Z" fill="#F5F5F5"/>
<path d="M329.178 204.24H333.656V185.742H329.178V204.24Z" fill="#E0E0E0"/>
<path d="M425.517 206.032H333.656V224.53H425.517V206.032Z" fill="#EBEBEB"/>
<path d="M420.332 312.336C420.332 312.779 420.691 313.138 421.135 313.138C421.578 313.138 421.937 312.779 421.937 312.336C421.937 311.893 421.578 311.533 421.135 311.533C420.691 311.533 420.332 311.892 420.332 312.336Z" fill="#F5F5F5"/>
<path d="M416.473 312.336C416.473 312.779 416.832 313.138 417.275 313.138C417.718 313.138 418.078 312.779 418.078 312.336C418.078 311.893 417.719 311.533 417.275 311.533C416.833 311.533 416.473 311.892 416.473 312.336Z" fill="#F5F5F5"/>
<path d="M412.613 312.336C412.613 312.779 412.972 313.138 413.415 313.138C413.858 313.138 414.217 312.779 414.217 312.336C414.217 311.893 413.858 311.533 413.415 311.533C412.973 311.533 412.613 311.892 412.613 312.336Z" fill="#F5F5F5"/>
<path d="M425.517 213.483H333.656V217.078H425.517V213.483Z" fill="#F5F5F5"/>
<path d="M329.178 224.53H333.656V206.032H329.178V224.53Z" fill="#E0E0E0"/>
<path d="M425.517 226.321H333.656V244.819H425.517V226.321Z" fill="#EBEBEB"/>
<path d="M420.332 292.046C420.332 292.489 420.691 292.848 421.135 292.848C421.578 292.848 421.937 292.489 421.937 292.046C421.937 291.603 421.578 291.244 421.135 291.244C420.691 291.244 420.332 291.603 420.332 292.046Z" fill="white"/>
<path d="M416.473 292.046C416.473 292.489 416.832 292.848 417.275 292.848C417.718 292.848 418.078 292.489 418.078 292.046C418.078 291.603 417.719 291.244 417.275 291.244C416.833 291.244 416.473 291.603 416.473 292.046Z" fill="white"/>
<path d="M412.613 292.046C412.613 292.489 412.972 292.848 413.415 292.848C413.858 292.848 414.217 292.489 414.217 292.046C414.217 291.603 413.858 291.244 413.415 291.244C412.973 291.244 412.613 291.603 412.613 292.046Z" fill="#F5F5F5"/>
<path d="M425.517 233.772H333.656V237.367H425.517V233.772Z" fill="#F5F5F5"/>
<path d="M329.178 244.819H333.656V226.321H329.178V244.819Z" fill="#E0E0E0"/>
<path d="M425.517 246.61H333.656V265.108H425.517V246.61Z" fill="#EBEBEB"/>
<path d="M420.332 271.757C420.332 272.2 420.691 272.56 421.135 272.56C421.578 272.56 421.937 272.201 421.937 271.757C421.937 271.314 421.578 270.955 421.135 270.955C420.691 270.955 420.332 271.314 420.332 271.757Z" fill="white"/>
<path d="M416.473 271.757C416.473 272.2 416.832 272.56 417.275 272.56C417.718 272.56 418.078 272.201 418.078 271.757C418.078 271.314 417.719 270.955 417.275 270.955C416.833 270.955 416.473 271.314 416.473 271.757Z" fill="white"/>
<path d="M412.613 271.757C412.613 272.2 412.972 272.56 413.415 272.56C413.858 272.56 414.217 272.201 414.217 271.757C414.217 271.314 413.858 270.955 413.415 270.955C412.973 270.955 412.613 271.314 412.613 271.757Z" fill="white"/>
<path d="M425.517 254.062H333.656V257.657H425.517V254.062Z" fill="#F5F5F5"/>
<path d="M329.178 265.108H333.656V246.61H329.178V265.108Z" fill="#E0E0E0"/>
<path d="M425.517 266.9H333.656V285.398H425.517V266.9Z" fill="#EBEBEB"/>
<path d="M420.332 251.468C420.332 251.911 420.691 252.27 421.135 252.27C421.578 252.27 421.937 251.911 421.937 251.468C421.937 251.025 421.578 250.666 421.135 250.666C420.691 250.665 420.332 251.025 420.332 251.468Z" fill="#F5F5F5"/>
<path d="M416.473 251.468C416.473 251.911 416.832 252.27 417.275 252.27C417.718 252.27 418.078 251.911 418.078 251.468C418.078 251.025 417.719 250.666 417.275 250.666C416.833 250.665 416.473 251.025 416.473 251.468Z" fill="white"/>
<path d="M412.613 251.468C412.613 251.911 412.972 252.27 413.415 252.27C413.858 252.27 414.217 251.911 414.217 251.468C414.217 251.025 413.858 250.666 413.415 250.666C412.973 250.665 412.613 251.025 412.613 251.468Z" fill="#F5F5F5"/>
<path d="M425.517 274.351H333.656V277.946H425.517V274.351Z" fill="#F5F5F5"/>
<path d="M329.178 285.397H333.656V266.899H329.178V285.397Z" fill="#E0E0E0"/>
<path d="M425.517 287.189H333.656V305.687H425.517V287.189Z" fill="#EBEBEB"/>
<path d="M420.332 231.179C420.332 231.622 420.691 231.981 421.135 231.981C421.578 231.981 421.937 231.622 421.937 231.179C421.937 230.736 421.578 230.376 421.135 230.376C420.691 230.376 420.332 230.735 420.332 231.179Z" fill="white"/>
<path d="M416.473 231.179C416.473 231.622 416.832 231.981 417.275 231.981C417.718 231.981 418.078 231.622 418.078 231.179C418.078 230.736 417.719 230.376 417.275 230.376C416.833 230.376 416.473 230.735 416.473 231.179Z" fill="white"/>
<path d="M412.613 231.179C412.613 231.622 412.972 231.981 413.415 231.981C413.858 231.981 414.217 231.622 414.217 231.179C414.217 230.736 413.858 230.376 413.415 230.376C412.973 230.376 412.613 230.735 412.613 231.179Z" fill="#F5F5F5"/>
<path d="M425.517 294.64H333.656V298.235H425.517V294.64Z" fill="#F5F5F5"/>
<path d="M329.178 305.687H333.656V287.189H329.178V305.687Z" fill="#E0E0E0"/>
<path d="M425.517 307.478H333.656V325.976H425.517V307.478Z" fill="#EBEBEB"/>
<path d="M420.332 210.889C420.332 211.332 420.691 211.691 421.135 211.691C421.578 211.691 421.937 211.332 421.937 210.889C421.937 210.446 421.578 210.086 421.135 210.086C420.691 210.087 420.332 210.446 420.332 210.889Z" fill="white"/>
<path d="M416.473 210.889C416.473 211.332 416.832 211.691 417.275 211.691C417.718 211.691 418.078 211.332 418.078 210.889C418.078 210.446 417.719 210.086 417.275 210.086C416.833 210.087 416.473 210.446 416.473 210.889Z" fill="#F5F5F5"/>
<path d="M412.613 210.889C412.613 211.332 412.972 211.691 413.415 211.691C413.858 211.691 414.217 211.332 414.217 210.889C414.217 210.446 413.858 210.086 413.415 210.086C412.973 210.087 412.613 210.446 412.613 210.889Z" fill="white"/>
<path d="M425.517 314.929H333.656V318.524H425.517V314.929Z" fill="#F5F5F5"/>
<path d="M329.178 325.976H333.656V307.478H329.178V325.976Z" fill="#E0E0E0"/>
<path d="M425.517 327.767H333.656V346.265H425.517V327.767Z" fill="#EBEBEB"/>
<path d="M420.332 190.6C420.332 191.043 420.691 191.402 421.135 191.402C421.578 191.402 421.937 191.043 421.937 190.6C421.937 190.157 421.578 189.797 421.135 189.797C420.691 189.798 420.332 190.157 420.332 190.6Z" fill="#F5F5F5"/>
<path d="M416.473 190.6C416.473 191.043 416.832 191.402 417.275 191.402C417.718 191.402 418.078 191.043 418.078 190.6C418.078 190.157 417.719 189.797 417.275 189.797C416.833 189.798 416.473 190.157 416.473 190.6Z" fill="white"/>
<path d="M412.613 190.6C412.613 191.043 412.972 191.402 413.415 191.402C413.858 191.402 414.217 191.043 414.217 190.6C414.217 190.157 413.858 189.797 413.415 189.797C412.973 189.798 412.613 190.157 412.613 190.6Z" fill="#F5F5F5"/>
<path d="M425.517 335.219H333.656V338.814H425.517V335.219Z" fill="#F5F5F5"/>
<path d="M329.178 346.265H333.656V327.767H329.178V346.265Z" fill="#E0E0E0"/>
<path d="M425.517 348.056H333.656V366.554H425.517V348.056Z" fill="#EBEBEB"/>
<path d="M420.332 170.311C420.332 170.754 420.691 171.114 421.135 171.114C421.578 171.114 421.937 170.755 421.937 170.311C421.937 169.868 421.578 169.509 421.135 169.509C420.691 169.508 420.332 169.868 420.332 170.311Z" fill="#F5F5F5"/>
<path d="M416.473 170.311C416.473 170.754 416.832 171.114 417.275 171.114C417.718 171.114 418.078 170.755 418.078 170.311C418.078 169.868 417.719 169.509 417.275 169.509C416.833 169.508 416.473 169.868 416.473 170.311Z" fill="#F5F5F5"/>
<path d="M412.613 170.311C412.613 170.754 412.972 171.114 413.415 171.114C413.858 171.114 414.217 170.755 414.217 170.311C414.217 169.868 413.858 169.509 413.415 169.509C412.973 169.508 412.613 169.868 412.613 170.311Z" fill="white"/>
<path d="M425.517 355.508H333.656V359.103H425.517V355.508Z" fill="#F5F5F5"/>
<path d="M329.178 366.554H333.656V348.056H329.178V366.554Z" fill="#E0E0E0"/>
<path d="M265.611 149.609H196.177C192.432 153.354 190.332 155.454 186.586 159.2V372.807C190.331 376.553 192.431 378.652 196.177 382.398H265.611C269.356 378.653 271.456 376.553 275.202 372.807V159.2C271.456 155.455 269.357 153.355 265.611 149.609Z" fill="#E0E0E0"/>
<path d="M186.586 372.808L196.177 382.398H217.71L208.12 372.808H186.586Z" fill="#EBEBEB"/>
<path d="M186.586 159.2L196.177 149.609H217.71L208.12 159.2H186.586Z" fill="#EBEBEB"/>
<path d="M303.827 149.609H217.712C213.967 153.354 211.867 155.454 208.121 159.2V372.807C211.866 376.553 213.966 378.652 217.712 382.398H303.827C307.572 378.653 309.672 376.553 313.418 372.807V159.2C309.673 155.455 307.573 153.355 303.827 149.609Z" fill="#EBEBEB"/>
<path d="M218.931 377.92L212.598 371.587V160.421L218.931 154.087H302.605L308.938 160.421V371.587L302.604 377.92H218.931Z" fill="white"/>
<path d="M308.935 165.454H217.074V183.952H308.935V165.454Z" fill="#EBEBEB"/>
<path d="M303.75 170.311C303.75 169.868 304.109 169.509 304.552 169.509C304.995 169.509 305.354 169.868 305.354 170.311C305.354 170.754 304.995 171.114 304.552 171.114C304.109 171.114 303.75 170.754 303.75 170.311Z" fill="#F5F5F5"/>
<path d="M299.891 170.311C299.891 169.868 300.25 169.509 300.693 169.509C301.136 169.509 301.495 169.868 301.495 170.311C301.495 170.754 301.136 171.114 300.693 171.114C300.251 171.113 299.891 170.754 299.891 170.311Z" fill="white"/>
<path d="M296.031 170.311C296.031 169.868 296.39 169.509 296.833 169.509C297.276 169.509 297.635 169.868 297.635 170.311C297.635 170.754 297.276 171.114 296.833 171.114C296.39 171.113 296.031 170.754 296.031 170.311Z" fill="#F5F5F5"/>
<path d="M308.935 172.905H217.074V176.5H308.935V172.905Z" fill="#F5F5F5"/>
<path d="M212.596 183.951H217.074V165.453H212.596V183.951Z" fill="#E0E0E0"/>
<path d="M308.935 185.743H217.074V204.241H308.935V185.743Z" fill="#EBEBEB"/>
<path d="M303.75 190.6C303.75 190.157 304.109 189.797 304.552 189.797C304.995 189.797 305.354 190.156 305.354 190.6C305.354 191.043 304.995 191.402 304.552 191.402C304.109 191.402 303.75 191.043 303.75 190.6Z" fill="#F5F5F5"/>
<path d="M299.891 190.6C299.891 190.157 300.25 189.797 300.693 189.797C301.136 189.797 301.495 190.156 301.495 190.6C301.495 191.043 301.136 191.402 300.693 191.402C300.251 191.403 299.891 191.043 299.891 190.6Z" fill="white"/>
<path d="M296.031 190.6C296.031 190.157 296.39 189.797 296.833 189.797C297.276 189.797 297.635 190.156 297.635 190.6C297.635 191.043 297.276 191.402 296.833 191.402C296.39 191.403 296.031 191.043 296.031 190.6Z" fill="white"/>
<path d="M308.935 193.194H217.074V196.789H308.935V193.194Z" fill="#F5F5F5"/>
<path d="M212.596 204.24H217.074V185.742H212.596V204.24Z" fill="#E0E0E0"/>
<path d="M308.935 206.032H217.074V224.53H308.935V206.032Z" fill="#EBEBEB"/>
<path d="M303.75 210.889C303.75 210.446 304.109 210.086 304.552 210.086C304.995 210.086 305.354 210.445 305.354 210.889C305.354 211.332 304.995 211.691 304.552 211.691C304.109 211.691 303.75 211.333 303.75 210.889Z" fill="#F5F5F5"/>
<path d="M299.891 210.889C299.891 210.446 300.25 210.086 300.693 210.086C301.136 210.086 301.495 210.445 301.495 210.889C301.495 211.332 301.136 211.691 300.693 211.691C300.251 211.692 299.891 211.333 299.891 210.889Z" fill="#F5F5F5"/>
<path d="M296.031 210.889C296.031 210.446 296.39 210.086 296.833 210.086C297.276 210.086 297.635 210.445 297.635 210.889C297.635 211.332 297.276 211.691 296.833 211.691C296.39 211.692 296.031 211.333 296.031 210.889Z" fill="#F5F5F5"/>
<path d="M308.935 213.483H217.074V217.078H308.935V213.483Z" fill="#F5F5F5"/>
<path d="M212.596 224.53H217.074V206.032H212.596V224.53Z" fill="#E0E0E0"/>
<path d="M308.935 226.321H217.074V244.819H308.935V226.321Z" fill="#EBEBEB"/>
<path d="M303.75 231.179C303.75 230.736 304.109 230.376 304.552 230.376C304.995 230.376 305.354 230.735 305.354 231.179C305.354 231.622 304.995 231.981 304.552 231.981C304.109 231.981 303.75 231.622 303.75 231.179Z" fill="white"/>
<path d="M299.891 231.179C299.891 230.736 300.25 230.376 300.693 230.376C301.136 230.376 301.495 230.735 301.495 231.179C301.495 231.622 301.136 231.981 300.693 231.981C300.251 231.981 299.891 231.622 299.891 231.179Z" fill="white"/>
<path d="M296.031 231.179C296.031 230.736 296.39 230.376 296.833 230.376C297.276 230.376 297.635 230.735 297.635 231.179C297.635 231.622 297.276 231.981 296.833 231.981C296.39 231.981 296.031 231.622 296.031 231.179Z" fill="#F5F5F5"/>
<path d="M308.935 233.772H217.074V237.367H308.935V233.772Z" fill="#F5F5F5"/>
<path d="M212.596 244.819H217.074V226.321H212.596V244.819Z" fill="#E0E0E0"/>
<path d="M308.935 246.61H217.074V265.108H308.935V246.61Z" fill="#EBEBEB"/>
<path d="M303.75 251.468C303.75 251.025 304.109 250.666 304.552 250.666C304.995 250.666 305.354 251.025 305.354 251.468C305.354 251.911 304.995 252.27 304.552 252.27C304.109 252.27 303.75 251.911 303.75 251.468Z" fill="white"/>
<path d="M299.891 251.468C299.891 251.025 300.25 250.666 300.693 250.666C301.136 250.666 301.495 251.025 301.495 251.468C301.495 251.911 301.136 252.27 300.693 252.27C300.251 252.27 299.891 251.911 299.891 251.468Z" fill="white"/>
<path d="M296.031 251.468C296.031 251.025 296.39 250.666 296.833 250.666C297.276 250.666 297.635 251.025 297.635 251.468C297.635 251.911 297.276 252.27 296.833 252.27C296.39 252.27 296.031 251.911 296.031 251.468Z" fill="white"/>
<path d="M308.935 254.062H217.074V257.657H308.935V254.062Z" fill="#F5F5F5"/>
<path d="M212.596 265.108H217.074V246.61H212.596V265.108Z" fill="#E0E0E0"/>
<path d="M308.935 266.9H217.074V285.398H308.935V266.9Z" fill="#EBEBEB"/>
<path d="M303.75 271.757C303.75 271.314 304.109 270.955 304.552 270.955C304.995 270.955 305.354 271.314 305.354 271.757C305.354 272.2 304.995 272.56 304.552 272.56C304.109 272.56 303.75 272.2 303.75 271.757Z" fill="#F5F5F5"/>
<path d="M299.891 271.757C299.891 271.314 300.25 270.955 300.693 270.955C301.136 270.955 301.495 271.314 301.495 271.757C301.495 272.2 301.136 272.56 300.693 272.56C300.251 272.56 299.891 272.2 299.891 271.757Z" fill="white"/>
<path d="M296.031 271.757C296.031 271.314 296.39 270.955 296.833 270.955C297.276 270.955 297.635 271.314 297.635 271.757C297.635 272.2 297.276 272.56 296.833 272.56C296.39 272.56 296.031 272.2 296.031 271.757Z" fill="#F5F5F5"/>
<path d="M308.935 274.351H217.074V277.946H308.935V274.351Z" fill="#F5F5F5"/>
<path d="M212.596 285.397H217.074V266.899H212.596V285.397Z" fill="#E0E0E0"/>
<path d="M308.935 287.189H217.074V305.687H308.935V287.189Z" fill="#EBEBEB"/>
<path d="M303.75 292.046C303.75 291.603 304.109 291.244 304.552 291.244C304.995 291.244 305.354 291.603 305.354 292.046C305.354 292.489 304.995 292.848 304.552 292.848C304.109 292.848 303.75 292.489 303.75 292.046Z" fill="white"/>
<path d="M299.891 292.046C299.891 291.603 300.25 291.244 300.693 291.244C301.136 291.244 301.495 291.603 301.495 292.046C301.495 292.489 301.136 292.848 300.693 292.848C300.251 292.849 299.891 292.489 299.891 292.046Z" fill="white"/>
<path d="M296.031 292.046C296.031 291.603 296.39 291.244 296.833 291.244C297.276 291.244 297.635 291.603 297.635 292.046C297.635 292.489 297.276 292.848 296.833 292.848C296.39 292.849 296.031 292.489 296.031 292.046Z" fill="#F5F5F5"/>
<path d="M308.935 294.64H217.074V298.235H308.935V294.64Z" fill="#F5F5F5"/>
<path d="M212.596 305.686H217.074V287.188H212.596V305.686Z" fill="#E0E0E0"/>
<path d="M308.935 307.478H217.074V325.976H308.935V307.478Z" fill="#EBEBEB"/>
<path d="M303.75 312.336C303.75 311.893 304.109 311.533 304.552 311.533C304.995 311.533 305.354 311.892 305.354 312.336C305.354 312.779 304.995 313.138 304.552 313.138C304.109 313.138 303.75 312.779 303.75 312.336Z" fill="white"/>
<path d="M299.891 312.336C299.891 311.893 300.25 311.533 300.693 311.533C301.136 311.533 301.495 311.892 301.495 312.336C301.495 312.779 301.136 313.138 300.693 313.138C300.251 313.138 299.891 312.779 299.891 312.336Z" fill="#F5F5F5"/>
<path d="M296.031 312.336C296.031 311.893 296.39 311.533 296.833 311.533C297.276 311.533 297.635 311.892 297.635 312.336C297.635 312.779 297.276 313.138 296.833 313.138C296.39 313.138 296.031 312.779 296.031 312.336Z" fill="white"/>
<path d="M308.935 314.929H217.074V318.524H308.935V314.929Z" fill="#F5F5F5"/>
<path d="M212.596 325.976H217.074V307.478H212.596V325.976Z" fill="#E0E0E0"/>
<path d="M308.935 327.767H217.074V346.265H308.935V327.767Z" fill="#EBEBEB"/>
<path d="M303.75 332.625C303.75 332.182 304.109 331.823 304.552 331.823C304.995 331.823 305.354 332.182 305.354 332.625C305.354 333.068 304.995 333.427 304.552 333.427C304.109 333.427 303.75 333.068 303.75 332.625Z" fill="#F5F5F5"/>
<path d="M299.891 332.625C299.891 332.182 300.25 331.823 300.693 331.823C301.136 331.823 301.495 332.182 301.495 332.625C301.495 333.068 301.136 333.427 300.693 333.427C300.251 333.427 299.891 333.068 299.891 332.625Z" fill="white"/>
<path d="M296.031 332.625C296.031 332.182 296.39 331.823 296.833 331.823C297.276 331.823 297.635 332.182 297.635 332.625C297.635 333.068 297.276 333.427 296.833 333.427C296.39 333.427 296.031 333.068 296.031 332.625Z" fill="#F5F5F5"/>
<path d="M308.935 335.219H217.074V338.814H308.935V335.219Z" fill="#F5F5F5"/>
<path d="M212.596 346.265H217.074V327.767H212.596V346.265Z" fill="#E0E0E0"/>
<path d="M308.935 348.056H217.074V366.554H308.935V348.056Z" fill="#EBEBEB"/>
<path d="M303.75 352.914C303.75 352.471 304.109 352.111 304.552 352.111C304.995 352.111 305.354 352.47 305.354 352.914C305.354 353.357 304.995 353.716 304.552 353.716C304.109 353.716 303.75 353.357 303.75 352.914Z" fill="#F5F5F5"/>
<path d="M299.891 352.914C299.891 352.471 300.25 352.111 300.693 352.111C301.136 352.111 301.495 352.47 301.495 352.914C301.495 353.357 301.136 353.716 300.693 353.716C300.251 353.716 299.891 353.357 299.891 352.914Z" fill="#F5F5F5"/>
<path d="M296.031 352.914C296.031 352.471 296.39 352.111 296.833 352.111C297.276 352.111 297.635 352.47 297.635 352.914C297.635 353.357 297.276 353.716 296.833 353.716C296.39 353.716 296.031 353.357 296.031 352.914Z" fill="white"/>
<path d="M308.935 355.508H217.074V359.103H308.935V355.508Z" fill="#F5F5F5"/>
<path d="M212.596 366.555H217.074V348.057H212.596V366.555Z" fill="#E0E0E0"/>
<path d="M149.024 149.609H79.591C75.846 153.354 73.746 155.454 70 159.2V372.807C73.745 376.553 75.845 378.652 79.591 382.398H149.025C152.77 378.653 154.87 376.553 158.616 372.807V159.2C154.87 155.455 152.77 153.355 149.024 149.609Z" fill="#E0E0E0"/>
<path d="M70 372.808L79.591 382.398H101.125L91.534 372.808H70Z" fill="#EBEBEB"/>
<path d="M70 159.2L79.591 149.609H101.125L91.534 159.2H70Z" fill="#EBEBEB"/>
<path d="M187.241 149.609H101.126C97.3802 153.354 95.2812 155.454 91.5352 159.2V372.807C95.2802 376.553 97.3802 378.652 101.126 382.398H187.241C190.987 378.653 193.086 376.553 196.832 372.807V159.2C193.086 155.455 190.986 153.355 187.241 149.609Z" fill="#EBEBEB"/>
<path d="M102.346 377.92L96.0117 371.587V160.421L102.346 154.087H186.019L192.352 160.421V371.587L186.018 377.92H102.346Z" fill="white"/>
<path d="M192.349 165.454H100.488V183.952H192.349V165.454Z" fill="#EBEBEB"/>
<path d="M187.164 352.914C187.164 353.357 187.523 353.716 187.966 353.716C188.409 353.716 188.769 353.357 188.769 352.914C188.769 352.471 188.41 352.111 187.966 352.111C187.524 352.111 187.164 352.471 187.164 352.914Z" fill="#F5F5F5"/>
<path d="M183.305 352.914C183.305 353.357 183.664 353.716 184.107 353.716C184.55 353.716 184.909 353.357 184.909 352.914C184.909 352.471 184.55 352.111 184.107 352.111C183.664 352.111 183.305 352.471 183.305 352.914Z" fill="white"/>
<path d="M179.445 352.914C179.445 353.357 179.804 353.716 180.248 353.716C180.691 353.716 181.05 353.357 181.05 352.914C181.05 352.471 180.691 352.111 180.248 352.111C179.804 352.111 179.445 352.471 179.445 352.914Z" fill="#F5F5F5"/>
<path d="M192.349 172.905H100.488V176.5H192.349V172.905Z" fill="#F5F5F5"/>
<path d="M96.0103 183.951H100.488V165.453H96.0103V183.951Z" fill="#E0E0E0"/>
<path d="M192.349 185.743H100.488V204.241H192.349V185.743Z" fill="#EBEBEB"/>
<path d="M187.164 332.625C187.164 333.068 187.523 333.427 187.966 333.427C188.409 333.427 188.769 333.068 188.769 332.625C188.769 332.182 188.41 331.823 187.966 331.823C187.524 331.822 187.164 332.181 187.164 332.625Z" fill="#F5F5F5"/>
<path d="M183.305 332.625C183.305 333.068 183.664 333.427 184.107 333.427C184.55 333.427 184.909 333.068 184.909 332.625C184.909 332.182 184.55 331.823 184.107 331.823C183.664 331.822 183.305 332.181 183.305 332.625Z" fill="white"/>
<path d="M179.445 332.625C179.445 333.068 179.804 333.427 180.248 333.427C180.691 333.427 181.05 333.068 181.05 332.625C181.05 332.182 180.691 331.823 180.248 331.823C179.804 331.822 179.445 332.181 179.445 332.625Z" fill="white"/>
<path d="M192.349 193.194H100.488V196.789H192.349V193.194Z" fill="#F5F5F5"/>
<path d="M96.0103 204.24H100.488V185.742H96.0103V204.24Z" fill="#E0E0E0"/>
<path d="M192.349 206.032H100.488V224.53H192.349V206.032Z" fill="#EBEBEB"/>
<path d="M187.164 312.336C187.164 312.779 187.523 313.138 187.966 313.138C188.409 313.138 188.769 312.779 188.769 312.336C188.769 311.893 188.41 311.533 187.966 311.533C187.524 311.533 187.164 311.892 187.164 312.336Z" fill="#F5F5F5"/>
<path d="M183.305 312.336C183.305 312.779 183.664 313.138 184.107 313.138C184.55 313.138 184.909 312.779 184.909 312.336C184.909 311.893 184.55 311.533 184.107 311.533C183.664 311.533 183.305 311.892 183.305 312.336Z" fill="#F5F5F5"/>
<path d="M179.445 312.336C179.445 312.779 179.804 313.138 180.248 313.138C180.691 313.138 181.05 312.779 181.05 312.336C181.05 311.893 180.691 311.533 180.248 311.533C179.804 311.533 179.445 311.892 179.445 312.336Z" fill="#F5F5F5"/>
<path d="M192.349 213.483H100.488V217.078H192.349V213.483Z" fill="#F5F5F5"/>
<path d="M96.0103 224.53H100.488V206.032H96.0103V224.53Z" fill="#E0E0E0"/>
<path d="M192.349 226.321H100.488V244.819H192.349V226.321Z" fill="#EBEBEB"/>
<path d="M187.164 292.046C187.164 292.489 187.523 292.848 187.966 292.848C188.409 292.848 188.769 292.489 188.769 292.046C188.769 291.603 188.41 291.244 187.966 291.244C187.524 291.244 187.164 291.603 187.164 292.046Z" fill="white"/>
<path d="M183.305 292.046C183.305 292.489 183.664 292.848 184.107 292.848C184.55 292.848 184.909 292.489 184.909 292.046C184.909 291.603 184.55 291.244 184.107 291.244C183.664 291.244 183.305 291.603 183.305 292.046Z" fill="white"/>
<path d="M179.445 292.046C179.445 292.489 179.804 292.848 180.248 292.848C180.691 292.848 181.05 292.489 181.05 292.046C181.05 291.603 180.691 291.244 180.248 291.244C179.804 291.244 179.445 291.603 179.445 292.046Z" fill="#F5F5F5"/>
<path d="M192.349 233.772H100.488V237.367H192.349V233.772Z" fill="#F5F5F5"/>
<path d="M96.0103 244.819H100.488V226.321H96.0103V244.819Z" fill="#E0E0E0"/>
<path d="M192.349 246.61H100.488V265.108H192.349V246.61Z" fill="#EBEBEB"/>
<path d="M187.164 271.757C187.164 272.2 187.523 272.56 187.966 272.56C188.409 272.56 188.769 272.201 188.769 271.757C188.769 271.314 188.41 270.955 187.966 270.955C187.524 270.955 187.164 271.314 187.164 271.757Z" fill="white"/>
<path d="M183.305 271.757C183.305 272.2 183.664 272.56 184.107 272.56C184.55 272.56 184.909 272.201 184.909 271.757C184.909 271.314 184.55 270.955 184.107 270.955C183.664 270.955 183.305 271.314 183.305 271.757Z" fill="white"/>
<path d="M179.445 271.757C179.445 272.2 179.804 272.56 180.248 272.56C180.691 272.56 181.05 272.201 181.05 271.757C181.05 271.314 180.691 270.955 180.248 270.955C179.804 270.955 179.445 271.314 179.445 271.757Z" fill="white"/>
<path d="M192.349 254.062H100.488V257.657H192.349V254.062Z" fill="#F5F5F5"/>
<path d="M96.0103 265.108H100.488V246.61H96.0103V265.108Z" fill="#E0E0E0"/>
<path d="M192.349 266.9H100.488V285.398H192.349V266.9Z" fill="#EBEBEB"/>
<path d="M187.164 251.468C187.164 251.911 187.523 252.27 187.966 252.27C188.409 252.27 188.769 251.911 188.769 251.468C188.769 251.025 188.41 250.666 187.966 250.666C187.524 250.665 187.164 251.025 187.164 251.468Z" fill="#F5F5F5"/>
<path d="M183.305 251.468C183.305 251.911 183.664 252.27 184.107 252.27C184.55 252.27 184.909 251.911 184.909 251.468C184.909 251.025 184.55 250.666 184.107 250.666C183.664 250.665 183.305 251.025 183.305 251.468Z" fill="white"/>
<path d="M179.445 251.468C179.445 251.911 179.804 252.27 180.248 252.27C180.691 252.27 181.05 251.911 181.05 251.468C181.05 251.025 180.691 250.666 180.248 250.666C179.804 250.665 179.445 251.025 179.445 251.468Z" fill="#F5F5F5"/>
<path d="M192.349 274.351H100.488V277.946H192.349V274.351Z" fill="#F5F5F5"/>
<path d="M96.0103 285.397H100.488V266.899H96.0103V285.397Z" fill="#E0E0E0"/>
<path d="M192.349 287.189H100.488V305.687H192.349V287.189Z" fill="#EBEBEB"/>
<path d="M187.164 231.179C187.164 231.622 187.523 231.981 187.966 231.981C188.409 231.981 188.769 231.622 188.769 231.179C188.769 230.736 188.41 230.376 187.966 230.376C187.524 230.376 187.164 230.735 187.164 231.179Z" fill="white"/>
<path d="M183.305 231.179C183.305 231.622 183.664 231.981 184.107 231.981C184.55 231.981 184.909 231.622 184.909 231.179C184.909 230.736 184.55 230.376 184.107 230.376C183.664 230.376 183.305 230.735 183.305 231.179Z" fill="white"/>
<path d="M179.445 231.179C179.445 231.622 179.804 231.981 180.248 231.981C180.691 231.981 181.05 231.622 181.05 231.179C181.05 230.736 180.691 230.376 180.248 230.376C179.804 230.376 179.445 230.735 179.445 231.179Z" fill="#F5F5F5"/>
<path d="M192.349 294.64H100.488V298.235H192.349V294.64Z" fill="#F5F5F5"/>
<path d="M96.0103 305.687H100.488V287.189H96.0103V305.687Z" fill="#E0E0E0"/>
<path d="M192.349 307.478H100.488V325.976H192.349V307.478Z" fill="#EBEBEB"/>
<path d="M187.164 210.889C187.164 211.332 187.523 211.691 187.966 211.691C188.409 211.691 188.769 211.332 188.769 210.889C188.769 210.446 188.41 210.086 187.966 210.086C187.524 210.087 187.164 210.446 187.164 210.889Z" fill="white"/>
<path d="M183.305 210.889C183.305 211.332 183.664 211.691 184.107 211.691C184.55 211.691 184.909 211.332 184.909 210.889C184.909 210.446 184.55 210.086 184.107 210.086C183.664 210.087 183.305 210.446 183.305 210.889Z" fill="#F5F5F5"/>
<path d="M179.445 210.889C179.445 211.332 179.804 211.691 180.248 211.691C180.691 211.691 181.05 211.332 181.05 210.889C181.05 210.446 180.691 210.086 180.248 210.086C179.804 210.087 179.445 210.446 179.445 210.889Z" fill="white"/>
<path d="M192.349 314.929H100.488V318.524H192.349V314.929Z" fill="#F5F5F5"/>
<path d="M96.0103 325.976H100.488V307.478H96.0103V325.976Z" fill="#E0E0E0"/>
<path d="M192.349 327.767H100.488V346.265H192.349V327.767Z" fill="#EBEBEB"/>
<path d="M187.164 190.6C187.164 191.043 187.523 191.402 187.966 191.402C188.409 191.402 188.769 191.043 188.769 190.6C188.769 190.157 188.41 189.797 187.966 189.797C187.524 189.798 187.164 190.157 187.164 190.6Z" fill="#F5F5F5"/>
<path d="M183.305 190.6C183.305 191.043 183.664 191.402 184.107 191.402C184.55 191.402 184.909 191.043 184.909 190.6C184.909 190.157 184.55 189.797 184.107 189.797C183.664 189.798 183.305 190.157 183.305 190.6Z" fill="white"/>
<path d="M179.445 190.6C179.445 191.043 179.804 191.402 180.248 191.402C180.691 191.402 181.05 191.043 181.05 190.6C181.05 190.157 180.691 189.797 180.248 189.797C179.804 189.798 179.445 190.157 179.445 190.6Z" fill="#F5F5F5"/>
<path d="M192.349 335.219H100.488V338.814H192.349V335.219Z" fill="#F5F5F5"/>
<path d="M96.0103 346.265H100.488V327.767H96.0103V346.265Z" fill="#E0E0E0"/>
<path d="M192.349 348.056H100.488V366.554H192.349V348.056Z" fill="#EBEBEB"/>
<path d="M187.164 170.311C187.164 170.754 187.523 171.114 187.966 171.114C188.409 171.114 188.769 170.755 188.769 170.311C188.769 169.868 188.41 169.509 187.966 169.509C187.524 169.508 187.164 169.868 187.164 170.311Z" fill="#F5F5F5"/>
<path d="M183.305 170.311C183.305 170.754 183.664 171.114 184.107 171.114C184.55 171.114 184.909 170.755 184.909 170.311C184.909 169.868 184.55 169.509 184.107 169.509C183.664 169.508 183.305 169.868 183.305 170.311Z" fill="#F5F5F5"/>
<path d="M179.445 170.311C179.445 170.754 179.804 171.114 180.248 171.114C180.691 171.114 181.05 170.755 181.05 170.311C181.05 169.868 180.691 169.509 180.248 169.509C179.804 169.508 179.445 169.868 179.445 170.311Z" fill="white"/>
<path d="M192.349 355.508H100.488V359.103H192.349V355.508Z" fill="#F5F5F5"/>
<path d="M96.0103 366.554H100.488V348.056H96.0103V366.554Z" fill="#E0E0E0"/>
<path d="M182.829 95.1799C182.766 87.0379 176.149 80.4569 167.993 80.4569C166.028 80.4569 164.155 80.8419 162.439 81.5349C159.525 75.5739 153.404 71.4669 146.322 71.4669C137.757 71.4669 130.6 77.4729 128.82 85.5019C120.765 86.0199 114.391 92.7129 114.391 100.899C114.391 109.422 121.301 116.332 129.824 116.332H178.933C184.975 116.332 189.873 111.434 189.873 105.392C189.873 100.725 186.944 96.7509 182.829 95.1799Z" fill="#F5F5F5"/>
<path d="M422.271 80.504C422.188 69.731 413.432 61.022 402.64 61.022C400.04 61.022 397.561 61.532 395.291 62.449C391.435 54.561 383.336 49.127 373.965 49.127C362.632 49.127 353.162 57.074 350.807 67.698C340.149 68.384 331.715 77.24 331.715 88.072C331.715 99.35 340.858 108.493 352.136 108.493H417.117C425.112 108.493 431.593 102.012 431.593 94.017C431.592 87.841 427.717 82.583 422.271 80.504Z" fill="#F5F5F5"/>
<path d="M249.998 427.561C357.08 427.561 443.887 422.492 443.887 416.238C443.887 409.985 357.08 404.915 249.998 404.915C142.916 404.915 56.1094 409.985 56.1094 416.238C56.1094 422.492 142.916 427.561 249.998 427.561Z" fill="#F5F5F5"/>
<path d="M86.5226 401.469V399.952H77.5666C77.1476 399.952 76.8086 400.292 76.8086 400.71C76.8086 401.129 77.1486 401.468 77.5666 401.468H86.5226V401.469Z" fill="#1BADA2"/>
<path d="M86.5226 407.97V406.453H77.5666C77.1476 406.453 76.8086 406.792 76.8086 407.211C76.8086 407.63 77.1486 407.969 77.5666 407.969H86.5226V407.97Z" fill="#1BADA2"/>
<path d="M83.2992 396.242C82.6012 396.242 82.0352 396.808 82.0352 397.506V410.723C82.0352 411.421 82.6012 411.987 83.2992 411.987C83.9972 411.987 84.5632 411.421 84.5632 410.723V397.506C84.5632 396.808 83.9972 396.242 83.2992 396.242Z" fill="#263238"/>
<path d="M86.8798 398.087H83.3008V410.142H86.8798C90.2088 410.142 92.9068 407.443 92.9068 404.115C92.9068 400.786 90.2078 398.087 86.8798 398.087Z" fill="#263238"/>
<path d="M115.12 412.358C112.492 412.358 110.013 412.062 107.399 411.75L102.995 411.225C102.295 411.256 101.587 411.305 100.87 411.378C99.8541 411.482 98.82 411.646 97.82 411.804C95.93 412.102 93.977 412.414 92.013 412.345C91.642 412.332 91.214 412.303 90.818 412.108C90.316 411.86 90 411.383 90.012 410.893C90.022 410.433 90.318 409.995 90.783 409.752C91.146 409.56 91.5481 409.512 91.8961 409.481C94.1361 409.288 96.37 409.553 98.531 409.812L103.029 410.349C104.848 410.269 106.607 410.312 108.324 410.354C110.508 410.405 112.766 410.459 115.125 410.267C117.127 410.106 118.552 409.432 118.63 409.133C118.2 408.611 117.092 408.449 114.824 408.162C113.14 407.948 111.001 407.891 108.735 407.83C106.947 407.781 105.099 407.732 103.208 407.605C99.435 407.353 94.573 406.753 90.442 404.336C90.234 404.214 90.1641 403.946 90.2861 403.738C90.4081 403.531 90.6751 403.459 90.8841 403.582C94.8581 405.907 99.589 406.487 103.267 406.733C105.141 406.858 106.98 406.908 108.759 406.956C111.047 407.017 113.208 407.075 114.935 407.294C116.265 407.463 117.202 407.589 117.886 407.773C117.848 407.723 117.809 407.673 117.77 407.624C117.444 407.201 117.106 406.765 116.807 406.301C116.434 405.722 116.02 405.039 115.85 404.261C115.654 403.366 115.839 402.479 116.347 401.888C116.982 401.149 118.003 400.963 118.715 400.887C120.822 400.664 122.921 400.975 124.951 401.275C125.189 401.31 125.354 401.532 125.319 401.77C125.283 402.009 125.064 402.184 124.823 402.138C122.848 401.846 120.806 401.546 118.806 401.756C118.242 401.816 117.441 401.953 117.009 402.457C116.679 402.841 116.564 403.445 116.702 404.073C116.842 404.71 117.207 405.312 117.539 405.826C117.819 406.26 118.145 406.681 118.46 407.089C118.664 407.353 118.867 407.616 119.062 407.886L119.163 408.025C119.609 408.634 120.22 409.468 120.093 410.351C119.818 412.274 117.101 412.326 115.795 412.35C115.567 412.356 115.342 412.358 115.12 412.358ZM111.04 411.275C112.597 411.421 114.144 411.507 115.722 411.479C116.84 411.458 119.055 411.415 119.225 410.228C119.243 410.1 119.229 409.965 119.192 409.827C118.444 410.606 116.481 411.034 115.192 411.139C113.769 411.254 112.391 411.278 111.04 411.275ZM93.503 410.289C92.991 410.289 92.479 410.307 91.969 410.352C91.694 410.375 91.407 410.409 91.186 410.525C91.01 410.617 90.8861 410.776 90.8831 410.913C90.8801 411.059 91.0141 411.231 91.2021 411.324C91.4421 411.442 91.748 411.462 92.041 411.472C93.925 411.54 95.833 411.233 97.683 410.941C98.103 410.875 98.529 410.807 98.958 410.744L98.4261 410.68C96.8111 410.486 95.153 410.289 93.503 410.289Z" fill="#263238"/>
<path d="M220.113 171.014H130.324C126.419 174.919 124.229 177.109 120.324 181.014V403.735C124.229 407.64 126.419 409.83 130.324 413.735H220.113C224.018 409.83 226.208 407.64 230.113 403.735V181.014C226.208 177.109 224.019 174.92 220.113 171.014Z" fill="black"/>
<path d="M104.162 190.404L102.139 193.155L97.0039 185.818L100.855 200.203L102.878 197.453L108.012 204.79L104.162 190.404Z" fill="#1BADA2"/>
<path d="M181.059 142.201L178.022 143.762L176.692 134.906L173.734 149.501L176.77 147.94L178.1 156.796L181.059 142.201Z" fill="#1BADA2"/>
<path d="M206.646 146.198L202.028 145.124L208.577 134.553L192.332 147.347L196.95 148.421L190.402 158.992L206.646 146.198Z" fill="#1BADA2"/>
<path opacity="0.7" d="M120.324 403.736L130.324 413.736H170.17L160.17 403.736H120.324Z" fill="#263238"/>
<path opacity="0.7" d="M120.324 181.014L130.324 171.014H170.17L160.17 181.014H120.324Z" fill="#263238"/>
<path d="M259.957 171.014H170.168C166.263 174.919 164.073 177.109 160.168 181.014V403.735C164.073 407.64 166.263 409.83 170.168 413.735H259.957C263.862 409.83 266.052 407.64 269.957 403.735V181.014C266.052 177.109 263.862 174.92 259.957 171.014Z" fill="#263238"/>
<path opacity="0.6" d="M171.444 409.066L164.84 402.463V182.287L171.444 175.684H258.687L265.291 182.287V402.463L258.687 409.066H171.444Z" fill="#1BADA2"/>
<path d="M265.289 187.535H169.508V206.822H265.289V187.535Z" fill="#263238"/>
<path d="M259.879 192.599C259.879 192.137 260.254 191.762 260.716 191.762C261.178 191.762 261.553 192.137 261.553 192.599C261.553 193.061 261.178 193.436 260.716 193.436C260.254 193.436 259.879 193.061 259.879 192.599Z" fill="#1BADA2"/>
<path d="M255.855 192.599C255.855 192.137 256.23 191.762 256.692 191.762C257.154 191.762 257.529 192.137 257.529 192.599C257.529 193.061 257.154 193.436 256.692 193.436C256.23 193.436 255.855 193.061 255.855 192.599Z" fill="white"/>
<path d="M251.832 192.599C251.832 192.137 252.207 191.762 252.669 191.762C253.131 191.762 253.506 192.137 253.506 192.599C253.506 193.061 253.131 193.436 252.669 193.436C252.207 193.436 251.832 193.061 251.832 192.599Z" fill="#1BADA2"/>
<path d="M265.289 195.304H169.508V199.053H265.289V195.304Z" fill="#1BADA2"/>
<path d="M164.839 206.821H169.508V187.534H164.839V206.821Z" fill="black"/>
<path d="M265.289 208.689H169.508V227.976H265.289V208.689Z" fill="#263238"/>
<path d="M260.716 214.591C261.178 214.591 261.553 214.216 261.553 213.754C261.553 213.292 261.178 212.917 260.716 212.917C260.254 212.917 259.879 213.292 259.879 213.754C259.879 214.216 260.254 214.591 260.716 214.591Z" fill="#1BADA2"/>
<path d="M256.692 214.591C257.155 214.591 257.529 214.216 257.529 213.754C257.529 213.292 257.155 212.917 256.692 212.917C256.23 212.917 255.855 213.292 255.855 213.754C255.855 214.216 256.23 214.591 256.692 214.591Z" fill="white"/>
<path d="M252.669 214.591C253.131 214.591 253.506 214.216 253.506 213.754C253.506 213.292 253.131 212.917 252.669 212.917C252.207 212.917 251.832 213.292 251.832 213.754C251.832 214.216 252.207 214.591 252.669 214.591Z" fill="white"/>
<path d="M265.289 216.459H169.508V220.208H265.289V216.459Z" fill="#1BADA2"/>
<path d="M164.839 227.977H169.508V208.69H164.839V227.977Z" fill="black"/>
<path d="M265.289 229.844H169.508V249.131H265.289V229.844Z" fill="#263238"/>
<path d="M260.716 235.746C261.178 235.746 261.553 235.371 261.553 234.909C261.553 234.447 261.178 234.072 260.716 234.072C260.254 234.072 259.879 234.447 259.879 234.909C259.879 235.371 260.254 235.746 260.716 235.746Z" fill="#1BADA2"/>
<path d="M256.692 235.746C257.155 235.746 257.529 235.371 257.529 234.909C257.529 234.447 257.155 234.072 256.692 234.072C256.23 234.072 255.855 234.447 255.855 234.909C255.855 235.371 256.23 235.746 256.692 235.746Z" fill="#1BADA2"/>
<path d="M252.669 235.746C253.131 235.746 253.506 235.371 253.506 234.909C253.506 234.447 253.131 234.072 252.669 234.072C252.207 234.072 251.832 234.447 251.832 234.909C251.832 235.371 252.207 235.746 252.669 235.746Z" fill="#1BADA2"/>
<path d="M265.289 237.613H169.508V241.362H265.289V237.613Z" fill="#1BADA2"/>
<path d="M164.839 249.132H169.508V229.845H164.839V249.132Z" fill="black"/>
<path d="M265.289 250.999H169.508V270.286H265.289V250.999Z" fill="#263238"/>
<path d="M260.716 256.901C261.178 256.901 261.553 256.526 261.553 256.064C261.553 255.602 261.178 255.227 260.716 255.227C260.254 255.227 259.879 255.602 259.879 256.064C259.879 256.526 260.254 256.901 260.716 256.901Z" fill="white"/>
<path d="M256.692 256.901C257.155 256.901 257.529 256.526 257.529 256.064C257.529 255.602 257.155 255.227 256.692 255.227C256.23 255.227 255.855 255.602 255.855 256.064C255.855 256.526 256.23 256.901 256.692 256.901Z" fill="white"/>
<path d="M252.669 256.901C253.131 256.901 253.506 256.526 253.506 256.064C253.506 255.602 253.131 255.227 252.669 255.227C252.207 255.227 251.832 255.602 251.832 256.064C251.832 256.526 252.207 256.901 252.669 256.901Z" fill="#1BADA2"/>
<path d="M265.289 258.768H169.508V262.517H265.289V258.768Z" fill="#1BADA2"/>
<path d="M164.839 270.286H169.508V250.999H164.839V270.286Z" fill="black"/>
<path d="M265.289 272.154H169.508V291.441H265.289V272.154Z" fill="#263238"/>
<path d="M259.879 277.219C259.879 276.757 260.254 276.382 260.716 276.382C261.178 276.382 261.553 276.757 261.553 277.219C261.553 277.681 261.178 278.056 260.716 278.056C260.254 278.056 259.879 277.681 259.879 277.219Z" fill="white"/>
<path d="M255.855 277.219C255.855 276.757 256.23 276.382 256.692 276.382C257.154 276.382 257.529 276.757 257.529 277.219C257.529 277.681 257.154 278.056 256.692 278.056C256.23 278.056 255.855 277.681 255.855 277.219Z" fill="white"/>
<path d="M251.832 277.219C251.832 276.757 252.207 276.382 252.669 276.382C253.131 276.382 253.506 276.757 253.506 277.219C253.506 277.681 253.131 278.056 252.669 278.056C252.207 278.056 251.832 277.681 251.832 277.219Z" fill="white"/>
<path d="M265.289 279.923H169.508V283.672H265.289V279.923Z" fill="#1BADA2"/>
<path d="M164.839 291.441H169.508V272.154H164.839V291.441Z" fill="black"/>
<path d="M265.289 293.309H169.508V312.596H265.289V293.309Z" fill="#263238"/>
<path d="M259.879 298.374C259.879 297.912 260.254 297.537 260.716 297.537C261.178 297.537 261.553 297.912 261.553 298.374C261.553 298.836 261.178 299.211 260.716 299.211C260.254 299.211 259.879 298.836 259.879 298.374Z" fill="#1BADA2"/>
<path d="M255.855 298.374C255.855 297.912 256.23 297.537 256.692 297.537C257.154 297.537 257.529 297.912 257.529 298.374C257.529 298.836 257.154 299.211 256.692 299.211C256.23 299.211 255.855 298.836 255.855 298.374Z" fill="white"/>
<path d="M251.832 298.374C251.832 297.912 252.207 297.537 252.669 297.537C253.131 297.537 253.506 297.912 253.506 298.374C253.506 298.836 253.131 299.211 252.669 299.211C252.207 299.211 251.832 298.836 251.832 298.374Z" fill="#1BADA2"/>
<path d="M265.289 301.078H169.508V304.827H265.289V301.078Z" fill="#1BADA2"/>
<path d="M164.839 312.596H169.508V293.309H164.839V312.596Z" fill="black"/>
<path d="M265.289 314.464H169.508V333.751H265.289V314.464Z" fill="#263238"/>
<path d="M260.716 320.366C261.178 320.366 261.553 319.991 261.553 319.529C261.553 319.067 261.178 318.692 260.716 318.692C260.254 318.692 259.879 319.067 259.879 319.529C259.879 319.991 260.254 320.366 260.716 320.366Z" fill="white"/>
<path d="M256.692 320.366C257.155 320.366 257.529 319.991 257.529 319.529C257.529 319.067 257.155 318.692 256.692 318.692C256.23 318.692 255.855 319.067 255.855 319.529C255.855 319.991 256.23 320.366 256.692 320.366Z" fill="white"/>
<path d="M252.669 320.366C253.131 320.366 253.506 319.991 253.506 319.529C253.506 319.067 253.131 318.692 252.669 318.692C252.207 318.692 251.832 319.067 251.832 319.529C251.832 319.991 252.207 320.366 252.669 320.366Z" fill="#1BADA2"/>
<path d="M265.289 322.233H169.508V325.982H265.289V322.233Z" fill="#1BADA2"/>
<path d="M164.839 333.751H169.508V314.464H164.839V333.751Z" fill="black"/>
<path d="M265.289 335.619H169.508V354.906H265.289V335.619Z" fill="#263238"/>
<path d="M260.716 341.52C261.178 341.52 261.553 341.145 261.553 340.683C261.553 340.221 261.178 339.846 260.716 339.846C260.254 339.846 259.879 340.221 259.879 340.683C259.879 341.145 260.254 341.52 260.716 341.52Z" fill="white"/>
<path d="M256.692 341.52C257.155 341.52 257.529 341.145 257.529 340.683C257.529 340.221 257.155 339.846 256.692 339.846C256.23 339.846 255.855 340.221 255.855 340.683C255.855 341.145 256.23 341.52 256.692 341.52Z" fill="#1BADA2"/>
<path d="M252.669 341.52C253.131 341.52 253.506 341.145 253.506 340.683C253.506 340.221 253.131 339.846 252.669 339.846C252.207 339.846 251.832 340.221 251.832 340.683C251.832 341.145 252.207 341.52 252.669 341.52Z" fill="white"/>
<path d="M265.289 343.388H169.508V347.137H265.289V343.388Z" fill="#1BADA2"/>
<path d="M164.839 354.906H169.508V335.618H164.839V354.906Z" fill="black"/>
<path d="M265.289 356.774H169.508V376.061H265.289V356.774Z" fill="#263238"/>
<path d="M260.716 362.675C261.178 362.675 261.553 362.3 261.553 361.838C261.553 361.376 261.178 361.001 260.716 361.001C260.254 361.001 259.879 361.376 259.879 361.838C259.879 362.3 260.254 362.675 260.716 362.675Z" fill="#1BADA2"/>
<path d="M256.692 362.675C257.155 362.675 257.529 362.3 257.529 361.838C257.529 361.376 257.155 361.001 256.692 361.001C256.23 361.001 255.855 361.376 255.855 361.838C255.855 362.3 256.23 362.675 256.692 362.675Z" fill="white"/>
<path d="M252.669 362.675C253.131 362.675 253.506 362.3 253.506 361.838C253.506 361.376 253.131 361.001 252.669 361.001C252.207 361.001 251.832 361.376 251.832 361.838C251.832 362.3 252.207 362.675 252.669 362.675Z" fill="#1BADA2"/>
<path d="M265.289 364.543H169.508V368.292H265.289V364.543Z" fill="#1BADA2"/>
<path d="M164.839 376.06H169.508V356.773H164.839V376.06Z" fill="black"/>
<path d="M265.289 377.928H169.508V397.215H265.289V377.928Z" fill="#263238"/>
<path d="M260.716 383.83C261.178 383.83 261.553 383.455 261.553 382.993C261.553 382.531 261.178 382.156 260.716 382.156C260.254 382.156 259.879 382.531 259.879 382.993C259.879 383.455 260.254 383.83 260.716 383.83Z" fill="#1BADA2"/>
<path d="M256.692 383.83C257.155 383.83 257.529 383.455 257.529 382.993C257.529 382.531 257.155 382.156 256.692 382.156C256.23 382.156 255.855 382.531 255.855 382.993C255.855 383.455 256.23 383.83 256.692 383.83Z" fill="#1BADA2"/>
<path d="M252.669 383.83C253.131 383.83 253.506 383.455 253.506 382.993C253.506 382.531 253.131 382.156 252.669 382.156C252.207 382.156 251.832 382.531 251.832 382.993C251.832 383.455 252.207 383.83 252.669 383.83Z" fill="white"/>
<path d="M265.289 385.698H169.508V389.447H265.289V385.698Z" fill="#1BADA2"/>
<path d="M164.839 397.216H169.508V377.929H164.839V397.216Z" fill="black"/>
<path opacity="0.7" d="M171.444 409.066L164.84 402.463V182.287L171.444 175.684H223.122L229.725 182.287V402.463L223.121 409.066H171.444Z" fill="#1BADA2"/>
<path d="M223.121 409.066L229.725 402.463V182.287L223.122 175.684H225.707L231.376 181.354V403.397L225.706 409.066H223.122H223.121Z" fill="#1BADA2"/>
<path d="M360.074 499.33V389.587L452.494 393.523V499.198" fill="#1BADA2"/>
<path d="M360.074 499.33V389.587L452.494 393.523V499.198" stroke="#263238" stroke-miterlimit="10" stroke-linecap="round" stroke-linejoin="round"/>
<path d="M394.188 426.249L405.146 431.634V500" stroke="#263238" stroke-miterlimit="10" stroke-linecap="round" stroke-linejoin="round"/>
<path d="M335.055 336.354L332.672 348.31L361.133 362.566L362.022 341.479L335.055 336.354Z" fill="white" stroke="#263238" stroke-miterlimit="10" stroke-linecap="round" stroke-linejoin="round"/>
<path d="M386.33 253.916C386.33 253.916 354.076 264.687 352.009 265.515C349.941 266.343 347.666 268.83 347.874 270.901C348.081 272.972 335.055 334.698 335.055 336.355C335.055 338.013 358.211 344.641 358.211 344.641C358.211 344.641 359.038 392.488 359.245 393.732C359.451 394.975 360.836 399.695 385.09 400.152C405.151 400.53 433.94 401.361 440.501 400.98C452.447 400.288 452.906 396.216 453.527 394.974C454.147 393.731 453.527 338.219 453.527 338.219L495.424 358.132C495.424 358.132 495.837 357.718 495.631 352.54C495.424 347.362 480.612 308.599 473.996 291.407C467.38 274.215 464.072 269.451 456.008 263.444C447.945 257.437 428.51 249.358 428.51 249.358C428.51 249.358 412.59 252.673 401.218 252.879C389.845 253.088 386.33 253.916 386.33 253.916Z" fill="white" stroke="#263238" stroke-miterlimit="10" stroke-linecap="round" stroke-linejoin="round"/>
<path d="M359.492 295.935L359.581 292.568" stroke="#263238" stroke-miterlimit="10" stroke-linecap="round" stroke-linejoin="round"/>
<path d="M358.211 344.641L359.404 299.324" stroke="#263238" stroke-miterlimit="10" stroke-linecap="round" stroke-linejoin="round"/>
<path d="M485.761 323.23C467.234 322.226 458.385 334.806 455.938 339.062L495.424 358.133C495.424 358.133 495.837 357.719 495.63 352.54C495.526 349.94 489.633 334.209 485.761 323.23Z" fill="white" stroke="#263238" stroke-miterlimit="10" stroke-linecap="round" stroke-linejoin="round"/>
<path d="M402.869 261.786C402.869 261.786 409.278 281.878 411.76 282.706C414.241 283.534 413.828 277.321 413.828 277.321C413.828 277.321 430.575 251.223 429.955 248.53C429.335 245.837 428.301 243.559 425.2 241.28C422.098 239.001 420.651 238.381 419.617 238.587C418.584 238.795 402.25 259.093 402.25 259.093L402.869 261.786Z" fill="white" stroke="#263238" stroke-miterlimit="10" stroke-linecap="round" stroke-linejoin="round"/>
<path d="M376.821 254.744C376.821 254.744 375.58 269.658 375.166 271.936C374.753 274.214 372.892 277.736 374.34 278.357C375.787 278.979 382.403 273.593 383.85 271.315C385.297 269.036 384.884 268.208 385.297 266.137C385.711 264.065 379.715 253.501 376.821 254.744Z" fill="white" stroke="#263238" stroke-miterlimit="10" stroke-linecap="round" stroke-linejoin="round"/>
<path d="M386.331 245.423C386.331 245.423 376.2 253.087 376.82 254.744C377.441 256.402 392.12 280.636 392.12 280.636C392.12 280.636 391.293 258.68 390.673 252.052C390.053 245.423 386.331 245.423 386.331 245.423Z" fill="white" stroke="#263238" stroke-miterlimit="10" stroke-linecap="round" stroke-linejoin="round"/>
<path d="M383.23 236.516L392.121 280.635C392.121 280.635 396.049 273.178 396.67 272.557C397.29 271.935 405.353 257.643 405.353 257.643C405.353 257.643 420.86 246.665 420.86 245.423C420.86 244.179 421.687 231.337 421.687 231.337C421.687 231.337 408.248 240.244 404.112 241.28C399.978 242.316 383.23 236.516 383.23 236.516Z" fill="white" stroke="#263238" stroke-miterlimit="10" stroke-linecap="round" stroke-linejoin="round"/>
<path d="M383.23 236.515L386.979 255.119L404.639 245.379L404.112 241.279C399.978 242.315 383.23 236.515 383.23 236.515Z" fill="#263238" stroke="#263238" stroke-miterlimit="10" stroke-linecap="round" stroke-linejoin="round"/>
<path d="M375.166 199.231C375.166 199.231 372.685 195.502 371.238 200.681C369.791 205.859 376.407 214.559 376.407 214.559L377.234 199.438L375.166 199.231Z" fill="white" stroke="#263238" stroke-miterlimit="10" stroke-linecap="round" stroke-linejoin="round"/>
<path d="M376.613 183.697C376.613 183.697 376.613 221.395 377.234 224.916C377.854 228.437 386.744 246.458 390.879 247.701C395.014 248.943 401.63 248.737 403.698 248.115C405.766 247.494 420.032 236.101 421.686 231.338C423.34 226.574 424.787 219.945 424.787 219.945C424.787 219.945 430.99 216.631 432.437 211.867C433.884 207.103 433.264 202.754 431.817 201.097C430.37 199.439 429.336 199.233 429.336 199.233L427.061 195.918C427.061 195.918 427.681 190.532 427.681 189.29C427.681 188.047 426.441 181.005 418.377 177.691C410.314 174.377 386.95 175.206 381.988 176.241C377.027 177.276 376.613 183.697 376.613 183.697Z" fill="white" stroke="#263238" stroke-miterlimit="10" stroke-linecap="round" stroke-linejoin="round"/>
<path d="M390.674 204.202C390.674 205.918 389.841 207.309 388.814 207.309C387.786 207.309 386.953 205.918 386.953 204.202C386.953 202.486 387.787 201.095 388.814 201.095C389.84 201.095 390.674 202.486 390.674 204.202Z" fill="#263238"/>
<path d="M411.764 206.067C411.764 207.783 410.931 209.174 409.903 209.174C408.876 209.174 408.043 207.783 408.043 206.067C408.043 204.351 408.876 202.96 409.903 202.96C410.93 202.96 411.764 204.351 411.764 206.067Z" fill="#263238"/>
<path d="M383.645 196.539C383.645 196.539 387.78 192.396 392.535 196.332" stroke="#263238" stroke-miterlimit="10" stroke-linecap="round" stroke-linejoin="round"/>
<path d="M405.559 196.953C405.559 196.953 410.314 193.846 414.863 199.024" stroke="#263238" stroke-miterlimit="10" stroke-linecap="round" stroke-linejoin="round"/>
<path d="M395.842 201.095L394.188 223.258L403.492 223.672" stroke="#263238" stroke-miterlimit="10" stroke-linecap="round" stroke-linejoin="round"/>
<path d="M395.223 232.788L399.358 233.203" stroke="#263238" stroke-miterlimit="10" stroke-linecap="round" stroke-linejoin="round"/>
<path d="M373.308 180.591C373.308 180.591 370.828 188.462 371.861 190.534C372.895 192.605 374.756 197.369 374.756 197.369C374.756 197.369 375.376 203.376 375.997 204.619L376.617 183.699C376.617 183.699 375.996 178.312 373.308 180.591Z" fill="#263238" stroke="#263238" stroke-miterlimit="10" stroke-linecap="round" stroke-linejoin="round"/>
<path d="M384.057 162.984C384.057 162.984 365.243 170.647 366.069 175.618C366.896 180.589 373.306 180.589 373.306 180.589C373.306 180.589 368.344 185.975 378.475 187.839C388.606 189.703 407.627 181.003 407.627 181.003C407.627 181.003 404.939 187.01 407.627 187.631C410.315 188.253 416.311 187.424 416.311 187.424C416.311 187.424 416.518 193.43 418.792 194.88C421.067 196.33 424.374 196.537 424.374 196.537C424.374 196.537 423.133 208.136 424.167 208.758C425.201 209.38 425.408 208.344 425.614 207.722C425.821 207.101 427.268 200.266 427.268 200.266L429.336 199.23L429.956 193.845C429.956 193.845 435.333 185.352 433.678 180.382C432.024 175.411 426.649 169.818 426.649 169.818C426.649 169.818 419.205 159.669 405.146 158.219C391.087 156.77 384.057 162.984 384.057 162.984Z" fill="#263238" stroke="#263238" stroke-miterlimit="10" stroke-linecap="round" stroke-linejoin="round"/>
<path d="M332.567 330.144C332.567 330.144 333.22 332.367 332.437 340.866C331.654 349.365 331.524 359.433 335.308 365.056C339.093 370.678 349.795 373.555 353.45 371.985C357.104 370.416 358.149 367.671 358.28 360.871C358.41 354.072 349.144 328.313 349.144 328.313L332.829 326.221L332.567 330.144Z" fill="white" stroke="#263238" stroke-miterlimit="10" stroke-linecap="round" stroke-linejoin="round"/>
<path d="M332.827 315.028C332.827 315.028 328.115 313.006 325.807 310.308C323.5 307.611 320.616 303.372 319.846 303.083C319.077 302.793 315.231 305.491 316.576 308.959C317.923 312.427 323.114 316.665 323.114 316.665C323.114 316.665 325.999 321.193 326.48 322.349C326.961 323.504 328.376 327.836 329.824 329.443C333.79 333.841 336.576 334.967 342.537 335.064C348.499 335.16 349.403 332.798 350.077 330.294C350.75 327.789 351.028 323.438 350.643 323.341C350.259 323.245 334.269 319.94 333.596 318.303C332.923 316.666 332.827 315.028 332.827 315.028Z" fill="white" stroke="#263238" stroke-miterlimit="10" stroke-linecap="round" stroke-linejoin="round"/>
<path d="M294.594 388.109V358.388C294.594 336.462 312.337 318.687 334.222 318.687C356.108 318.687 373.851 336.462 373.851 358.388V441.262C373.851 458.396 387.716 472.286 404.818 472.286C421.921 472.286 435.785 458.396 435.785 441.262V248.396" stroke="#263238" stroke-width="12" stroke-miterlimit="10" stroke-linecap="round" stroke-linejoin="round"/>
<path d="M304.802 381.806H285.117V402.958H304.802V381.806Z" fill="#1BADA2" stroke="#263238" stroke-miterlimit="10" stroke-linecap="round" stroke-linejoin="round"/>
<path d="M304.802 381.806H301.355V402.958H304.802V381.806Z" fill="#1BADA2" stroke="#263238" stroke-miterlimit="10" stroke-linecap="round" stroke-linejoin="round"/>
<path d="M285.75 387.214H304.641" stroke="#263238" stroke-miterlimit="10" stroke-linecap="round" stroke-linejoin="round"/>
<path d="M285.75 391.189H304.641" stroke="#263238" stroke-miterlimit="10" stroke-linecap="round" stroke-linejoin="round"/>
<path d="M285.75 395.165H304.641" stroke="#263238" stroke-miterlimit="10" stroke-linecap="round" stroke-linejoin="round"/>
<path d="M285.75 399.14H304.641" stroke="#263238" stroke-miterlimit="10" stroke-linecap="round" stroke-linejoin="round"/>
<path d="M304.961 406.935H293.531V448.602H304.961V406.935Z" fill="#263238" stroke="#263238" stroke-miterlimit="10" stroke-linecap="round" stroke-linejoin="round"/>
<path d="M303.289 443.415H281.645V468.24H303.289V443.415Z" fill="white" stroke="#263238" stroke-miterlimit="10" stroke-linecap="round" stroke-linejoin="round"/>
<path d="M287.039 452.463H285.203V468.24H287.039V452.463Z" fill="#CCCCCC" stroke="#263238" stroke-miterlimit="10" stroke-linecap="round" stroke-linejoin="round"/>
<path d="M290.57 452.463H288.734V468.24H290.57V452.463Z" fill="#CCCCCC" stroke="#263238" stroke-miterlimit="10" stroke-linecap="round" stroke-linejoin="round"/>
<path d="M294.101 452.463H292.266V468.24H294.101V452.463Z" fill="#CCCCCC" stroke="#263238" stroke-miterlimit="10" stroke-linecap="round" stroke-linejoin="round"/>
<path d="M303.29 443.415H298.215V468.24H303.29V443.415Z" fill="white" stroke="#263238" stroke-miterlimit="10" stroke-linecap="round" stroke-linejoin="round"/>
<path d="M292.766 449.12H296.001L298.963 408.947H303.065V468.191H308.761V401.186H294.407L292.766 449.12Z" fill="#1BADA2" stroke="#263238" stroke-miterlimit="10" stroke-linecap="round" stroke-linejoin="round"/>
<path d="M292.764 449.12H279.64L278 401.186H294.405L292.764 449.12Z" fill="#263238" stroke="#263238" stroke-miterlimit="10" stroke-linecap="round" stroke-linejoin="round"/>
<path d="M347.439 317.308C347.439 317.308 350.965 316.602 351.591 318.486C352.217 320.37 351.67 325.235 351.042 327.276C350.416 329.317 348.692 329.866 347.752 329.788C346.811 329.709 345.559 328.61 345.559 328.61C345.559 328.61 346.811 325.236 346.89 321.939C346.97 318.642 347.439 317.308 347.439 317.308Z" fill="white" stroke="#263238" stroke-miterlimit="10" stroke-linecap="round" stroke-linejoin="round"/>
<path d="M342.113 316.897C342.113 316.897 344.933 316.583 346.421 317.447C347.909 318.31 347.126 322.941 346.813 325.923C346.499 328.905 345.011 330.239 343.444 330.161C341.878 330.082 339.606 328.748 339.606 327.963C339.606 327.179 339.527 326.786 339.527 326.786C339.527 326.786 340.154 326.315 340.624 323.49C341.094 320.665 342.113 316.897 342.113 316.897Z" fill="white" stroke="#263238" stroke-miterlimit="10" stroke-linecap="round" stroke-linejoin="round"/>
<path d="M336.303 317.592C336.303 317.592 338.609 316.542 340.495 317.381C342.381 318.221 341.673 319.546 341.254 324.165C340.835 328.785 339.296 330.365 337.416 329.973C336.168 329.712 334.134 329.207 333.962 327.389C333.788 325.57 336.303 317.592 336.303 317.592Z" fill="white" stroke="#263238" stroke-miterlimit="10" stroke-linecap="round" stroke-linejoin="round"/>
<path d="M334.571 321.693C334.571 321.693 335.314 319.161 334.571 317.226C333.828 315.29 329.963 314.993 329.369 316.481C328.774 317.97 327.883 325.414 328.477 326.307C329.072 327.2 331.625 327.996 332.638 327.2C333.652 326.406 334.571 321.693 334.571 321.693Z" fill="white" stroke="#263238" stroke-miterlimit="10" stroke-linecap="round" stroke-linejoin="round"/>
<path d="M457.805 317.536C457.805 317.536 449.423 309.868 445.025 303.624C440.626 297.38 435.081 295.168 430.14 293.604C425.198 292.039 421.495 294.437 421.662 297.121C421.829 299.805 424.501 301.597 424.501 301.597C424.501 301.597 421.916 314.516 422.943 317.046C423.971 319.577 423.124 321.552 424.602 323.868C426.08 326.185 429.067 327.742 438.232 329.085C447.398 330.428 448.512 330.452 448.512 330.452C448.512 330.452 471.807 369.002 477.149 373.565C482.491 378.127 493.048 378.554 496.815 374.767C500.581 370.979 500.708 356.719 498.742 353.912C496.778 351.104 457.805 317.536 457.805 317.536Z" fill="white" stroke="#263238" stroke-miterlimit="10" stroke-linecap="round" stroke-linejoin="round"/>
</g>
<defs>
<clipPath id="clip0_415_4864">
<rect width="500" height="500" fill="white"/>
</clipPath>
</defs>
</svg>
