<svg width="268" height="342" viewBox="0 0 268 342" fill="none" xmlns="http://www.w3.org/2000/svg">
<path d="M249.743 0H18.2588C8.19174 0 0 8.2023 0 18.2844V322.805C0 332.887 8.19024 341.09 18.2588 341.09H249.743C259.81 341.09 268 332.887 268 322.805V18.2844C268 8.2023 259.81 0 249.743 0ZM255.818 322.805C255.818 326.17 253.094 328.907 249.741 328.907H18.2588C14.9076 328.907 12.1821 326.168 12.1821 322.805V18.2844C12.1821 14.9197 14.9061 12.1821 18.2588 12.1821H249.743C253.094 12.1821 255.818 14.9212 255.818 18.2844V322.805Z" fill="#B3658C"/>
<path d="M100.501 30.4551H85.2737H73.0916H57.8644C42.7502 30.4551 30.4551 42.7502 30.4551 57.8644C30.4551 72.9786 42.7502 85.2737 57.8644 85.2737H73.0916H85.2737H100.501C115.615 85.2737 127.91 72.9786 127.91 57.8644C127.91 42.7502 115.615 30.4551 100.501 30.4551ZM73.0916 73.0916H57.8644C49.4692 73.0916 42.6372 66.2597 42.6372 57.8644C42.6372 49.4692 49.4692 42.6372 57.8644 42.6372H73.0916V73.0916ZM100.501 73.0916H85.2737V42.6372H100.501C108.896 42.6372 115.728 49.4692 115.728 57.8644C115.728 66.2597 108.896 73.0916 100.501 73.0916Z" fill="#B3658C"/>
<path d="M210.136 30.4551H194.909H182.726H167.499C152.385 30.4551 140.09 42.7502 140.09 57.8644C140.09 72.9786 152.385 85.2737 167.499 85.2737H182.726H194.909H210.136C225.25 85.2737 237.545 72.9786 237.545 57.8644C237.545 42.7502 225.25 30.4551 210.136 30.4551ZM182.728 73.0916H167.501C159.105 73.0916 152.273 66.2597 152.273 57.8644C152.273 49.4692 159.105 42.6372 167.501 42.6372H182.728V73.0916ZM210.136 73.0916H194.909V42.6372H210.136C218.531 42.6372 225.363 49.4692 225.363 57.8644C225.363 66.2597 218.533 73.0916 210.136 73.0916Z" fill="#B3658C"/>
<path d="M100.501 97.4531H85.2737H73.0916H57.8644C42.7502 97.4531 30.4551 109.748 30.4551 124.862C30.4551 139.977 42.7502 152.272 57.8644 152.272H73.0916H85.2737H100.501C115.615 152.272 127.91 139.977 127.91 124.862C127.91 109.748 115.615 97.4531 100.501 97.4531ZM73.0916 140.09H57.8644C49.4692 140.09 42.6372 133.258 42.6372 124.862C42.6372 116.467 49.4692 109.635 57.8644 109.635H73.0916V140.09ZM100.501 140.09H85.2737V109.635H100.501C108.896 109.635 115.728 116.467 115.728 124.862C115.728 133.258 108.896 140.09 100.501 140.09Z" fill="#B3658C"/>
<path d="M210.136 97.4531H194.909H182.726H167.499C152.385 97.4531 140.09 109.748 140.09 124.862C140.09 139.977 152.385 152.272 167.499 152.272H182.726H194.909H210.136C225.25 152.272 237.545 139.977 237.545 124.862C237.545 109.748 225.25 97.4531 210.136 97.4531ZM182.728 140.09H167.501C159.105 140.09 152.273 133.258 152.273 124.862C152.273 116.467 159.105 109.635 167.501 109.635H182.728V140.09ZM210.136 140.09H194.909V109.635H210.136C218.531 109.635 225.363 116.467 225.363 124.862C225.363 133.258 218.533 140.09 210.136 140.09Z" fill="#B3658C"/>
<path d="M100.501 164.455H85.2737H73.0916H57.8644C42.7502 164.455 30.4551 176.75 30.4551 191.864C30.4551 206.979 42.7502 219.274 57.8644 219.274H73.0916H85.2737H100.501C115.615 219.274 127.91 206.979 127.91 191.864C127.91 176.75 115.615 164.455 100.501 164.455ZM73.0916 207.092H57.8644C49.4692 207.092 42.6372 200.26 42.6372 191.864C42.6372 183.469 49.4692 176.637 57.8644 176.637H73.0916V207.092ZM100.501 207.092H85.2737V176.637H100.501C108.896 176.637 115.728 183.469 115.728 191.864C115.728 200.26 108.896 207.092 100.501 207.092Z" fill="#B3658C"/>
<path d="M210.136 164.455H194.909H182.726H167.499C152.385 164.455 140.09 176.75 140.09 191.864C140.09 206.979 152.385 219.274 167.499 219.274H182.726H194.909H210.136C225.25 219.274 237.545 206.979 237.545 191.864C237.545 176.75 225.25 164.455 210.136 164.455ZM182.728 207.092H167.501C159.105 207.092 152.273 200.26 152.273 191.864C152.273 183.469 159.105 176.637 167.501 176.637H182.728V207.092ZM210.136 207.092H194.909V176.637H210.136C218.531 176.637 225.363 183.469 225.363 191.864C225.363 200.26 218.533 207.092 210.136 207.092Z" fill="#B3658C"/>
<path d="M100.501 231.453H85.2737H73.0916H57.8644C42.7502 231.453 30.4551 243.748 30.4551 258.862C30.4551 273.977 42.7502 286.272 57.8644 286.272H73.0916H85.2737H100.501C115.615 286.272 127.91 273.977 127.91 258.862C127.91 243.748 115.615 231.453 100.501 231.453ZM73.0916 274.09H57.8644C49.4692 274.09 42.6372 267.258 42.6372 258.862C42.6372 250.467 49.4692 243.635 57.8644 243.635H73.0916V274.09ZM100.501 274.09H85.2737V243.635H100.501C108.896 243.635 115.728 250.467 115.728 258.862C115.728 267.258 108.896 274.09 100.501 274.09Z" fill="#B3658C"/>
<path d="M197.297 242.847L183.615 249.52L183.614 249.517L158.98 261.535C152.407 264.739 147.473 270.318 145.085 277.239C142.697 284.169 143.15 291.607 146.358 298.185C151.105 307.913 160.881 313.577 171.04 313.577C175.066 313.577 179.156 312.688 183.011 310.808L197.144 303.912L221.333 292.119C234.913 285.492 240.575 269.053 233.952 255.466C227.324 241.886 210.888 236.236 197.297 242.847ZM177.671 299.857C170.12 303.545 160.989 300.392 157.308 292.844C155.523 289.192 155.273 285.061 156.604 281.209C157.931 277.364 160.67 274.266 164.319 272.487L178.006 265.81L180.756 271.447L191.355 293.182L177.671 299.857ZM215.989 281.169L202.304 287.845L188.955 260.471L202.639 253.799C210.19 250.12 219.321 253.266 222.999 260.805C226.677 268.353 223.534 277.489 215.989 281.169Z" fill="#B3658C"/>
</svg>
