<svg width="32" height="31" viewBox="0 0 32 31" fill="none" xmlns="http://www.w3.org/2000/svg">
<path d="M16 9.5C18.4853 9.5 20.5 7.48528 20.5 5C20.5 2.51472 18.4853 0.5 16 0.5C13.5147 0.5 11.5 2.51472 11.5 5C11.5 7.48528 13.5147 9.5 16 9.5Z" stroke="#B3658C" stroke-linejoin="round"/>
<path d="M18.5 4H17V2.5H15V4H13.5V6H15V7.5H17V6H18.5V4Z" stroke="#B3658C" stroke-linejoin="round"/>
<path d="M31 28.5002H1V30.5002H31V28.5002Z" stroke="#B3658C" stroke-linejoin="round"/>
<path d="M20.241 3.5H31V6.5H20" stroke="#B3658C" stroke-linejoin="round"/>
<path d="M11.7575 6.5H1V3.5H11.759" stroke="#B3658C" stroke-linejoin="round"/>
<path d="M2 6.5V28.5" stroke="#B3658C" stroke-linejoin="round"/>
<path d="M30 6.5V28.5" stroke="#B3658C" stroke-linejoin="round"/>
<path d="M19 28.5002V22.5002H27V28.5002" stroke="#B3658C" stroke-linejoin="round"/>
<path d="M23 22.5002V28.5002" stroke="#B3658C" stroke-linejoin="round"/>
<path d="M5 28.5002V22.5002H13V28.5002" stroke="#B3658C" stroke-linejoin="round"/>
<path d="M9 22.5002V28.5002" stroke="#B3658C" stroke-linejoin="round"/>
<path d="M9 8.5H5V13.5H9V8.5Z" stroke="#B3658C" stroke-linejoin="round"/>
<path d="M5 11H9" stroke="#B3658C" stroke-linejoin="round"/>
<path d="M15 9.3875V13.5H11V8.5H13.1725" stroke="#B3658C" stroke-linejoin="round"/>
<path d="M11 11H15" stroke="#B3658C" stroke-linejoin="round"/>
<path d="M18.8285 8.5H21V13.5H17V9.3875" stroke="#B3658C" stroke-linejoin="round"/>
<path d="M17 11H21" stroke="#B3658C" stroke-linejoin="round"/>
<path d="M27 8.5H23V13.5H27V8.5Z" stroke="#B3658C" stroke-linejoin="round"/>
<path d="M23 11H27" stroke="#B3658C" stroke-linejoin="round"/>
<path d="M9 15.5H5V20.5H9V15.5Z" stroke="#B3658C" stroke-linejoin="round"/>
<path d="M5 18.0002H9" stroke="#B3658C" stroke-linejoin="round"/>
<path d="M15 15.5H11V20.5H15V15.5Z" stroke="#B3658C" stroke-linejoin="round"/>
<path d="M11 18.0002H15" stroke="#B3658C" stroke-linejoin="round"/>
<path d="M21 15.5H17V20.5H21V15.5Z" stroke="#B3658C" stroke-linejoin="round"/>
<path d="M17 18.0002H21" stroke="#B3658C" stroke-linejoin="round"/>
<path d="M27 15.5H23V20.5H27V15.5Z" stroke="#B3658C" stroke-linejoin="round"/>
<path d="M23 18.0002H27" stroke="#B3658C" stroke-linejoin="round"/>
<path d="M30 26.4998H27" stroke="#B3658C" stroke-linejoin="round"/>
<path d="M5 26.4998H2" stroke="#B3658C" stroke-linejoin="round"/>
<path d="M13 26.4998H19" stroke="#B3658C" stroke-linejoin="round"/>
</svg>
