<svg width="322" height="324" viewBox="0 0 322 324" fill="none" xmlns="http://www.w3.org/2000/svg">
<path d="M162.3 204.979H159.102C154.112 204.984 149.327 206.969 145.798 210.498C142.269 214.027 140.284 218.812 140.278 223.803V275.034C140.285 279.429 141.826 283.684 144.637 287.063C147.447 290.442 151.35 292.733 155.67 293.539V323.377H166.196V293.45C170.416 292.552 174.199 290.233 176.916 286.882C179.633 283.53 181.118 279.348 181.124 275.034V223.802C181.118 218.812 179.133 214.027 175.604 210.498C172.075 206.969 167.29 204.984 162.3 204.979Z" fill="#B3658C"/>
<path d="M321.865 62.2429C321.857 55.1437 319.033 48.3375 314.013 43.3176C308.993 38.2977 302.187 35.474 295.088 35.466H248.675C248.622 35.2523 248.577 35.0376 248.519 34.8244C247.446 30.8756 245.499 27.2185 242.822 24.1233C240.146 21.0281 236.808 18.5741 233.055 16.9425L224.705 13.2913C204.587 4.52462 182.877 0 160.932 0C138.987 0 117.277 4.52462 97.1591 13.2913L88.8098 16.9425C85.0572 18.5742 81.7192 21.0283 79.0426 24.1234C76.366 27.2186 74.4192 30.8757 73.346 34.8244C73.2875 35.0378 73.2423 35.2525 73.1891 35.4664H26.7765C20.9801 35.4622 15.3391 37.3404 10.7021 40.8184C6.06513 44.2964 2.68294 49.1861 1.06436 54.752C-0.554216 60.3178 -0.321647 66.2587 1.72708 71.681C3.77581 77.1032 7.5299 81.7136 12.4246 84.8184C13.096 90.4998 15.8269 95.7379 20.1005 99.5412C24.374 103.345 29.8936 105.449 35.6145 105.457H51.7425C54.8129 105.463 57.8542 104.863 60.6925 103.692C63.5308 102.521 66.1103 100.802 68.2834 98.6325C70.4565 96.4634 72.1805 93.8871 73.3568 91.051C74.5331 88.2149 75.1386 85.1747 75.1386 82.1043C75.1386 79.034 74.5331 75.9938 73.3568 73.1576C72.1805 70.3215 70.4565 67.7453 68.2834 65.5762C66.1103 63.4072 63.5308 61.6879 60.6925 60.5169C57.8542 59.3459 54.8129 58.7461 51.7425 58.7518H35.6145C31.1029 58.7569 26.6891 60.0672 22.9055 62.5246C19.1219 64.9821 16.1301 68.4817 14.291 72.6015C12.3139 70.2317 11.054 67.3471 10.6591 64.2863C10.2643 61.2255 10.7509 58.1155 12.0619 55.3216C13.3728 52.5277 15.4537 50.1659 18.0601 48.5133C20.6666 46.8608 23.6904 45.9862 26.7766 45.9922H72.6495C73.2785 50.3597 74.9545 54.5103 77.5345 58.09L79.2934 60.5349C97.5327 85.886 110.137 119.884 113.875 153.813L114.974 163.793C115.705 170.492 118.885 176.685 123.904 181.181C128.923 185.677 135.427 188.16 142.165 188.153H179.699C186.438 188.16 192.942 185.677 197.961 181.181C202.98 176.684 206.16 170.492 206.891 163.793L207.99 153.811C211.728 119.882 224.332 85.8848 242.572 60.5348L244.33 58.0907C246.91 54.5109 248.586 50.3601 249.215 45.9925H295.088C298.174 45.9865 301.198 46.861 303.805 48.5136C306.411 50.1661 308.492 52.528 309.803 55.3219C311.114 58.1158 311.6 61.2257 311.206 64.2865C310.811 67.3473 309.551 70.232 307.574 72.6017C305.735 68.482 302.743 64.9823 298.959 62.5249C295.176 60.0674 290.762 58.7571 286.25 58.752H270.122C267.052 58.7463 264.01 59.3461 261.172 60.5171C258.334 61.6882 255.754 63.4074 253.581 65.5764C251.408 67.7455 249.684 70.3218 248.508 73.1579C247.332 75.994 246.726 79.0342 246.726 82.1046C246.726 85.1749 247.332 88.2152 248.508 91.0513C249.684 93.8874 251.408 96.4637 253.581 98.6327C255.754 100.802 258.334 102.521 261.172 103.692C264.01 104.863 267.052 105.463 270.122 105.457H286.25C291.971 105.45 297.491 103.345 301.764 99.5415C306.038 95.7381 308.769 90.5 309.44 84.8187C313.244 82.4057 316.377 79.0714 318.549 75.125C320.721 71.1785 321.862 66.7476 321.865 62.2429ZM35.6145 69.278H51.7425C53.4296 69.2737 55.101 69.6023 56.6609 70.245C58.2207 70.8877 59.6385 71.8318 60.833 73.0233C62.0274 74.2148 62.9751 75.6302 63.6217 77.1884C64.2683 78.7467 64.6012 80.4172 64.6012 82.1043C64.6012 83.7915 64.2683 85.462 63.6217 87.0203C62.9751 88.5785 62.0274 89.9939 60.833 91.1854C59.6385 92.3769 58.2207 93.321 56.6609 93.9636C55.101 94.6063 53.4296 94.935 51.7425 94.9307H35.6145C32.2183 94.9222 28.9641 93.5671 26.5657 91.1626C24.1672 88.7581 22.8203 85.5005 22.8203 82.1043C22.8203 78.7081 24.1672 75.4506 26.5657 73.0461C28.9641 70.6416 32.2183 69.2865 35.6145 69.278ZM235.786 51.9422L234.027 54.3863C214.761 81.1637 201.458 116.982 197.527 152.658L196.428 162.64C195.978 166.761 194.022 170.571 190.934 173.337C187.846 176.104 183.845 177.631 179.699 177.626H142.165C138.02 177.631 134.018 176.104 130.931 173.337C127.843 170.571 125.886 166.761 125.437 162.64L124.337 152.66C120.407 116.984 107.104 81.1658 87.8378 54.3878L86.0788 51.9425C84.6067 49.8965 83.6109 47.5471 83.1644 45.0664C82.7178 42.5857 82.8318 40.0365 83.4979 37.6056C84.1641 35.1746 85.3655 32.9235 87.0143 31.0169C88.6631 29.1104 90.7174 27.5968 93.0269 26.587L101.376 22.9359C120.164 14.7487 140.438 10.5231 160.932 10.5231C181.426 10.5231 201.7 14.7487 220.488 22.9359L228.838 26.587C231.147 27.5968 233.201 29.1104 234.85 31.017C236.499 32.9235 237.7 35.1747 238.367 37.6056C239.033 40.0366 239.147 42.5858 238.7 45.0664C238.253 47.5471 237.258 49.8962 235.786 51.9422ZM286.25 94.9307H270.122C268.435 94.935 266.764 94.6063 265.204 93.9636C263.644 93.321 262.226 92.3769 261.032 91.1854C259.837 89.9939 258.89 88.5785 258.243 87.0203C257.596 85.462 257.264 83.7915 257.264 82.1043C257.264 80.4172 257.596 78.7467 258.243 77.1884C258.89 75.6302 259.837 74.2148 261.032 73.0233C262.226 71.8318 263.644 70.8877 265.204 70.245C266.764 69.6023 268.435 69.2737 270.122 69.278H286.25C289.646 69.2865 292.901 70.6416 295.299 73.0461C297.697 75.4506 299.044 78.7081 299.044 82.1043C299.044 85.5005 297.697 88.7581 295.299 91.1626C292.901 93.5671 289.646 94.9222 286.25 94.9307Z" fill="#B3658C"/>
<path d="M206.045 42.3751C177.015 31.1614 144.849 31.1614 115.819 42.3751C115.093 42.6561 114.439 43.0946 113.903 43.6591C113.367 44.2235 112.962 44.8998 112.719 45.6393C112.476 46.3787 112.4 47.1629 112.497 47.9353C112.593 48.7076 112.86 49.449 113.277 50.106C131.408 78.6373 143.6 113.926 147.609 149.471C147.754 150.757 148.367 151.944 149.332 152.806C150.296 153.668 151.545 154.145 152.838 154.145H169.025C170.319 154.145 171.567 153.668 172.532 152.806C173.496 151.944 174.11 150.757 174.255 149.471C178.264 113.924 190.457 78.6354 208.586 50.106C209.004 49.449 209.27 48.7076 209.367 47.9353C209.463 47.1629 209.387 46.3787 209.144 45.6393C208.901 44.8998 208.497 44.2235 207.961 43.6591C207.425 43.0946 206.771 42.6561 206.045 42.3751Z" fill="#B3658C"/>
</svg>
