<svg width="30" height="30" viewBox="0 0 30 30" fill="none" xmlns="http://www.w3.org/2000/svg">
<path d="M15.8198 27.9972H13.1802C12.2949 27.9957 11.4464 27.6434 10.8204 27.0175C10.1945 26.3915 9.84215 25.5429 9.84067 24.6577V20.1173L5.34089 20.1579C4.45541 20.1568 3.6065 19.8047 2.98025 19.1787C2.35399 18.5527 2.00148 17.7039 2 16.8184V14.1788C2.00111 13.293 2.35345 12.4439 2.97975 11.8176C3.60605 11.1913 4.45517 10.839 5.34089 10.8379H9.88126L9.84067 6.33949C9.84215 5.45426 10.1945 4.60571 10.8204 3.97975C11.4464 3.35379 12.2949 3.00148 13.1802 3H15.8198C16.7051 3.00148 17.5536 3.35379 18.1796 3.97975C18.8055 4.60571 19.1579 5.45426 19.1593 6.33949V10.8799L23.6591 10.8379C24.5448 10.839 25.394 11.1913 26.0202 11.8176C26.6465 12.4439 26.9989 13.293 27 14.1788V16.8184C26.9985 17.7039 26.646 18.5527 26.0198 19.1787C25.3935 19.8047 24.5446 20.1568 23.6591 20.1579H19.1187L19.1579 24.6577C19.1565 25.5427 18.8043 26.391 18.1787 27.017C17.553 27.6429 16.7048 27.9954 15.8198 27.9972ZM5.34089 12.2375C4.82637 12.2386 4.33325 12.4435 3.96943 12.8073C3.60561 13.1711 3.40073 13.6642 3.39962 14.1788V16.8184C3.4011 17.3327 3.60614 17.8255 3.96992 18.189C4.3337 18.5525 4.82662 18.7572 5.34089 18.7583H9.88126C10.0599 18.7579 10.2369 18.7928 10.402 18.861C10.5671 18.9291 10.7172 19.0292 10.8436 19.1555C10.9699 19.2817 11.0702 19.4317 11.1385 19.5967C11.2068 19.7618 11.2419 19.9387 11.2417 20.1173V24.6577C11.2432 25.1717 11.448 25.6643 11.8115 26.0278C12.175 26.3913 12.6675 26.5961 13.1816 26.5976H15.8212C16.3353 26.5961 16.8278 26.3913 17.1913 26.0278C17.5548 25.6643 17.7596 25.1717 17.7611 24.6577V20.1173C17.7609 19.9387 17.796 19.7618 17.8643 19.5967C17.9326 19.4317 18.0329 19.2817 18.1592 19.1555C18.2856 19.0292 18.4357 18.9291 18.6008 18.861C18.7659 18.7928 18.9429 18.7579 19.1215 18.7583H23.6605C24.1748 18.7572 24.6677 18.5525 25.0315 18.189C25.3953 17.8255 25.6003 17.3327 25.6018 16.8184V14.1788C25.6007 13.664 25.3956 13.1707 25.0315 12.8068C24.6674 12.4429 24.1739 12.2382 23.6591 12.2375H19.1187C18.9402 12.2379 18.7634 12.203 18.5983 12.1349C18.4333 12.0669 18.2833 11.9669 18.1569 11.8408C18.0306 11.7147 17.9303 11.5649 17.8619 11.4C17.7935 11.2351 17.7583 11.0584 17.7583 10.8799V6.33949C17.7568 5.8257 17.5522 5.33336 17.189 4.96992C16.8258 4.60648 16.3336 4.40147 15.8198 4.39962H13.1802C12.6661 4.4011 12.1736 4.60595 11.8101 4.96943C11.4466 5.3329 11.2418 5.82546 11.2403 6.33949V10.8799C11.2403 11.0584 11.2051 11.2351 11.1367 11.4C11.0683 11.5649 10.968 11.7147 10.8417 11.8408C10.7153 11.9669 10.5653 12.0669 10.4003 12.1349C10.2352 12.203 10.0584 12.2379 9.87986 12.2375H5.34089Z" fill="white"/>
</svg>
