<svg width="28" height="28" viewBox="0 0 28 28" fill="none" xmlns="http://www.w3.org/2000/svg">
<path d="M14.8247 2.67508C14.606 2.45636 14.3093 2.3335 13.9999 2.3335C13.6906 2.3335 13.3939 2.45636 13.1751 2.67508L2.67508 13.1751C2.51197 13.3382 2.4009 13.5461 2.3559 13.7724C2.3109 13.9987 2.33401 14.2332 2.42229 14.4463C2.51057 14.6595 2.66007 14.8417 2.85188 14.9699C3.04369 15.0981 3.26921 15.1665 3.49991 15.1666H4.66658V23.3332C4.66658 24.6201 5.71308 25.6666 6.99991 25.6666H20.9999C22.2867 25.6666 23.3332 24.6201 23.3332 23.3332V15.1666H24.4999C24.7309 15.1671 24.9568 15.099 25.1489 14.9709C25.3411 14.8428 25.4909 14.6604 25.5793 14.4471C25.6677 14.2337 25.6906 13.9989 25.6453 13.7724C25.6 13.5459 25.4884 13.338 25.3247 13.1751L14.8247 2.67508ZM21.0011 23.3332H6.99991V12.1496L13.9999 5.14958L20.9999 12.1496V17.4999L21.0011 23.3332Z" fill="#B3658C"/>
<path d="M15.1666 11.6665H12.8333V15.1665H9.33325V17.4998H12.8333V20.9998H15.1666V17.4998H18.6666V15.1665H15.1666V11.6665Z" fill="#B3658C"/>
</svg>
