<svg width="38" height="38" viewBox="0 0 38 38" fill="none" xmlns="http://www.w3.org/2000/svg">
<path d="M31.6667 3.16667H30.0833V1.58333C30.0833 1.16341 29.9165 0.76068 29.6196 0.463748C29.3227 0.166815 28.9199 0 28.5 0C28.0801 0 27.6773 0.166815 27.3804 0.463748C27.0835 0.76068 26.9167 1.16341 26.9167 1.58333V3.16667H11.0833V1.58333C11.0833 1.16341 10.9165 0.76068 10.6196 0.463748C10.3227 0.166815 9.91993 0 9.5 0C9.08007 0 8.67735 0.166815 8.38041 0.463748C8.08348 0.76068 7.91667 1.16341 7.91667 1.58333V3.16667H6.33333C4.65363 3.16667 3.04272 3.83393 1.85499 5.02166C0.66726 6.20939 0 7.8203 0 9.5L0 31.6667C0 33.3464 0.66726 34.9573 1.85499 36.145C3.04272 37.3327 4.65363 38 6.33333 38H31.6667C33.3464 38 34.9573 37.3327 36.145 36.145C37.3327 34.9573 38 33.3464 38 31.6667V9.5C38 7.8203 37.3327 6.20939 36.145 5.02166C34.9573 3.83393 33.3464 3.16667 31.6667 3.16667ZM34.8333 31.6667C34.8333 32.5065 34.4997 33.312 33.9058 33.9058C33.312 34.4997 32.5065 34.8333 31.6667 34.8333H6.33333C5.49348 34.8333 4.68803 34.4997 4.09416 33.9058C3.5003 33.312 3.16667 32.5065 3.16667 31.6667V9.5C3.16667 8.66015 3.5003 7.85469 4.09416 7.26083C4.68803 6.66696 5.49348 6.33333 6.33333 6.33333H7.91667V7.91667C7.91667 8.33659 8.08348 8.73932 8.38041 9.03625C8.67735 9.33319 9.08007 9.5 9.5 9.5C9.91993 9.5 10.3227 9.33319 10.6196 9.03625C10.9165 8.73932 11.0833 8.33659 11.0833 7.91667V6.33333H26.9167V7.91667C26.9167 8.33659 27.0835 8.73932 27.3804 9.03625C27.6773 9.33319 28.0801 9.5 28.5 9.5C28.9199 9.5 29.3227 9.33319 29.6196 9.03625C29.9165 8.73932 30.0833 8.33659 30.0833 7.91667V6.33333H31.6667C32.5065 6.33333 33.312 6.66696 33.9058 7.26083C34.4997 7.85469 34.8333 8.66015 34.8333 9.5V31.6667Z" fill="#6D6D6D"/>
<path d="M30.083 11.084H7.91634C7.49642 11.084 7.09369 11.2508 6.79676 11.5477C6.49982 11.8447 6.33301 12.2474 6.33301 12.6673C6.33301 13.0872 6.49982 13.49 6.79676 13.7869C7.09369 14.0838 7.49642 14.2507 7.91634 14.2507H30.083C30.5029 14.2507 30.9057 14.0838 31.2026 13.7869C31.4995 13.49 31.6663 13.0872 31.6663 12.6673C31.6663 12.2474 31.4995 11.8447 31.2026 11.5477C30.9057 11.2508 30.5029 11.084 30.083 11.084Z" fill="#6D6D6D"/>
<path d="M11.083 19H7.91634C7.49642 19 7.09369 19.1668 6.79676 19.4637C6.49982 19.7607 6.33301 20.1634 6.33301 20.5833C6.33301 21.0033 6.49982 21.406 6.79676 21.7029C7.09369 21.9999 7.49642 22.1667 7.91634 22.1667H11.083C11.5029 22.1667 11.9057 21.9999 12.2026 21.7029C12.4995 21.406 12.6663 21.0033 12.6663 20.5833C12.6663 20.1634 12.4995 19.7607 12.2026 19.4637C11.9057 19.1668 11.5029 19 11.083 19Z" fill="#6D6D6D"/>
<path d="M11.083 26.916H7.91634C7.49642 26.916 7.09369 27.0828 6.79676 27.3798C6.49982 27.6767 6.33301 28.0794 6.33301 28.4993C6.33301 28.9193 6.49982 29.322 6.79676 29.6189C7.09369 29.9159 7.49642 30.0827 7.91634 30.0827H11.083C11.5029 30.0827 11.9057 29.9159 12.2026 29.6189C12.4995 29.322 12.6663 28.9193 12.6663 28.4993C12.6663 28.0794 12.4995 27.6767 12.2026 27.3798C11.9057 27.0828 11.5029 26.916 11.083 26.916Z" fill="#6D6D6D"/>
<path d="M20.583 19H17.4163C16.9964 19 16.5937 19.1668 16.2968 19.4637C15.9998 19.7607 15.833 20.1634 15.833 20.5833C15.833 21.0033 15.9998 21.406 16.2968 21.7029C16.5937 21.9999 16.9964 22.1667 17.4163 22.1667H20.583C21.0029 22.1667 21.4057 21.9999 21.7026 21.7029C21.9995 21.406 22.1663 21.0033 22.1663 20.5833C22.1663 20.1634 21.9995 19.7607 21.7026 19.4637C21.4057 19.1668 21.0029 19 20.583 19Z" fill="#6D6D6D"/>
<path d="M20.583 26.916H17.4163C16.9964 26.916 16.5937 27.0828 16.2968 27.3798C15.9998 27.6767 15.833 28.0794 15.833 28.4993C15.833 28.9193 15.9998 29.322 16.2968 29.6189C16.5937 29.9159 16.9964 30.0827 17.4163 30.0827H20.583C21.0029 30.0827 21.4057 29.9159 21.7026 29.6189C21.9995 29.322 22.1663 28.9193 22.1663 28.4993C22.1663 28.0794 21.9995 27.6767 21.7026 27.3798C21.4057 27.0828 21.0029 26.916 20.583 26.916Z" fill="#6D6D6D"/>
<path d="M30.083 19H26.9163C26.4964 19 26.0937 19.1668 25.7968 19.4637C25.4998 19.7607 25.333 20.1634 25.333 20.5833C25.333 21.0033 25.4998 21.406 25.7968 21.7029C26.0937 21.9999 26.4964 22.1667 26.9163 22.1667H30.083C30.5029 22.1667 30.9057 21.9999 31.2026 21.7029C31.4995 21.406 31.6663 21.0033 31.6663 20.5833C31.6663 20.1634 31.4995 19.7607 31.2026 19.4637C30.9057 19.1668 30.5029 19 30.083 19Z" fill="#6D6D6D"/>
<path d="M30.083 26.916H26.9163C26.4964 26.916 26.0937 27.0828 25.7968 27.3798C25.4998 27.6767 25.333 28.0794 25.333 28.4993C25.333 28.9193 25.4998 29.322 25.7968 29.6189C26.0937 29.9159 26.4964 30.0827 26.9163 30.0827H30.083C30.5029 30.0827 30.9057 29.9159 31.2026 29.6189C31.4995 29.322 31.6663 28.9193 31.6663 28.4993C31.6663 28.0794 31.4995 27.6767 31.2026 27.3798C30.9057 27.0828 30.5029 26.916 30.083 26.916Z" fill="#6D6D6D"/>
</svg>
