<svg width="29" height="40" viewBox="0 0 29 40" fill="none" xmlns="http://www.w3.org/2000/svg">
<path d="M7.5249 8.85041C7.10963 8.85041 6.71279 8.60861 6.53388 8.20635C5.61552 6.14191 4.76546 3.72292 6.30076 1.16081C6.48075 0.861548 6.79302 0.666387 7.13998 0.638196C7.8686 0.577477 8.5983 0.509162 9.32801 0.439769C10.9967 0.281466 12.7217 0.121001 14.437 0.0526924C16.1903 -0.0177848 17.9489 -0.00260844 19.8128 0.0136555C20.6628 0.0212454 21.54 0.0299188 22.4573 0.0299188C22.7554 0.0299188 23.0428 0.152444 23.2477 0.370381C23.4526 0.588318 23.5589 0.882155 23.5404 1.18141L23.1219 7.83336C23.0861 8.43079 22.582 8.88619 21.9715 8.84932C21.3741 8.81137 20.9198 8.29743 20.9556 7.69783L21.3004 2.19303C20.7864 2.19086 20.2833 2.18544 19.79 2.1811C17.9554 2.16484 16.2228 2.14966 14.5205 2.21797C12.8627 2.28519 11.1669 2.44349 9.52752 2.59854C8.98973 2.65059 8.45194 2.70046 7.91415 2.74817C7.32106 4.10242 7.67452 5.44257 8.51265 7.32593C8.75661 7.87349 8.51048 8.51429 7.96293 8.75716C7.82198 8.82005 7.67235 8.85041 7.5249 8.85041Z" fill="#6D6D6D"/>
<path d="M24.4604 29.718C24.2956 29.718 24.1265 29.6801 23.9693 29.5998C23.4358 29.3277 23.2233 28.675 23.4954 28.1415C25.665 23.8836 26.1367 19.3774 24.9353 14.3659C24.2924 11.6867 22.4654 9.47481 19.9185 8.29947C17.352 7.11111 14.4451 7.15991 11.9492 8.43066C11.4168 8.7039 10.763 8.4903 10.4909 7.95576C10.2198 7.4223 10.4323 6.76957 10.9658 6.49742C14.0602 4.92633 17.6524 4.86452 20.8282 6.33045C23.9801 7.78662 26.2473 10.532 27.0431 13.8607C28.3703 19.3947 27.84 24.3878 25.4265 29.126C25.2357 29.5022 24.8551 29.718 24.4604 29.718Z" fill="#6D6D6D"/>
<path d="M4.8024 29.113C4.33617 29.113 3.90572 28.8105 3.76477 28.3399L3.47853 27.4118C3.25734 26.7016 3.03615 25.9903 2.85182 25.2714C1.64938 20.5885 1.54638 16.4531 2.53522 12.6343C3.57394 8.62905 6.87225 6.16452 10.9068 6.38029C11.2678 6.39981 11.5964 6.59606 11.7818 6.90616L13.9546 10.5406C14.9662 10.3238 16.2348 10.4116 17.331 10.816C18.7112 11.3267 19.6914 12.2841 20.0893 13.5137C20.7768 15.6421 21.6799 19.5899 19.995 22.1249C19.1634 23.375 17.8525 24.0852 16.1014 24.2327C10.8753 24.6686 7.92506 22.6139 7.08151 17.9299C6.57082 15.0837 8.22648 10.8561 9.22291 8.65182C6.98935 9.09529 5.2643 10.7531 4.63651 13.1743C3.72899 16.6765 3.82874 20.3478 4.95312 24.7282C5.12877 25.4124 5.33911 26.0857 5.54946 26.7612L5.84329 27.7121C6.01569 28.2857 5.68933 28.8896 5.11684 29.062C5.01167 29.0978 4.90649 29.113 4.8024 29.113ZM11.0455 9.9009C10.0686 12.1486 8.85969 15.5618 9.21641 17.5482C9.68589 20.1537 10.8222 22.5141 15.9182 22.0739C16.9927 21.9828 17.7354 21.6077 18.1897 20.9246C19.4496 19.0304 18.3849 15.2843 18.0282 14.1805C17.7853 13.4323 17.1076 13.0442 16.5828 12.849C15.4964 12.4489 14.3569 12.5931 14.05 12.7818C13.8017 12.9336 13.5057 12.9813 13.2227 12.9119C12.9408 12.8436 12.7001 12.6636 12.5494 12.4153L11.0455 9.9009Z" fill="#6D6D6D"/>
<path d="M1.47634 39.9995C0.904934 39.9995 0.424607 39.5506 0.394248 38.9738L0.00174737 31.4826C-0.0188535 31.1215 0.143788 30.7756 0.432201 30.5577C4.02868 27.8546 7.12748 26.5557 10.4822 26.341C11.0677 26.2955 11.5935 26.7563 11.6336 27.3548C11.6716 27.9533 11.2184 28.4672 10.6199 28.5074C7.85176 28.683 5.23654 29.7499 2.19737 31.9521L2.56059 38.861C2.59204 39.4595 2.13231 39.9691 1.53597 40.0006C1.51429 39.9995 1.49477 39.9995 1.47634 39.9995Z" fill="#6D6D6D"/>
<path d="M27.1826 38.7903C27.1695 38.7903 27.1565 38.7903 27.1424 38.7903C26.5439 38.7675 26.0777 38.2666 26.0983 37.6681C26.3271 31.4238 26.3704 30.2333 20.3864 28.312L16.0125 36.8115C15.8239 37.1802 15.478 37.4035 15.0248 37.3992C14.6106 37.3894 14.2376 37.1455 14.0641 36.7692L9.62627 27.1605C9.48423 26.8526 9.49399 26.4947 9.65338 26.1944L11.6408 22.4765C11.9249 21.9495 12.5787 21.75 13.1089 22.033C13.6358 22.3149 13.8354 22.9709 13.5534 23.5011L11.8197 26.742L15.0985 33.8439L18.8717 26.5088C19.1135 26.0404 19.6524 25.8149 20.1533 25.9678C28.2397 28.4367 28.5249 30.6052 28.2625 37.7472C28.244 38.3306 27.7637 38.7903 27.1826 38.7903Z" fill="#6D6D6D"/>
<path d="M17.8064 38.7909C17.2328 38.7909 16.7525 38.3409 16.7243 37.7619C16.694 37.1623 17.1537 36.6549 17.7522 36.6245L23.8002 36.322C24.3998 36.2884 24.9072 36.7514 24.9376 37.351C24.9668 37.9495 24.5071 38.458 23.9086 38.4873L17.8606 38.7887C17.8433 38.7898 17.8248 38.7909 17.8064 38.7909Z" fill="#6D6D6D"/>
<path d="M19.6246 28.5062C19.2549 28.5062 18.8949 28.3175 18.6921 27.9771L16.0498 23.5424C15.743 23.0274 15.9121 22.3627 16.426 22.0559C16.9411 21.748 17.6057 21.9182 17.9125 22.4321L20.556 26.8679C20.8617 27.3829 20.6937 28.0475 20.1786 28.3533C20.0041 28.4574 19.8132 28.5062 19.6246 28.5062Z" fill="#6D6D6D"/>
</svg>
