<svg width="283" height="390" viewBox="0 0 283 390" fill="none" xmlns="http://www.w3.org/2000/svg">
<path d="M283 141.5C283 63.4778 219.522 0 141.5 0C63.4778 0 0 63.4778 0 141.5C0 217.134 59.699 278.92 134.426 282.641V346.674H109.662C105.756 346.674 102.588 349.842 102.588 353.748C102.588 357.655 105.756 360.823 109.662 360.823H134.424V382.047C134.424 385.954 137.592 389.122 141.498 389.122C145.405 389.122 148.573 385.954 148.573 382.047V360.823H173.725C177.631 360.823 180.799 357.655 180.799 353.748C180.799 349.842 177.631 346.674 173.725 346.674H148.573V282.641C223.301 278.92 283 217.134 283 141.5ZM141.5 268.85C71.2788 268.85 14.1503 211.721 14.1503 141.5C14.1503 71.2788 71.2788 14.1504 141.5 14.1504C211.721 14.1504 268.85 71.2788 268.85 141.5C268.85 211.721 211.721 268.85 141.5 268.85Z" fill="#B3658C"/>
<path d="M141.5 35.3748C82.9827 35.3748 35.3748 82.9827 35.3748 141.5C35.3748 200.017 82.9827 247.625 141.5 247.625C200.017 247.625 247.625 200.017 247.625 141.5C247.625 82.9827 200.017 35.3748 141.5 35.3748ZM141.5 233.474C90.7837 233.474 49.5251 192.218 49.5251 141.5C49.5251 90.7819 90.7837 49.5251 141.5 49.5251C192.216 49.5251 233.474 90.7837 233.474 141.5C233.474 192.216 192.216 233.474 141.5 233.474Z" fill="#B3658C"/>
</svg>
