<svg width="30" height="40" viewBox="0 0 30 40" fill="none" xmlns="http://www.w3.org/2000/svg">
<path d="M15.0423 0C13.0986 0 11.5775 1.52113 11.5775 3.46479V3.80282H9.88732C8.61972 3.80282 7.52113 4.73239 7.26761 5.91549H2.4507C1.09859 5.91549 0 7.01408 0 8.3662V37.3521C0 38.7042 1.09859 39.8028 2.4507 39.8028H27.5493C28.9014 39.8028 30 38.7042 30 37.3521V8.3662C30 7.01408 28.9014 5.91549 27.5493 5.91549H22.7324C22.5634 4.73239 21.5493 3.80282 20.1972 3.80282H18.507V3.46479C18.507 1.52113 16.9859 0 15.0423 0ZM28.3099 8.3662V37.3521C28.3099 37.7746 27.9718 38.1127 27.5493 38.1127H2.4507C2.02817 38.1127 1.69014 37.7746 1.69014 37.3521V8.3662C1.69014 7.94366 2.02817 7.60563 2.4507 7.60563H7.1831V9.88732H4.56338V35.831H25.4366V9.88732H22.8169V7.60563H27.5493C27.9718 7.60563 28.3099 7.94366 28.3099 8.3662ZM7.1831 11.5775H22.8169H23.7465V34.1408H6.25352V11.5775H7.1831ZM20.1972 5.49296C20.7042 5.49296 21.1268 5.91549 21.1268 6.42254V9.88732H8.87324V6.42254C8.87324 5.91549 9.29577 5.49296 9.80282 5.49296H13.1831V3.46479C13.1831 2.53521 13.9437 1.69014 14.9577 1.69014C15.8873 1.69014 16.7324 2.4507 16.7324 3.46479V5.49296H20.1972Z" fill="#6D6D6D"/>
<path d="M22.0562 20.1133H14.0281V21.8034H22.0562V20.1133Z" fill="#6D6D6D"/>
<path d="M11.8312 24.6758H8.95801V26.3659H11.8312V24.6758Z" fill="#6D6D6D"/>
<path d="M22.0562 24.6758H14.0281V26.3659H22.0562V24.6758Z" fill="#6D6D6D"/>
<path d="M11.8312 29.2383H8.95801V30.9284H11.8312V29.2383Z" fill="#6D6D6D"/>
<path d="M22.0562 29.2402H14.0281V30.9304H22.0562V29.2402Z" fill="#6D6D6D"/>
<path d="M12.9295 19.6909L11.7464 18.5078L9.80272 20.4515L8.61962 19.2684L7.43652 20.4515L9.80272 22.8177L12.9295 19.6909Z" fill="#6D6D6D"/>
<path d="M14.1972 17.3233H15.8873V15.7177H17.493V14.0275H15.8873V12.4219H14.1972V14.0275H12.5916V15.7177H14.1972V17.3233Z" fill="#6D6D6D"/>
</svg>
