<svg width="30" height="30" viewBox="0 0 30 30" fill="none" xmlns="http://www.w3.org/2000/svg">
<path d="M24.625 9.75C25.2266 9.75 25.7917 9.86393 26.3203 10.0918C26.849 10.3197 27.3092 10.6341 27.7012 11.0352C28.0931 11.4362 28.4076 11.901 28.6445 12.4297C28.8815 12.9583 29 13.5234 29 14.125C29 14.6445 28.9134 15.1413 28.7402 15.6152C28.5671 16.0892 28.3255 16.513 28.0156 16.8867C27.7057 17.2604 27.3366 17.584 26.9082 17.8574C26.4798 18.1309 26.0104 18.3177 25.5 18.418V19.8125C25.5 20.6237 25.3997 21.4121 25.1992 22.1777C24.9987 22.9434 24.7161 23.6725 24.3516 24.3652C23.987 25.0579 23.5404 25.6823 23.0117 26.2383C22.4831 26.7943 21.8952 27.2819 21.248 27.7012C20.6009 28.1204 19.8945 28.4395 19.1289 28.6582C18.3633 28.877 17.5703 28.9909 16.75 29C15.9206 29 15.1276 28.8861 14.3711 28.6582C13.6146 28.4303 12.9128 28.1113 12.2656 27.7012C11.6185 27.291 11.0306 26.8034 10.502 26.2383C9.97331 25.6732 9.52669 25.0488 9.16211 24.3652C8.79753 23.6816 8.51042 22.957 8.30078 22.1914C8.09115 21.4258 7.99089 20.6328 8 19.8125V16.6816C6.87891 16.5814 5.88542 16.3125 5.01953 15.875C4.15365 15.4375 3.41992 14.8633 2.81836 14.1523C2.2168 13.4414 1.76562 12.6165 1.46484 11.6777C1.16406 10.7389 1.00911 9.72266 1 8.62891V1H5.375C5.61198 1 5.81706 1.08659 5.99023 1.25977C6.16341 1.43294 6.25 1.63802 6.25 1.875C6.25 2.11198 6.16341 2.31706 5.99023 2.49023C5.81706 2.66341 5.61198 2.75 5.375 2.75H2.75V8.62891C2.75 9.59505 2.88216 10.4701 3.14648 11.2539C3.41081 12.0378 3.80729 12.7077 4.33594 13.2637C4.86458 13.8197 5.5026 14.248 6.25 14.5488C6.9974 14.8496 7.8724 15 8.875 15C9.79557 15 10.6341 14.8587 11.3906 14.5762C12.1471 14.2936 12.7897 13.888 13.3184 13.3594C13.847 12.8307 14.2617 12.1927 14.5625 11.4453C14.8633 10.6979 15.0091 9.85482 15 8.91602V2.75H12.375C12.138 2.75 11.9329 2.66341 11.7598 2.49023C11.5866 2.31706 11.5 2.11198 11.5 1.875C11.5 1.63802 11.5866 1.43294 11.7598 1.25977C11.9329 1.08659 12.138 1 12.375 1H16.75V8.62891C16.75 9.72266 16.5951 10.7389 16.2852 11.6777C15.9753 12.6165 15.5241 13.4414 14.9316 14.1523C14.3392 14.8633 13.61 15.4375 12.7441 15.875C11.8783 16.3125 10.8802 16.5814 9.75 16.6816V19.8125C9.75 20.7878 9.92318 21.722 10.2695 22.6152C10.6159 23.5085 11.1035 24.3014 11.7324 24.9941C12.3613 25.6868 13.0996 26.2337 13.9473 26.6348C14.7949 27.0358 15.7292 27.2409 16.75 27.25C17.7617 27.25 18.6914 27.0449 19.5391 26.6348C20.3867 26.2246 21.125 25.6777 21.7539 24.9941C22.3828 24.3105 22.8704 23.5221 23.2168 22.6289C23.5632 21.7357 23.7409 20.7969 23.75 19.8125V18.418C23.2396 18.3086 22.7702 18.1217 22.3418 17.8574C21.9134 17.5931 21.5443 17.2741 21.2344 16.9004C20.9245 16.5267 20.6829 16.0983 20.5098 15.6152C20.3366 15.1322 20.25 14.6354 20.25 14.125C20.25 13.5234 20.3639 12.9583 20.5918 12.4297C20.8197 11.901 21.1296 11.4408 21.5215 11.0488C21.9134 10.6569 22.3783 10.3424 22.916 10.1055C23.4538 9.86849 24.0234 9.75 24.625 9.75ZM24.625 16.75C24.9896 16.75 25.3314 16.6816 25.6504 16.5449C25.9694 16.4082 26.2474 16.2214 26.4844 15.9844C26.7214 15.7474 26.9082 15.4694 27.0449 15.1504C27.1816 14.8314 27.25 14.4896 27.25 14.125C27.25 13.7604 27.1816 13.4186 27.0449 13.0996C26.9082 12.7806 26.7214 12.5026 26.4844 12.2656C26.2474 12.0286 25.9694 11.8418 25.6504 11.7051C25.3314 11.5684 24.9896 11.5 24.625 11.5C24.2604 11.5 23.9186 11.5684 23.5996 11.7051C23.2806 11.8418 23.0026 12.0286 22.7656 12.2656C22.5286 12.5026 22.3418 12.7806 22.2051 13.0996C22.0684 13.4186 22 13.7604 22 14.125C22 14.4896 22.0684 14.8314 22.2051 15.1504C22.3418 15.4694 22.5286 15.7474 22.7656 15.9844C23.0026 16.2214 23.2806 16.4082 23.5996 16.5449C23.9186 16.6816 24.2604 16.75 24.625 16.75Z" fill="white"/>
</svg>
