<svg width="294" height="294" viewBox="0 0 294 294" fill="none" xmlns="http://www.w3.org/2000/svg">
<path d="M269.544 227.968C285.499 203.884 294 176.008 294 147C294 65.9442 228.056 0 147 0C65.9442 0 0 65.9442 0 147C0 228.056 65.9442 294 147 294C176.008 294 203.884 285.499 227.968 269.544L243.275 284.852C247.298 289.722 253.987 292.976 261.68 293.789C262.924 293.922 264.159 293.99 265.384 293.99C272.415 293.99 279.001 291.839 283.862 287.88C289.938 282.921 293.495 275.414 293.878 266.732C294.265 257.941 291.295 249.567 285.969 244.383L269.544 227.968ZM243.114 108.937C240.722 107.036 238.272 105.252 235.754 103.615C235.401 103.39 235.029 103.204 234.676 102.978C232.245 101.445 229.776 100.004 227.242 98.7154C226.669 98.4214 226.071 98.1862 225.493 97.9069C223.166 96.775 220.814 95.7068 218.418 94.7758C217.545 94.4377 216.654 94.1633 215.771 93.8546C213.655 93.1049 211.533 92.3846 209.377 91.7868C208.191 91.4585 206.991 91.1988 205.795 90.9146C203.933 90.4736 202.071 90.0571 200.185 89.7288C198.719 89.474 197.245 89.2829 195.765 89.0918C194.143 88.886 192.526 88.7047 190.899 88.5871C189.204 88.4597 187.508 88.3813 185.803 88.3421C184.392 88.3127 182.99 88.3176 181.579 88.347C180.511 88.3715 179.453 88.2931 178.384 88.3519C177.561 88.396 176.763 88.5479 175.944 88.6165C174.719 88.7145 173.504 88.8664 172.284 89.0134C170.236 89.2584 168.202 89.523 166.188 89.8905C165.346 90.0473 164.513 90.2531 163.675 90.4344C161.303 90.9342 158.951 91.4732 156.643 92.1494C156.437 92.2082 156.236 92.2866 156.036 92.3503C142.213 96.5006 129.625 103.762 118.908 113.734C118.012 114.567 117.066 115.317 116.189 116.189C116.115 116.262 116.057 116.341 115.983 116.414C114.944 117.463 113.994 118.619 112.994 119.722C111.749 121.099 110.466 122.451 109.309 123.882C109.152 124.073 108.976 124.239 108.824 124.431C105.164 129.017 102.033 133.902 99.3524 138.974C99.0976 139.449 98.8869 139.939 98.6419 140.419C97.5786 142.521 96.579 144.643 95.6823 146.809C95.3148 147.686 94.9865 148.573 94.6484 149.455C93.9771 151.214 93.3548 152.988 92.7913 154.781C92.4336 155.913 92.0906 157.045 91.777 158.187C91.3556 159.73 90.9881 161.279 90.6451 162.837C90.3511 164.165 90.0473 165.483 89.8072 166.816C89.5671 168.168 89.4005 169.53 89.2192 170.887C89.0183 172.387 88.7782 173.876 88.6508 175.386C88.592 176.081 88.5969 176.782 88.5528 177.478C88.3274 180.962 88.3029 184.446 88.4499 187.93C88.5038 189.189 88.5283 190.448 88.6312 191.708C88.7488 193.133 88.9448 194.55 89.1261 195.966C89.3123 197.446 89.5083 198.916 89.7631 200.386C89.9787 201.63 90.2384 202.86 90.503 204.095C90.8705 205.81 91.287 207.515 91.7476 209.21C92.022 210.21 92.2964 211.21 92.6051 212.199C93.2421 214.277 93.9722 216.32 94.7562 218.354C94.9963 218.976 95.2119 219.598 95.4618 220.216C98.6566 228.022 102.88 235.484 108.231 242.315C108.515 242.677 108.829 242.996 109.118 243.349C109.789 244.191 110.524 244.995 111.23 245.818C112.514 247.308 113.812 248.778 115.165 250.17C115.522 250.542 115.826 250.944 116.194 251.306C116.713 251.826 117.291 252.272 117.821 252.776C119.168 254.065 120.545 255.31 121.951 256.51C122.848 257.27 123.745 258.024 124.666 258.749C126.351 260.082 128.081 261.332 129.84 262.542C130.301 262.856 130.727 263.228 131.193 263.537C73.794 255.795 29.4 206.486 29.4 147C29.4 82.1583 82.1583 29.4 147 29.4C206.486 29.4 255.79 73.7989 263.542 131.188C263.194 130.659 262.777 130.178 262.419 129.654C261.381 128.14 260.283 126.66 259.151 125.2C258.495 124.352 257.858 123.495 257.172 122.667C255.388 120.52 253.521 118.428 251.527 116.424C251.448 116.346 251.385 116.262 251.311 116.184C248.91 113.783 246.406 111.549 243.824 109.461C243.594 109.275 243.344 109.118 243.114 108.937ZM9.8 147C9.8 71.3489 71.3489 9.8 147 9.8C222.651 9.8 284.2 71.3489 284.2 147C284.2 159.588 282.5 171.961 279.192 183.853C279.192 183.833 279.192 183.814 279.192 183.799C279.192 180.962 279.035 178.13 278.786 175.307C278.712 174.46 278.585 173.622 278.487 172.779C278.256 170.785 277.977 168.8 277.624 166.825C277.453 165.855 277.262 164.895 277.056 163.93C276.649 161.999 276.174 160.083 275.645 158.177C275.405 157.314 275.189 156.447 274.929 155.59C274.699 154.84 274.459 154.095 274.209 153.346C274.312 151.239 274.4 149.132 274.4 147C274.4 76.7487 217.251 19.6 147 19.6C76.7487 19.6 19.6 76.7487 19.6 147C19.6 217.251 76.7487 274.4 147 274.4C149.024 274.4 151.028 274.312 153.032 274.219C162.842 277.561 173.127 279.266 183.51 279.276C171.721 282.524 159.471 284.2 147 284.2C71.3489 284.2 9.8 222.651 9.8 147ZM277.663 280.28C274.033 283.245 268.447 284.646 262.709 284.048C257.554 283.504 253.08 281.427 250.738 278.501L236.205 263.943L236.214 263.939L228.928 256.652L225.689 258.47C223.518 259.69 221.309 260.788 219.079 261.802C217.663 262.444 216.222 262.993 214.787 263.551C214.037 263.845 213.287 264.169 212.533 264.443C210.524 265.159 208.5 265.796 206.457 266.354C206.324 266.389 206.197 266.433 206.065 266.467C188.954 271.063 170.878 270.147 154.414 264.193C152.13 263.365 149.896 262.454 147.715 261.449C147.225 261.224 146.726 261.033 146.24 260.798C143.727 259.587 141.296 258.235 138.93 256.789C138.175 256.329 137.445 255.824 136.7 255.339C134.985 254.217 133.305 253.031 131.673 251.782C131.31 251.502 130.948 251.223 130.585 250.939C130.051 250.517 129.522 250.081 128.997 249.645C127.469 248.376 125.984 247.043 124.538 245.661C123.759 244.917 122.975 244.182 122.221 243.403C120.996 242.138 119.844 240.835 118.712 239.517C118.065 238.767 117.404 238.037 116.777 237.258C111.583 230.77 107.452 223.705 104.424 216.291C104.297 215.972 104.184 215.649 104.061 215.331C103.238 213.248 102.508 211.136 101.851 209.005C101.646 208.338 101.459 207.667 101.273 206.991C100.773 205.202 100.342 203.404 99.96 201.591C99.7787 200.729 99.5974 199.866 99.4406 198.994C99.1466 197.343 98.9261 195.686 98.7252 194.02C98.6125 193.065 98.4704 192.109 98.392 191.149C98.245 189.419 98.1862 187.685 98.1421 185.955C98.1225 185.107 98.049 184.264 98.0539 183.417C98.0637 180.942 98.1862 178.473 98.4067 176.003C98.49 175.097 98.6419 174.195 98.7497 173.289C98.9555 171.613 99.1711 169.937 99.47 168.276C99.6366 167.35 99.8522 166.433 100.053 165.517C100.416 163.831 100.813 162.156 101.278 160.495C101.504 159.686 101.749 158.883 101.998 158.079C102.572 156.241 103.209 154.419 103.909 152.611C104.145 152.008 104.37 151.4 104.615 150.802C105.512 148.641 106.492 146.515 107.575 144.418C107.697 144.178 107.805 143.933 107.932 143.693C110.451 138.92 113.464 134.343 116.943 130.021C117.997 128.718 119.134 127.518 120.246 126.293C121.133 125.308 121.966 124.293 122.912 123.343C124.127 122.113 125.425 121.006 126.704 119.864C131.217 115.826 136.068 112.303 141.223 109.348C142.022 108.888 142.791 108.378 143.604 107.947C145.109 107.148 146.672 106.467 148.22 105.762C149.308 105.267 150.381 104.728 151.493 104.277C152.875 103.713 154.301 103.258 155.712 102.768C157.074 102.297 158.432 101.812 159.818 101.41C161.078 101.048 162.361 100.759 163.64 100.455C165.248 100.073 166.86 99.6954 168.496 99.4063C169.677 99.1956 170.873 99.0388 172.068 98.8771C173.808 98.6419 175.562 98.441 177.331 98.3087C178.531 98.2205 179.737 98.1715 180.947 98.1323C182.78 98.0784 184.612 98.0637 186.435 98.1274C187.45 98.1568 188.459 98.2107 189.463 98.2744C191.61 98.4214 193.746 98.637 195.868 98.9408C196.51 99.029 197.152 99.1172 197.789 99.225C200.307 99.6464 202.801 100.166 205.266 100.803C205.54 100.871 205.815 100.935 206.084 101.009C208.853 101.758 211.582 102.631 214.257 103.645C214.292 103.66 214.326 103.669 214.36 103.679C219.868 105.781 225.15 108.452 230.133 111.646C230.207 111.696 230.285 111.735 230.359 111.784C232.677 113.278 234.911 114.92 237.082 116.645C237.283 116.806 237.498 116.938 237.699 117.105C240.022 118.982 242.256 120.986 244.388 123.117C244.441 123.171 244.485 123.23 244.539 123.284C246.509 125.264 248.332 127.346 250.076 129.482C250.684 130.222 251.252 130.987 251.831 131.746C253.041 133.334 254.188 134.961 255.28 136.627C255.79 137.406 256.324 138.18 256.809 138.974C258.24 141.321 259.582 143.732 260.783 146.226C261.033 146.74 261.239 147.274 261.474 147.799C262.459 149.95 263.36 152.155 264.179 154.404C267.81 164.439 269.608 175.057 269.378 185.71C269.177 194.863 267.52 204.021 264.355 212.822C262.772 217.222 260.812 221.529 258.47 225.699L256.652 228.938L263.939 236.224L279.084 251.37C282.382 254.579 284.342 260.45 284.087 266.31C283.931 269.691 282.897 276.012 277.663 280.28Z" fill="#B3658C"/>
<path d="M249.9 264.601C252.606 264.601 254.8 262.407 254.8 259.701C254.8 256.995 252.606 254.801 249.9 254.801C247.194 254.801 245 256.995 245 259.701C245 262.407 247.194 264.601 249.9 264.601Z" fill="#B3658C"/>
<path d="M269.5 264.601C272.206 264.601 274.4 262.407 274.4 259.701C274.4 256.995 272.206 254.801 269.5 254.801C266.793 254.801 264.6 256.995 264.6 259.701C264.6 262.407 266.793 264.601 269.5 264.601Z" fill="#B3658C"/>
<path d="M259.7 254.8C262.406 254.8 264.6 252.606 264.6 249.9C264.6 247.194 262.406 245 259.7 245C256.994 245 254.8 247.194 254.8 249.9C254.8 252.606 256.994 254.8 259.7 254.8Z" fill="#B3658C"/>
<path d="M259.7 274.402C262.406 274.402 264.6 272.208 264.6 269.502C264.6 266.795 262.406 264.602 259.7 264.602C256.994 264.602 254.8 266.795 254.8 269.502C254.8 272.208 256.994 274.402 259.7 274.402Z" fill="#B3658C"/>
<path d="M88.1998 73.5C85.4901 73.5 83.2998 75.6903 83.2998 78.4V98C83.2998 100.71 85.4901 102.9 88.1998 102.9C90.9095 102.9 93.0998 100.71 93.0998 98V78.4C93.0998 75.6903 90.9095 73.5 88.1998 73.5Z" fill="#B3658C"/>
<path d="M67.1644 128.835C65.2485 126.919 62.1517 126.919 60.2358 128.835L47.9858 141.085C46.0699 143.001 46.0699 146.098 47.9858 148.014C48.9413 148.969 50.1957 149.45 51.4501 149.45C52.7045 149.45 53.9589 148.969 54.9144 148.014L67.1644 135.764C69.0803 133.848 69.0803 130.751 67.1644 128.835Z" fill="#B3658C"/>
<path d="M150.464 55.3354C148.548 53.4195 145.451 53.4195 143.536 55.3354C141.62 57.2513 141.62 60.3481 143.536 62.264L153.336 72.064C154.291 73.0195 155.545 73.4997 156.8 73.4997C158.054 73.4997 159.309 73.0195 160.264 72.064C162.18 70.1481 162.18 67.0513 160.264 65.1354L150.464 55.3354Z" fill="#B3658C"/>
<path d="M69.4229 178.582L59.6229 193.282C58.1186 195.536 58.7262 198.574 60.9802 200.078C61.8181 200.632 62.7638 200.901 63.6948 200.901C65.2775 200.901 66.8357 200.137 67.7765 198.721L77.5765 184.021C79.0808 181.767 78.4732 178.729 76.2192 177.224C73.9554 175.72 70.9223 176.328 69.4229 178.582Z" fill="#B3658C"/>
<path d="M161.7 151.899C172.509 151.899 181.3 143.109 181.3 132.299C181.3 121.49 172.509 112.699 161.7 112.699C150.89 112.699 142.1 121.49 142.1 132.299C142.1 143.109 150.89 151.899 161.7 151.899ZM161.7 122.499C167.104 122.499 171.5 126.895 171.5 132.299C171.5 137.704 167.104 142.099 161.7 142.099C156.295 142.099 151.9 137.704 151.9 132.299C151.9 126.895 156.295 122.499 161.7 122.499Z" fill="#B3658C"/>
<path d="M239.257 211.541C231.858 204.132 218.942 204.132 211.543 211.541C207.838 215.24 205.8 220.165 205.8 225.398C205.8 230.631 207.838 235.556 211.543 239.255C215.242 242.96 220.167 244.998 225.4 244.998C230.633 244.998 235.558 242.96 239.257 239.255C242.961 235.556 245 230.631 245 225.398C245 220.165 242.961 215.24 239.257 211.541ZM232.328 232.327C228.624 236.031 222.176 236.031 218.471 232.327C216.619 230.475 215.6 228.015 215.6 225.398C215.6 222.782 216.619 220.322 218.471 218.47C220.323 216.617 222.783 215.598 225.4 215.598C228.016 215.598 230.476 216.617 232.328 218.47C234.181 220.322 235.2 222.782 235.2 225.398C235.2 228.015 234.181 230.475 232.328 232.327Z" fill="#B3658C"/>
<path d="M211.077 173.371C211.572 174.572 212.528 175.527 213.728 176.022C214.326 176.272 214.963 176.4 215.6 176.4H240.1C242.81 176.4 245 174.209 245 171.5C245 168.79 242.81 166.6 240.1 166.6H227.429L233.764 160.264C235.68 158.348 235.68 155.251 233.764 153.335C231.848 151.419 228.752 151.419 226.836 153.335L212.141 168.03C211.685 168.481 211.327 169.025 211.077 169.628C210.582 170.823 210.582 172.176 211.077 173.371Z" fill="#B3658C"/>
<path d="M147 205.801H132.3C129.591 205.801 127.4 207.991 127.4 210.701C127.4 213.41 129.591 215.601 132.3 215.601H142.1V230.301C142.1 233.01 144.291 235.201 147 235.201C149.71 235.201 151.9 233.01 151.9 230.301V210.701C151.9 207.991 149.71 205.801 147 205.801Z" fill="#B3658C"/>
<path d="M166.599 191.101C167.854 191.101 169.108 190.621 170.064 189.666L179.864 179.866C181.78 177.95 181.78 174.853 179.864 172.937C177.948 171.021 174.851 171.021 172.935 172.937L163.135 182.737C161.219 184.653 161.219 187.75 163.135 189.666C164.091 190.621 165.345 191.101 166.599 191.101Z" fill="#B3658C"/>
<path d="M186.2 200.898C188.91 200.898 191.1 198.708 191.1 195.998V181.298C191.1 178.589 188.91 176.398 186.2 176.398C183.49 176.398 181.3 178.589 181.3 181.298V195.998C181.3 198.708 183.49 200.898 186.2 200.898Z" fill="#B3658C"/>
<path d="M179.864 207.237L170.064 197.437C168.148 195.521 165.051 195.521 163.135 197.437C161.219 199.353 161.219 202.45 163.135 204.366L172.935 214.166C173.891 215.121 175.145 215.601 176.399 215.601C177.654 215.601 178.908 215.121 179.864 214.166C181.78 212.25 181.78 209.153 179.864 207.237Z" fill="#B3658C"/>
<path d="M192.536 202.335L182.736 212.135C180.82 214.051 180.82 217.148 182.736 219.064C183.691 220.019 184.946 220.5 186.2 220.5C187.454 220.5 188.709 220.019 189.664 219.064L199.464 209.264C201.38 207.348 201.38 204.251 199.464 202.335C197.548 200.419 194.452 200.419 192.536 202.335Z" fill="#B3658C"/>
<path d="M205.8 176.4C205.8 173.69 203.61 171.5 200.9 171.5C198.19 171.5 196 173.69 196 176.4V191.1C196 193.81 198.19 196 200.9 196C203.61 196 205.8 193.81 205.8 191.1V176.4Z" fill="#B3658C"/>
<path d="M176.4 166.599C176.4 169.309 178.591 171.499 181.3 171.499H191.1C193.81 171.499 196 169.309 196 166.599C196 163.89 193.81 161.699 191.1 161.699H181.3C178.591 161.699 176.4 163.89 176.4 166.599Z" fill="#B3658C"/>
<path d="M158.99 200.383C161.41 199.173 162.39 196.228 161.18 193.808L156.28 184.008C155.065 181.587 152.125 180.612 149.704 181.817C147.283 183.028 146.303 185.972 147.514 188.393L152.414 198.193C153.276 199.908 155.006 200.898 156.804 200.898C157.539 200.898 158.289 200.731 158.99 200.383Z" fill="#B3658C"/>
<path d="M170.064 170.065C171.98 168.149 171.98 165.052 170.064 163.136C168.148 161.22 165.052 161.22 163.136 163.136L158.236 168.036C156.32 169.952 156.32 173.049 158.236 174.965C159.191 175.92 160.446 176.4 161.7 176.4C162.954 176.4 164.209 175.92 165.164 174.965L170.064 170.065Z" fill="#B3658C"/>
<path d="M166.6 210.699H161.7C158.99 210.699 156.8 212.89 156.8 215.599C156.8 218.309 158.99 220.499 161.7 220.499H166.6C169.31 220.499 171.5 218.309 171.5 215.599C171.5 212.89 169.31 210.699 166.6 210.699Z" fill="#B3658C"/>
</svg>
