<svg width="30" height="30" viewBox="0 0 30 30" fill="none" xmlns="http://www.w3.org/2000/svg">
<g clip-path="url(#clip0_221_515)">
<path d="M2.5 29.375H27.5M10.8075 18.75C11.4009 19.4132 12.1432 19.9261 12.9733 20.2466C13.8035 20.5671 14.6978 20.6861 15.5829 20.5938C16.468 20.5015 17.3185 20.2005 18.0647 19.7156C18.8108 19.2306 19.4313 18.5756 19.8751 17.8043C20.3188 17.0329 20.5733 16.1673 20.6174 15.2785C20.6616 14.3897 20.4943 13.5031 20.1293 12.6916C19.7642 11.88 19.2118 11.1667 18.5174 10.6101C17.8231 10.0535 17.0066 9.66966 16.135 9.49M16.135 9.49L13.125 12.5L8.75 8.125L15.5875 1.2875C15.7976 1.07736 16.047 0.910658 16.3216 0.796927C16.5961 0.683195 16.8903 0.624658 17.1875 0.624658C17.4847 0.624658 17.7789 0.683195 18.0534 0.796927C18.328 0.910658 18.5774 1.07736 18.7875 1.2875L19.9625 2.4625C20.1726 2.6726 20.3393 2.92204 20.4531 3.19657C20.5668 3.4711 20.6253 3.76534 20.6253 4.0625C20.6253 4.35966 20.5668 4.6539 20.4531 4.92843C20.3393 5.20296 20.1726 5.4524 19.9625 5.6625L19.0725 6.5525M16.135 9.49L19.0725 6.5525M6.405 18.75C6.96151 20.0213 7.79262 21.1537 8.83865 22.0657C9.88469 22.9778 11.1197 23.6469 12.455 24.025M12.455 24.025C13.175 23.4419 14.0735 23.1237 15 23.1237C15.9265 23.1237 16.825 23.4419 17.545 24.025M12.455 24.025C12.0052 24.3877 11.6393 24.8436 11.3825 25.3612L10.625 26.875C10.625 26.875 9.375 29.375 6.875 29.375H23.125C20.625 29.375 19.375 26.875 19.375 26.875L18.6175 25.3612C18.3607 24.8436 17.9948 24.3877 17.545 24.025M8.125 11.875L10 13.75M2.5 16.875H13.75M19.0725 6.5525C20.7867 7.37972 22.2086 8.70893 23.1494 10.3635C24.0902 12.0182 24.5053 13.9198 24.3395 15.816C24.1737 17.7121 23.435 19.5129 22.2214 20.9792C21.0078 22.4455 19.3767 23.5078 17.545 24.025M19.375 1.875L20.75 0.5" stroke="white" stroke-width="1.5"/>
</g>
<defs>
<clipPath id="clip0_221_515">
<rect width="30" height="30" fill="white"/>
</clipPath>
</defs>
</svg>
