<svg width="349" height="380" viewBox="0 0 349 380" fill="none" xmlns="http://www.w3.org/2000/svg">
<path d="M299.409 249.811V259.634C299.409 264.083 295.814 267.69 291.379 267.69C286.944 267.69 283.349 264.083 283.349 259.634V249.811C283.349 245.362 286.944 241.754 291.379 241.754C295.814 241.754 299.409 245.361 299.409 249.811ZM132.158 318.139C127.723 318.139 124.128 321.746 124.128 326.195C124.128 346.901 94.7392 358.239 70.0853 364.104C65.7698 365.13 63.1012 369.472 64.1246 373.8C64.9998 377.505 68.2947 380 71.9304 380C72.5442 380 73.1678 379.929 73.7897 379.781C117.848 369.3 140.187 351.271 140.187 326.195C140.187 321.746 136.593 318.139 132.158 318.139ZM65.6475 249.811C65.6475 245.362 62.0529 241.754 57.6178 241.754C53.1827 241.754 49.5881 245.362 49.5881 249.811V259.634C49.5881 264.083 53.1827 267.69 57.6178 267.69C62.0529 267.69 65.6475 264.083 65.6475 259.634V249.811ZM277.828 364.104C253.175 358.239 223.788 346.9 223.788 326.195C223.788 321.746 220.193 318.139 215.758 318.139C211.323 318.139 207.728 321.746 207.728 326.195C207.728 351.271 230.067 369.3 274.123 379.781C274.746 379.929 275.369 380 275.983 380C279.618 380 282.914 377.505 283.788 373.801C284.812 369.472 282.142 365.13 277.828 364.104ZM238.4 172.679C230.591 170.335 222.051 170.607 214.354 173.445C210.191 174.979 208.056 179.609 209.586 183.785C210.78 187.045 213.853 189.066 217.124 189.066C218.043 189.066 218.979 188.906 219.892 188.569C224.352 186.924 229.29 186.762 233.796 188.116C238.041 189.391 242.519 186.969 243.79 182.708C245.062 178.445 242.648 173.955 238.4 172.679ZM338.263 168.736C329.013 187.129 314.082 203.179 294.669 215.726C293.475 218.913 292.17 222.088 290.775 225.197C288.955 229.255 284.2 231.063 280.158 229.238C280.148 229.233 280.139 229.23 280.13 229.225C268.494 259.32 247.548 284.278 220.376 300.167C202.66 310.529 188.515 315.159 174.514 315.182C160.485 315.159 146.34 310.529 128.625 300.167C101.556 284.339 80.4883 259.104 68.8826 229.221C68.8701 229.226 68.8585 229.232 68.8461 229.237C64.8062 231.064 60.0482 229.258 58.2272 225.2C56.8363 222.104 55.531 218.928 54.331 215.727C34.9178 203.181 19.9879 187.13 10.7376 168.737C0.0545325 147.496 -2.72375 124.163 2.70256 101.261C9.25124 73.6215 27.6464 48.5938 54.4996 30.788C83.9553 11.2537 122.937 0.61785 167.229 0.0270678C169.626 -0.00426154 172.073 -0.00784204 174.499 0.0154312C176.928 -0.00873716 179.373 -0.00426154 181.768 0.0270678C226.062 0.616954 265.043 11.2537 294.5 30.7862C321.353 48.592 339.748 73.6206 346.297 101.259C351.724 124.162 348.945 147.494 338.263 168.736ZM105.247 114.732C122.548 101.493 144.027 93.8745 166.47 92.889V16.1527C72.3113 17.7255 27.8168 64.9271 18.3248 104.986C9.49749 142.244 26.4777 178.535 62.9451 202.13C63.3725 196.322 64.0639 190.452 65.0168 184.568C69.7382 155.408 83.6493 131.258 105.247 114.732ZM264.974 223.865H208.577C194.583 223.865 182.16 216.979 174.498 206.408C166.837 216.979 154.413 223.865 140.419 223.865H100.14C95.7046 223.865 92.1099 220.258 92.1099 215.809C92.1099 211.36 95.7046 207.753 100.14 207.753H140.419C154.727 207.753 166.378 196.121 166.469 181.788C166.469 181.732 166.469 181.674 166.469 181.617V166.589C166.469 166.548 166.469 166.506 166.469 166.465C166.403 159.724 160.916 154.261 154.182 154.261H91.9261C86.7407 163.652 82.9025 174.591 80.8683 187.153C79.7799 193.865 79.0625 200.549 78.7226 207.116C86.9415 240.677 108.028 269.474 136.711 286.247C151.842 295.097 163.5 299.051 174.512 299.069C185.496 299.051 197.155 295.097 212.287 286.247C236.16 272.286 254.615 250.352 264.974 223.865ZM270.308 207.753C269.983 200.987 269.253 194.088 268.129 187.155C259.123 131.524 214.738 107.783 174.73 108.932C174.713 108.932 174.699 108.932 174.683 108.933C174.672 108.933 174.663 108.933 174.655 108.934C174.646 108.934 174.639 108.935 174.629 108.934C174.622 108.934 174.614 108.934 174.608 108.934C174.599 108.934 174.59 108.934 174.581 108.934C174.571 108.934 174.563 108.934 174.554 108.934C174.543 108.934 174.536 108.934 174.528 108.934C174.523 108.934 174.511 108.934 174.502 108.934H174.501H174.5C174.49 108.934 174.484 108.934 174.474 108.934C174.466 108.934 174.46 108.934 174.448 108.934C174.44 108.934 174.432 108.934 174.424 108.934C174.415 108.934 174.407 108.934 174.4 108.934C174.391 108.934 174.384 108.934 174.374 108.934C174.365 108.934 174.357 108.934 174.349 108.934C174.339 108.934 174.33 108.933 174.319 108.934C174.308 108.932 174.289 108.933 174.273 108.933C149.096 108.209 122.125 117.366 103.384 138.15H154.185C162.144 138.15 169.348 141.458 174.501 146.776C179.654 141.458 186.859 138.15 194.817 138.15H227.09C231.526 138.15 235.12 141.757 235.12 146.206C235.12 150.655 231.526 154.262 227.09 154.262H194.817C188.084 154.262 182.598 159.725 182.531 166.466C182.531 166.507 182.531 166.549 182.531 166.59V181.618C182.531 181.675 182.531 181.733 182.531 181.789C182.623 196.122 194.273 207.754 208.579 207.754H270.308V207.753ZM330.674 104.986C321.182 64.9262 276.689 17.7246 182.529 16.1527V92.889C204.973 93.8736 226.45 101.492 243.751 114.732C265.349 131.258 279.26 155.408 283.981 184.57C284.935 190.456 285.627 196.327 286.054 202.131C322.521 178.535 339.501 142.245 330.674 104.986ZM171.799 242.323H177.198C181.633 242.323 185.228 238.716 185.228 234.267C185.228 229.818 181.633 226.211 177.198 226.211H171.799C167.364 226.211 163.769 229.818 163.769 234.267C163.769 238.716 167.364 242.323 171.799 242.323ZM115.203 188.116C119.706 186.763 124.643 186.924 129.104 188.569C130.016 188.905 130.952 189.066 131.873 189.066C135.144 189.066 138.217 187.046 139.41 183.787C140.94 179.61 138.806 174.981 134.643 173.447C126.946 170.608 118.406 170.336 110.598 172.681C106.349 173.957 103.937 178.447 105.208 182.709C106.48 186.971 110.952 189.392 115.203 188.116ZM180.868 264.753C177.244 266.872 175.491 267.119 174.511 267.12C173.508 267.119 171.754 266.872 168.129 264.752C164.294 262.511 159.38 263.814 157.148 267.657C154.916 271.502 156.212 276.434 160.043 278.674C165.425 281.819 169.88 283.225 174.511 283.233C179.12 283.225 183.575 281.819 188.955 278.673C192.786 276.432 194.081 271.499 191.848 267.656C189.616 263.812 184.699 262.511 180.868 264.753Z" fill="#B3658C"/>
</svg>
