<svg width="42" height="30" viewBox="0 0 42 30" fill="none" xmlns="http://www.w3.org/2000/svg">
<path d="M25.5025 0C25.1046 3.97394e-05 24.7231 0.158103 24.4418 0.439426C24.1604 0.72075 24.0024 1.10229 24.0023 1.50015V3.00029H22.5022C22.1043 3.00033 21.7228 3.15839 21.4415 3.43972C21.1601 3.72104 21.0021 4.10259 21.002 4.50044V9.00088C21.0021 9.39873 21.1601 9.78027 21.4415 10.0616C21.7228 10.3429 22.1043 10.501 22.5022 10.501H24.0023V12.0012C24.0024 12.399 24.1604 12.7806 24.4418 13.0619C24.7231 13.3432 25.1046 13.5013 25.5025 13.5013H30.0029C30.4008 13.5013 30.7823 13.3432 31.0636 13.0619C31.345 12.7806 31.503 12.399 31.5031 12.0012V10.501H33.0032C33.4011 10.501 33.7826 10.3429 34.0639 10.0616C34.3452 9.78027 34.5033 9.39873 34.5034 9.00088V4.50044C34.5033 4.10259 34.3452 3.72104 34.0639 3.43972C33.7826 3.15839 33.4011 3.00033 33.0032 3.00029H31.5031V1.50015C31.503 1.10229 31.345 0.72075 31.0636 0.439426C30.7823 0.158103 30.4008 3.97394e-05 30.0029 0H25.5025ZM27.0026 3.00029H28.5028V4.50044C28.5028 4.89829 28.6609 5.27983 28.9422 5.56116C29.2235 5.84248 29.6051 6.00054 30.0029 6.00058H31.5031V7.50073H30.0029C29.6051 7.50077 29.2235 7.65883 28.9422 7.94016C28.6609 8.22148 28.5028 8.60302 28.5028 9.00088V10.501H27.0026V9.00088C27.0026 8.60302 26.8445 8.22148 26.5632 7.94016C26.2819 7.65883 25.9003 7.50077 25.5025 7.50073H24.0023V6.00058H25.5025C25.9003 6.00054 26.2819 5.84248 26.5632 5.56116C26.8445 5.27983 27.0026 4.89829 27.0026 4.50044V3.00029ZM1.35072 12.007C0.980313 12.0441 0.636934 12.2176 0.387307 12.4938C0.137681 12.77 -0.000362889 13.1291 7.16473e-07 13.5013V28.5057C0.00158307 28.9015 0.159524 29.2807 0.439415 29.5606C0.719306 29.8405 1.09846 29.9984 1.49429 30H7.4978C7.89565 30.0015 8.27782 29.8449 8.56024 29.5647C8.84266 29.2845 9.00221 28.9036 9.00381 28.5057H25.1714C25.3537 28.5052 25.5344 28.4714 25.7046 28.4061L37.3982 23.932C40.3197 23.0088 42.0041 20.6652 42.0041 18.3739C42.0041 17.2282 41.4925 16.0063 40.4219 15.3296C39.3513 14.6529 37.9506 14.6131 36.4899 15.0747C36.4633 15.0808 36.4369 15.0877 36.4108 15.0952L24.896 19.5048H22.6135C22.7172 18.9257 22.942 18.3658 22.845 17.7644C22.6795 16.7378 22.2162 15.6886 21.3624 14.8638C20.5086 14.0389 19.2522 13.5013 17.8084 13.5013H9.00381C9.00221 13.1035 8.84266 12.7225 8.56024 12.4423C8.27782 12.1621 7.89565 12.0055 7.4978 12.007H1.49429C1.44646 12.0047 1.39855 12.0047 1.35072 12.007ZM3.00322 14.9956H6.00351V19.5048V20.9991V26.9997H3.00322V14.9956ZM9.00381 16.5016H17.8084C18.5728 16.5016 18.9684 16.7229 19.2792 17.0231C19.59 17.3234 19.8035 17.7685 19.8799 18.242C19.9562 18.7155 19.8716 19.1864 19.7685 19.3935C19.7249 19.4812 19.7262 19.4956 19.7304 19.5048H13.4984C13.1063 19.5135 12.7332 19.6754 12.4589 19.9558C12.1847 20.2362 12.0311 20.6128 12.0311 21.005C12.0311 21.3972 12.1847 21.7738 12.4589 22.0542C12.7332 22.3346 13.1063 22.4964 13.4984 22.5051H19.7451H25.1714C25.3537 22.5046 25.5344 22.4708 25.7046 22.4055L37.3982 17.9314C38.3109 17.643 38.6972 17.7906 38.8133 17.864C38.9295 17.9374 39.0038 18.0194 39.0038 18.3739C39.0038 19.0828 38.3154 20.4984 36.4899 21.0753C36.4633 21.0824 36.4369 21.0902 36.4108 21.0987L24.896 25.5054H9.00381V20.9991V16.5016Z" fill="#6D6D6D"/>
</svg>
