<svg width="30" height="30" viewBox="0 0 30 30" fill="none" xmlns="http://www.w3.org/2000/svg">
<path d="M15.1938 12.0278V9.25H17.9716V12.0278H20.7493V14.8056H17.9716V17.5833H15.1938V14.8056H12.416V12.0278H15.1938Z" fill="white"/>
<path fill-rule="evenodd" clip-rule="evenodd" d="M16.5833 23.8333C22.3361 23.8333 27 19.1694 27 13.4167C27 7.66389 22.3361 3 16.5833 3C10.8306 3 6.16667 7.66389 6.16667 13.4167C6.16667 16.0736 7.16111 18.4979 8.79861 20.3382L7.99444 21.1431L6.81042 21.2257L2 26.0361L3.96389 28L8.74444 23.2194L8.85417 22.2472L9.78889 21.3125C11.6771 22.9422 14.0891 23.8371 16.5833 23.8333ZM16.5833 22.4444C21.5694 22.4444 25.6111 18.4028 25.6111 13.4167C25.6111 8.43056 21.5694 4.38889 16.5833 4.38889C11.5972 4.38889 7.55556 8.43056 7.55556 13.4167C7.55556 18.4028 11.5972 22.4444 16.5833 22.4444Z" fill="white"/>
<path fill-rule="evenodd" clip-rule="evenodd" d="M9.31736 19.8764L9.75278 20.366L10.2417 20.7861C11.8864 22.2057 13.9608 23.0307 16.1313 23.1285C11.0792 22.8972 7.03194 18.8097 6.86667 13.7403C6.93885 16.0098 7.80586 18.1818 9.31736 19.8764ZM8.30208 21.8174L7.11806 21.9007L2.98264 26.0361L3.96458 27.0181L8.08264 22.9L8.19236 21.9278L8.30208 21.8174ZM8.74514 23.2201L3.96389 28L2 26.0361L6.81042 21.2257L7.99444 21.1424L8.79861 20.3382C7.09977 18.4333 6.16272 15.969 6.16667 13.4167C6.16667 7.66389 10.8306 3 16.5833 3C22.3361 3 27 7.66389 27 13.4167C27 19.1694 22.3361 23.8333 16.5833 23.8333C14.0891 23.8371 11.6771 22.9422 9.78889 21.3125L8.85417 22.2472L8.74514 23.2201ZM15.8889 12.7222H13.1111V14.1111H15.8889V16.8889H17.2778V14.1111H20.0556V12.7222H17.2778V9.94444H15.8889V12.7222ZM17.9722 9.25V12.0278H20.75V14.8056H17.9722V17.5833H15.1944V14.8056H12.4167V12.0278H15.1944V9.25H17.9722ZM25.6111 13.4167C25.6111 18.4028 21.5694 22.4444 16.5833 22.4444C11.5972 22.4444 7.55556 18.4028 7.55556 13.4167C7.55556 8.43056 11.5972 4.38889 16.5833 4.38889C21.5694 4.38889 25.6111 8.43056 25.6111 13.4167Z" fill="white"/>
</svg>
