<svg width="30" height="30" viewBox="0 0 30 30" fill="none" xmlns="http://www.w3.org/2000/svg">
<path d="M25 27.5V23.75C25 20.215 25 18.4462 23.9013 17.3487C22.8038 16.25 21.035 16.25 17.5 16.25L15 18.75L12.5 16.25C8.965 16.25 7.19625 16.25 6.09875 17.3487C5 18.4462 5 20.215 5 23.75V27.5M20 16.25V23.125" stroke="white" stroke-width="1.5" stroke-linecap="round" stroke-linejoin="round"/>
<path d="M10.625 16.25V21.25M10.625 21.25C11.288 21.25 11.9239 21.5134 12.3928 21.9822C12.8616 22.4511 13.125 23.087 13.125 23.75V25M10.625 21.25C9.96196 21.25 9.32607 21.5134 8.85723 21.9822C8.38839 22.4511 8.125 23.087 8.125 23.75V25M19.375 8.125V6.875C19.375 6.30047 19.2618 5.73156 19.042 5.20076C18.8221 4.66996 18.4998 4.18766 18.0936 3.78141C17.6873 3.37515 17.205 3.05289 16.6742 2.83303C16.1434 2.61316 15.5745 2.5 15 2.5C14.4255 2.5 13.8566 2.61316 13.3258 2.83303C12.795 3.05289 12.3127 3.37515 11.9064 3.78141C11.5002 4.18766 11.1779 4.66996 10.958 5.20076C10.7382 5.73156 10.625 6.30047 10.625 6.875V8.125C10.625 8.69953 10.7382 9.26844 10.958 9.79924C11.1779 10.33 11.5002 10.8123 11.9064 11.2186C12.3127 11.6248 12.795 11.9471 13.3258 12.167C13.8566 12.3868 14.4255 12.5 15 12.5C15.5745 12.5 16.1434 12.3868 16.6742 12.167C17.205 11.9471 17.6873 11.6248 18.0936 11.2186C18.4998 10.8123 18.8221 10.33 19.042 9.79924C19.2618 9.26844 19.375 8.69953 19.375 8.125ZM20.9375 24.0625C20.9375 24.3111 20.8387 24.5496 20.6629 24.7254C20.4871 24.9012 20.2486 25 20 25C19.7514 25 19.5129 24.9012 19.3371 24.7254C19.1613 24.5496 19.0625 24.3111 19.0625 24.0625C19.0625 23.8139 19.1613 23.5754 19.3371 23.3996C19.5129 23.2238 19.7514 23.125 20 23.125C20.2486 23.125 20.4871 23.2238 20.6629 23.3996C20.8387 23.5754 20.9375 23.8139 20.9375 24.0625Z" stroke="white" stroke-width="1.5" stroke-linecap="round" stroke-linejoin="round"/>
</svg>
