<svg width="88" height="100" viewBox="0 0 88 100" fill="none" xmlns="http://www.w3.org/2000/svg">
<path d="M87.0999 5.1803C87.0999 4.91617 87.0392 4.65557 86.9225 4.41861C86.8058 4.18165 86.6362 3.97468 86.4269 3.81366C86.2175 3.65264 85.9739 3.54188 85.7149 3.48994C85.456 3.43799 85.1885 3.44624 84.9333 3.51406C84.8057 3.54789 72.0819 6.90429 64.6879 6.90429C60.7809 6.90429 54.778 4.2209 50.3945 2.26179C46.8129 0.660632 45.1712 -0.0498696 44 0.00271225C42.8335 -0.0490076 41.1869 0.660632 37.6055 2.26179C33.2222 4.2209 27.2191 6.90429 23.3121 6.90429C15.9181 6.90429 3.19435 3.54789 3.06678 3.51406C2.8115 3.44624 2.54405 3.43799 2.28508 3.48994C2.02611 3.54188 1.78254 3.65264 1.57316 3.81366C1.36379 3.97468 1.19421 4.18165 1.07752 4.41861C0.960825 4.65557 0.900141 4.91617 0.900146 5.1803V50.3209C0.900146 57.8289 8.04007 68.4509 22.1217 81.8916C28.7564 88.1708 35.7138 94.1 42.9656 99.6552C43.264 99.879 43.627 100 44 100C44.373 100 44.736 99.879 45.0344 99.6552C45.1273 99.5856 53.705 93.132 62.9704 84.6133C63.0084 85.0545 63.2147 85.4641 63.5466 85.7573C63.8784 86.0505 64.3103 86.2048 64.7528 86.1881C65.1953 86.1715 65.6144 85.9853 65.9233 85.668C66.2322 85.3508 66.4071 84.9268 66.4119 84.484C66.4145 82.1987 67.3235 80.0076 68.9395 78.3916C70.5555 76.7756 72.7465 75.8666 75.0319 75.8641C75.4801 75.8549 75.907 75.6715 76.2222 75.3528C76.5374 75.0341 76.7161 74.6051 76.7204 74.1569C76.7247 73.7087 76.5542 73.2765 76.2452 72.9518C75.9361 72.6271 75.5128 72.4356 75.0649 72.4178C83.0513 63.3755 87.0999 55.9494 87.0999 50.3209V5.1803ZM64.6879 78.2734C63.6666 76.5802 62.2479 75.1615 60.5547 74.1401C62.2479 73.1187 63.6666 71.7 64.6879 70.0068C65.7093 71.7 67.128 73.1187 68.8212 74.1401C67.128 75.1615 65.7093 76.5802 64.6879 78.2734ZM76.7559 18.9679C75.8071 18.2532 75.0149 17.3514 74.4285 16.3184C75.1803 16.1973 75.9561 16.0639 76.7559 15.9182V18.9679ZM75.7172 22.4202C74.024 23.4416 72.6053 24.8603 71.5839 26.5535C70.5625 24.8603 69.1438 23.4416 67.4507 22.4202C69.1438 21.3989 70.5625 19.9802 71.5839 18.287C72.6053 19.9802 74.024 21.3989 75.7172 22.4202ZM61.24 20.6963C60.7827 20.6963 60.3442 20.8779 60.0209 21.2012C59.6976 21.5245 59.516 21.963 59.516 22.4202C59.516 22.8775 59.6976 23.316 60.0209 23.6393C60.3442 23.9626 60.7827 24.1442 61.24 24.1442C63.5253 24.1468 65.7164 25.0558 67.3324 26.6718C68.9484 28.2878 69.8574 30.4788 69.8599 32.7642C69.8599 33.2214 70.0416 33.66 70.3649 33.9833C70.6882 34.3066 71.1267 34.4882 71.5839 34.4882C72.0412 34.4882 72.4797 34.3066 72.803 33.9833C73.1263 33.66 73.3079 33.2214 73.3079 32.7642C73.308 31.4267 73.6197 30.1076 74.2181 28.9114C74.8166 27.7153 75.6855 26.675 76.7559 25.873V50.3209C76.7559 50.8211 76.5249 53.631 71.9608 59.8544C70.5131 61.8286 68.7648 63.956 66.7546 66.1963C66.5274 65.4165 66.4121 64.6084 66.4119 63.7961C66.4119 63.3389 66.2303 62.9004 65.907 62.5771C65.5837 62.2538 65.1452 62.0721 64.6879 62.0721C64.2307 62.0721 63.7922 62.2538 63.4689 62.5771C63.1456 62.9004 62.964 63.3389 62.964 63.7961C62.9614 66.0815 62.0524 68.2725 60.4364 69.8885C58.8204 71.5045 56.6293 72.4135 54.344 72.4161C53.8867 72.4161 53.4482 72.5977 53.1249 72.921C52.8016 73.2443 52.62 73.6828 52.62 74.1401C52.62 74.5973 52.8016 75.0358 53.1249 75.3591C53.4482 75.6824 53.8867 75.8641 54.344 75.8641C55.1787 75.864 56.009 75.9856 56.8086 76.225C52.0513 80.6482 47.4329 84.5306 44 87.3086C40.0506 84.1078 34.5767 79.4875 29.1767 74.3267C23.5571 68.9562 19.1269 64.0737 16.0097 59.8148C11.4738 53.6172 11.2441 50.819 11.2441 50.3209V15.9178C16.0928 16.8011 20.1442 17.2483 23.3121 17.2483C29.423 17.2483 36.2953 14.1772 41.8302 11.7037C42.5385 11.3865 43.3188 11.038 44 10.7445C44.6275 11.0152 45.3329 11.3296 45.9755 11.616L46.1733 11.7041C51.6983 14.1742 58.5742 17.2483 64.6879 17.2483C65.7629 17.2483 66.955 17.1937 68.2456 17.0894C67.4491 18.2046 66.3979 19.1136 65.1794 19.7409C63.961 20.3682 62.6104 20.6957 61.24 20.6963ZM83.6519 22.4202V50.3209C83.6519 55.2929 79.3615 62.6128 71.2305 71.5302C70.1863 71.0138 69.2569 70.2922 68.4978 69.4086C70.7119 67.0171 72.7961 64.5085 74.7412 61.8935C79.4943 55.4132 80.2039 51.8609 80.2039 50.3209V24.3177C80.7713 24.2022 81.3489 24.1441 81.9279 24.1442C82.3851 24.1442 82.8236 23.9626 83.1469 23.6393C83.4703 23.316 83.6519 22.8775 83.6519 22.4202C83.6519 21.963 83.4703 21.5245 83.1469 21.2012C82.8236 20.8779 82.3851 20.6963 81.9279 20.6963C81.3489 20.6964 80.7713 20.6383 80.2039 20.5228V13.8348C80.2039 13.58 80.1474 13.3283 80.0385 13.098C79.9296 12.8676 79.771 12.6643 79.574 12.5025C79.3771 12.3408 79.1468 12.2248 78.8997 12.1627C78.6526 12.1007 78.3947 12.0942 78.1448 12.1437C76.4529 12.4788 74.85 12.7639 73.3575 12.9965C73.3247 12.6908 73.3082 12.3837 73.3079 12.0763C73.3079 11.619 73.1263 11.1805 72.803 10.8572C72.4797 10.5339 72.0412 10.3523 71.5839 10.3523C71.1267 10.3523 70.6882 10.5339 70.3649 10.8572C70.0416 11.1805 69.8599 11.619 69.8599 12.0763C69.8596 12.5473 69.8206 13.0175 69.7433 13.4822C68.0652 13.6791 66.3776 13.7853 64.6879 13.8003C59.3099 13.8003 52.8062 10.8928 47.5784 8.55567L47.3795 8.46688C46.4785 8.06519 45.4576 7.61005 44.6607 7.27948C44.4513 7.19255 44.2267 7.1478 43.9999 7.1478C43.7731 7.1478 43.5485 7.19255 43.3391 7.27948C42.5025 7.62686 41.394 8.121 40.4104 8.56148C35.1876 10.8956 28.6877 13.8003 23.3121 13.8003C19.9311 13.8003 15.4033 13.243 9.85522 12.1437C9.60528 12.0942 9.34746 12.1007 9.10033 12.1627C8.8532 12.2248 8.62289 12.3408 8.42598 12.5025C8.22907 12.6643 8.07045 12.8676 7.96154 13.098C7.85263 13.3283 7.79614 13.58 7.79612 13.8348V50.3209C7.79612 51.8557 8.50167 55.3944 13.2278 61.8515C16.4648 66.2733 21.0289 71.3093 26.7952 76.8196C32.794 82.5536 38.8765 87.6237 42.9225 90.8674C43.2283 91.1122 43.6083 91.2456 44 91.2456C44.3917 91.2456 44.7717 91.1122 45.0775 90.8674C48.8134 87.8764 54.3416 83.2794 59.9858 77.9742C60.8672 78.7377 61.5855 79.6711 62.0976 80.7186C54.303 88.0202 46.7028 94.0177 44.0009 96.1053C41.1382 93.8945 32.7794 87.2967 24.5034 79.3972C11.3174 66.8131 4.34814 56.7579 4.34814 50.3209V7.39218C8.42107 8.38003 17.3035 10.3523 23.3121 10.3523C27.9546 10.3523 34.3456 7.49541 39.0125 5.40937C40.8787 4.57539 43.1932 3.54121 43.8636 3.45092C43.9544 3.45803 44.0456 3.45803 44.1364 3.45092C44.8077 3.54121 47.1213 4.57539 48.9875 5.40937C53.6544 7.49541 60.0454 10.3523 64.6879 10.3523C70.6967 10.3523 79.5789 8.38003 83.6519 7.39218V22.4202Z" fill="#B3658C"/>
<path d="M42.7817 21.2013C42.0572 21.926 25.0369 39.1112 25.0369 53.4522C25.0369 58.4818 27.0348 63.3054 30.5913 66.8618C34.1477 70.4182 38.9713 72.4162 44.0008 72.4162C49.0304 72.4162 53.8539 70.4182 57.4103 66.8618C60.9668 63.3054 62.9647 58.4818 62.9647 53.4522C62.9647 39.1112 45.9446 21.926 45.2199 21.2013C45.0598 21.0412 44.8697 20.9142 44.6606 20.8275C44.4514 20.7409 44.2272 20.6963 44.0008 20.6963C43.7744 20.6963 43.5502 20.7409 43.341 20.8275C43.1319 20.9142 42.9418 21.0412 42.7817 21.2013ZM44.0008 68.9682C39.8871 68.9636 35.9433 67.3274 33.0345 64.4186C30.1257 61.5098 28.4895 57.5659 28.4849 53.4522C28.4849 42.6189 40.147 29.0961 44.0008 24.9234C47.8561 29.0937 59.5168 42.6064 59.5168 53.4522C59.5121 57.5659 57.8759 61.5098 54.9671 64.4186C52.0583 67.3274 48.1145 68.9636 44.0008 68.9682Z" fill="#B3658C"/>
<path d="M38.8271 39.66V44.832H33.6551C33.1979 44.832 32.7594 45.0136 32.4361 45.337C32.1128 45.6603 31.9312 46.0988 31.9312 46.556V53.452C31.9312 53.9092 32.1128 54.3477 32.4361 54.671C32.7594 54.9944 33.1979 55.176 33.6551 55.176H38.8271V60.348C38.8271 60.8052 39.0088 61.2437 39.3321 61.567C39.6554 61.8903 40.0939 62.072 40.5511 62.072H47.4471C47.9043 62.072 48.3428 61.8903 48.6662 61.567C48.9895 61.2437 49.1711 60.8052 49.1711 60.348V55.176H54.3431C54.8003 55.176 55.2388 54.9944 55.5621 54.671C55.8854 54.3477 56.0671 53.9092 56.0671 53.452V46.556C56.0671 46.0988 55.8854 45.6603 55.5621 45.337C55.2388 45.0136 54.8003 44.832 54.3431 44.832H49.1711V39.66C49.1711 39.2028 48.9895 38.7643 48.6662 38.441C48.3428 38.1177 47.9043 37.936 47.4471 37.936H40.5511C40.0939 37.936 39.6554 38.1177 39.3321 38.441C39.0088 38.7643 38.8271 39.2028 38.8271 39.66ZM42.2751 46.556V41.384H45.7231V46.556C45.7231 47.0132 45.9047 47.4517 46.2281 47.7751C46.5514 48.0984 46.9899 48.28 47.4471 48.28H52.6191V51.728H47.4471C46.9899 51.728 46.5514 51.9096 46.2281 52.2329C45.9047 52.5563 45.7231 52.9948 45.7231 53.452V58.624H42.2751V53.452C42.2751 52.9948 42.0935 52.5563 41.7702 52.2329C41.4469 51.9096 41.0084 51.728 40.5511 51.728H35.3791V48.28H40.5511C41.0084 48.28 41.4469 48.0984 41.7702 47.7751C42.0935 47.4517 42.2751 47.0132 42.2751 46.556Z" fill="#B3658C"/>
<path d="M30.2074 31.0403C30.6646 31.0403 31.1031 30.8586 31.4264 30.5353C31.7497 30.212 31.9314 29.7735 31.9314 29.3163C31.9314 28.859 31.7497 28.4205 31.4264 28.0972C31.1031 27.7739 30.6646 27.5923 30.2074 27.5923C28.8362 27.5907 27.5216 27.0453 26.552 26.0757C25.5824 25.1061 25.037 23.7915 25.0354 22.4203C25.0354 21.9631 24.8537 21.5245 24.5304 21.2012C24.2071 20.8779 23.7686 20.6963 23.3114 20.6963C22.8541 20.6963 22.4156 20.8779 22.0923 21.2012C21.769 21.5245 21.5874 21.9631 21.5874 22.4203C21.5858 23.7915 21.0404 25.1061 20.0708 26.0757C19.1012 27.0453 17.7866 27.5907 16.4154 27.5923C15.9582 27.5923 15.5197 27.7739 15.1964 28.0972C14.873 28.4205 14.6914 28.859 14.6914 29.3163C14.6914 29.7735 14.873 30.212 15.1964 30.5353C15.5197 30.8586 15.9582 31.0403 16.4154 31.0403C17.7866 31.0419 19.1012 31.5873 20.0708 32.5569C21.0404 33.5265 21.5858 34.841 21.5874 36.2122C21.5874 36.6695 21.769 37.108 22.0923 37.4313C22.4156 37.7546 22.8541 37.9362 23.3114 37.9362C23.7686 37.9362 24.2071 37.7546 24.5304 37.4313C24.8537 37.108 25.0354 36.6695 25.0354 36.2122C25.037 34.841 25.5824 33.5265 26.552 32.5569C27.5216 31.5873 28.8362 31.0419 30.2074 31.0403ZM23.3114 31.0456C22.8194 30.3905 22.2371 29.8083 21.582 29.3163C22.2371 28.8243 22.8194 28.242 23.3114 27.5869C23.8034 28.242 24.3856 28.8243 25.0408 29.3163C24.3856 29.8083 23.8034 30.3905 23.3114 31.0456Z" fill="#B3658C"/>
</svg>
