<svg width="30" height="30" viewBox="0 0 30 30" fill="none" xmlns="http://www.w3.org/2000/svg">
<path d="M4.6875 5.625V18.3403L2.54906 20.5097C2.12049 20.9361 1.87815 21.5148 1.875 22.1194C1.87844 22.7165 2.1172 23.2883 2.53946 23.7105C2.96173 24.1328 3.53346 24.3716 4.13063 24.375H25.8694C26.4665 24.3716 27.0383 24.1328 27.4605 23.7105C27.8828 23.2883 28.1216 22.7165 28.125 22.1194C28.1213 21.5144 27.8791 20.9353 27.4509 20.5078L25.3125 18.3394V5.625H4.6875ZM6.5625 7.5H23.4375V17.8125H6.5625V7.5ZM14.0625 9.375V12.1875H11.25V14.0625H14.0625V16.875H15.9375V14.0625H18.75V12.1875H15.9375V9.375H14.0625ZM6.03469 19.6875H23.9644L26.1328 21.8259C26.2076 21.9054 26.2495 22.0103 26.25 22.1194C26.2527 22.1701 26.2447 22.2208 26.2265 22.2682C26.2084 22.3156 26.1804 22.3586 26.1445 22.3945C26.1086 22.4304 26.0656 22.4584 26.0182 22.4765C25.9708 22.4947 25.9201 22.5027 25.8694 22.5H4.13063C4.07993 22.5027 4.02923 22.4947 3.98183 22.4765C3.93443 22.4584 3.89138 22.4304 3.85548 22.3945C3.81958 22.3586 3.79164 22.3156 3.77346 22.2682C3.75529 22.2208 3.7473 22.1701 3.75 22.1194C3.75 22.0163 3.79406 21.9 3.86719 21.8259L6.03469 19.6875Z" fill="white"/>
</svg>
