<svg width="74" height="100" viewBox="0 0 74 100" fill="none" xmlns="http://www.w3.org/2000/svg">
<path d="M71.4829 6.89655H50.7932V1.72414C50.7932 1.26687 50.6116 0.828327 50.2882 0.504988C49.9649 0.18165 49.5263 0 49.0691 0H24.9311C24.4739 0 24.0353 0.18165 23.712 0.504988C23.3887 0.828327 23.207 1.26687 23.207 1.72414V6.89655H2.51735C2.06008 6.89655 1.62154 7.0782 1.2982 7.40154C0.974863 7.72488 0.793213 8.16342 0.793213 8.62069V98.2759C0.793213 98.7331 0.974863 99.1717 1.2982 99.495C1.62154 99.8184 2.06008 100 2.51735 100H71.4829C71.9401 100 72.3787 99.8184 72.702 99.495C73.0254 99.1717 73.207 98.7331 73.207 98.2759V8.62069C73.207 8.16342 73.0254 7.72488 72.702 7.40154C72.3787 7.0782 71.9401 6.89655 71.4829 6.89655ZM14.5863 58.6207H20.1036C20.4392 58.6208 20.7675 58.5231 21.0484 58.3393C21.3292 58.1555 21.5503 57.8938 21.6846 57.5862L25.5036 48.8379L28.0484 69.3207C28.0991 69.7283 28.2937 70.1045 28.5972 70.3814C28.9006 70.6583 29.293 70.8177 29.7036 70.831C30.1151 70.8499 30.5194 70.7185 30.8411 70.4612C31.1628 70.2039 31.3798 69.8383 31.4518 69.4328L37.1053 39.7638L39.8398 52.431C39.921 52.8064 40.1252 53.144 40.4201 53.3901C40.7149 53.6362 41.0835 53.7768 41.4674 53.7897C41.8522 53.8105 42.2326 53.6986 42.5449 53.4726C42.8571 53.2467 43.0823 52.9204 43.1829 52.5483L45.0639 46.0345L49.3311 69.5655C49.4021 69.9559 49.6054 70.3098 49.9069 70.5677C50.2085 70.8256 50.5897 70.9715 50.9863 70.981H51.0294C51.4192 70.9809 51.7973 70.8487 52.1023 70.6061C52.4073 70.3634 52.621 70.0246 52.7087 69.6448L55.276 58.6207H59.4139V82.7586H14.5863V58.6207ZM59.4139 55.1724H53.8967C53.5069 55.1721 53.1285 55.3038 52.8232 55.5462C52.5179 55.7885 52.3037 56.1272 52.2156 56.5069L51.2346 60.7414L47.1467 38.1948C47.0784 37.8111 46.8822 37.4618 46.59 37.2039C46.2978 36.946 45.9268 36.7947 45.5376 36.7747C45.1484 36.7547 44.7639 36.8672 44.4468 37.0938C44.1297 37.3204 43.8987 37.6477 43.7915 38.0224L41.7691 45.0207L38.6863 30.7414C38.5919 30.358 38.3733 30.0166 38.0645 29.7705C37.7558 29.5244 37.3742 29.3875 36.9794 29.381C36.582 29.3859 36.1985 29.5279 35.8937 29.783C35.589 30.0381 35.3817 30.3907 35.307 30.781L30.1174 58.0103L28.1501 42.1724C28.1037 41.7973 27.9353 41.4479 27.6709 41.1779C27.4065 40.9079 27.0606 40.7322 26.6866 40.678C26.3126 40.6237 25.9311 40.6938 25.6009 40.8776C25.2706 41.0613 25.0098 41.3484 24.8587 41.6948L18.976 55.1724H14.5863V17.2414H59.4139V55.1724ZM26.6553 3.44828H47.3449V13.7931H26.6553V3.44828ZM69.7587 96.5517H4.24149V10.3448H23.207V13.7931H12.8622C12.4049 13.7931 11.9664 13.9748 11.643 14.2981C11.3197 14.6214 11.138 15.06 11.138 15.5172V84.4828C11.138 84.94 11.3197 85.3786 11.643 85.7019C11.9664 86.0252 12.4049 86.2069 12.8622 86.2069H61.138C61.5953 86.2069 62.0339 86.0252 62.3572 85.7019C62.6805 85.3786 62.8622 84.94 62.8622 84.4828V15.5172C62.8622 15.06 62.6805 14.6214 62.3572 14.2981C62.0339 13.9748 61.5953 13.7931 61.138 13.7931H50.7932V10.3448H69.7587V96.5517Z" fill="#B3658C"/>
</svg>
