<svg width="30" height="30" viewBox="0 0 30 30" fill="none" xmlns="http://www.w3.org/2000/svg">
<path d="M15 2.5C16.9405 2.49993 18.8055 3.25196 20.2031 4.59808C21.6007 5.94421 22.4222 7.77964 22.495 9.71875L22.5 10H23.75C24.3807 9.9998 24.9882 10.238 25.4507 10.6669C25.9132 11.0957 26.1964 11.6836 26.2438 12.3125L26.25 12.5V25C26.2502 25.6307 26.012 26.2382 25.5831 26.7007C25.1543 27.1632 24.5664 27.4464 23.9375 27.4938L23.75 27.5H6.25C5.61928 27.5002 5.01179 27.262 4.54932 26.8331C4.08684 26.4043 3.80355 25.8164 3.75625 25.1875L3.75 25V12.5C3.7498 11.8693 3.98801 11.2618 4.41687 10.7993C4.84573 10.3368 5.43356 10.0536 6.0625 10.0063L6.25 10H7.5C7.5 8.01088 8.29018 6.10322 9.6967 4.6967C11.1032 3.29018 13.0109 2.5 15 2.5ZM23.75 12.5H6.25V25H23.75V12.5ZM15 15C15.5332 15.0002 16.0525 15.1708 16.4818 15.4871C16.9111 15.8033 17.2281 16.2485 17.3865 16.7577C17.5448 17.2669 17.5362 17.8134 17.3618 18.3173C17.1875 18.8212 16.8566 19.2562 16.4175 19.5588L16.25 19.665V21.25C16.2496 21.5686 16.1277 21.875 15.9089 22.1067C15.6902 22.3384 15.3913 22.4778 15.0733 22.4965C14.7552 22.5151 14.442 22.4117 14.1977 22.2072C13.9534 22.0027 13.7964 21.7126 13.7587 21.3963L13.75 21.25V19.665C13.2734 19.3898 12.901 18.9651 12.6904 18.4566C12.4798 17.9482 12.4429 17.3845 12.5853 16.8529C12.7277 16.3214 13.0416 15.8517 13.4782 15.5166C13.9148 15.1816 14.4497 15 15 15ZM15 5C13.6739 5 12.4021 5.52678 11.4645 6.46447C10.5268 7.40215 10 8.67392 10 10H20C20 8.67392 19.4732 7.40215 18.5355 6.46447C17.5979 5.52678 16.3261 5 15 5Z" fill="white"/>
</svg>
