<svg width="299" height="311" viewBox="0 0 299 311" fill="none" xmlns="http://www.w3.org/2000/svg">
<path d="M223.43 137.584C204.361 137.584 188.061 148.51 181.323 163.905C173.078 157.674 162.434 154.18 149.516 154.18C136.584 154.18 125.922 157.674 117.676 163.934C110.955 148.507 94.654 137.582 75.5693 137.582C50.5117 137.582 30.1275 156.387 30.1275 179.503C30.1275 202.635 50.5117 221.415 75.5693 221.415C80.0574 221.415 83.7052 217.793 83.7052 213.281C83.7052 212.773 83.4913 212.329 83.3947 211.818C84.3732 210.231 85.0725 208.514 85.0725 206.513C85.0725 200.744 80.3992 196.091 74.6404 196.091C70.0009 196.091 66.1783 199.139 64.8136 203.272C54.0239 199.52 46.3655 190.275 46.3655 179.47C46.3655 165.329 59.4592 153.809 75.538 153.809C91.6089 153.809 104.71 165.329 104.71 179.47C104.71 179.631 104.791 179.819 104.807 179.931C101.097 187.718 98.9673 196.903 98.9673 207.708C98.9673 238.704 131.135 268.754 141.351 277.555V302.166C141.351 306.665 144.996 310.302 149.487 310.302C153.975 310.302 157.62 306.662 157.62 302.166V277.586C167.854 268.785 199.996 238.707 199.996 207.71C199.996 196.905 197.851 187.705 194.164 179.934C194.182 179.775 194.261 179.6 194.261 179.472C194.261 165.332 207.367 153.812 223.433 153.812C239.512 153.812 252.606 165.332 252.606 179.472C252.606 190.277 244.945 199.478 234.16 203.275C232.793 199.11 229.009 196.094 224.372 196.094C218.603 196.094 213.901 200.73 213.901 206.515C213.901 208.519 214.6 210.234 215.568 211.82C215.49 212.329 215.268 212.773 215.268 213.284C215.268 217.796 218.922 221.417 223.402 221.417C248.459 221.417 268.844 202.638 268.844 179.506C268.872 156.406 248.488 137.584 223.43 137.584ZM149.5 263.159C136.725 251.72 115.268 228.22 115.268 207.771C115.268 176.918 133.899 170.465 149.5 170.465C165.101 170.465 183.74 176.899 183.74 207.771C183.742 228.126 162.275 251.691 149.5 263.159ZM28.0635 258.856C29.6057 263.083 27.4269 267.752 23.2102 269.328C22.2734 269.662 21.3419 269.789 20.4129 269.789C17.0912 269.789 13.9705 267.754 12.7545 264.451C-2.20486 223.489 -10.1086 189.278 24.4 121.808C63.4463 45.511 32.502 15.3861 31.1687 14.1466C27.9122 11.1198 27.6565 5.97937 30.6781 2.70725C33.658 -0.630099 38.7175 -0.914517 42.0392 2.04187C43.764 3.60748 84.1279 40.9107 38.9184 129.214C7.29576 190.945 14.0801 220.627 28.0635 258.856ZM286.24 264.448C285.032 267.752 281.903 269.787 278.582 269.787C277.645 269.787 276.721 269.625 275.784 269.325C271.56 267.749 269.381 263.081 270.923 258.854C284.891 220.627 291.673 190.945 260.071 129.208C214.869 40.8898 255.194 3.58399 256.942 2.03665C260.277 -0.919736 265.428 -0.632708 268.429 2.73596C271.401 6.07331 271.114 11.1641 267.826 14.1753C266.318 15.5426 235.619 45.7223 274.579 121.806C309.134 189.278 301.189 223.487 286.24 264.448Z" fill="#B3658C"/>
</svg>
