<svg width="100" height="101" viewBox="0 0 100 101" fill="none" xmlns="http://www.w3.org/2000/svg">
<path d="M93.7495 72.0908C94.3772 72.0908 94.8859 71.5822 94.8859 70.9544V30.0452C94.8859 26.2857 91.8273 23.2271 88.0677 23.2271C84.3082 23.2271 81.2496 26.2857 81.2496 30.0452V44.818H74.1474C68.6647 44.818 64.2042 49.2785 64.2042 54.7612V55.0453H7.38636C6.75863 55.0453 6.25 55.5539 6.25 56.1817V70.9544C6.25 71.5822 6.75863 72.0908 7.38636 72.0908H16.4772V72.9431C16.4772 75.6063 18.6436 77.7726 21.3067 77.7726H24.4317V81.1817C24.4317 81.8095 24.9404 82.3181 25.5681 82.3181H27.8408V86.9601C24.6206 87.5029 22.159 90.3095 22.159 93.6818C22.159 95.4268 22.8185 97.0202 23.9006 98.2272H13.0681C12.4404 98.2272 11.9318 98.7359 11.9318 99.3636C11.9318 99.9913 12.4404 100.5 13.0681 100.5H86.9314C87.5591 100.5 88.0677 99.9913 88.0677 99.3636C88.0677 98.7359 87.5591 98.2272 86.9314 98.2272H81.7807C82.8628 97.0202 83.5223 95.4268 83.5223 93.6818C83.5223 90.3095 81.0607 87.5026 77.8405 86.9601V82.3181H80.1132C80.741 82.3181 81.2496 81.8095 81.2496 81.1817V77.7726H85.5109C88.1741 77.7726 90.3404 75.6063 90.3404 72.9431V72.0908H93.7495ZM83.5223 30.0452C83.5223 27.5389 85.5614 25.4998 88.0677 25.4998C90.5741 25.4998 92.6132 27.5389 92.6132 30.0452V69.8181C89.4618 69.8181 86.6714 69.8181 83.5223 69.8181C83.5223 61.5351 83.5223 37.7489 83.5223 30.0452ZM66.4769 54.7612C66.4769 50.5319 69.9181 47.0907 74.1474 47.0907H81.2496V55.0453H66.4769V54.7612ZM81.2496 57.318V60.7271H8.52271V57.318C10.1568 57.318 79.7205 57.318 81.2496 57.318ZM8.52271 62.9999H81.2496V69.8181C78.9803 69.8181 12.3163 69.8181 8.52271 69.8181V62.9999ZM26.7044 77.7726H31.2499V80.0454H26.7044V77.7726ZM24.4317 93.6818C24.4317 91.1754 26.4708 89.1363 28.9771 89.1363C31.4835 89.1363 33.5226 91.1754 33.5226 93.6818C33.5226 96.1881 31.4835 98.2272 28.9771 98.2272C26.4708 98.2272 24.4317 96.1881 24.4317 93.6818ZM81.2496 93.6818C81.2496 96.1881 79.2105 98.2272 76.7042 98.2272C74.1978 98.2272 72.1587 96.1881 72.1587 93.6818C72.1587 91.1754 74.1978 89.1363 76.7042 89.1363C79.2105 89.1363 81.2496 91.1754 81.2496 93.6818ZM75.5678 86.9601C72.3476 87.5029 69.886 90.3095 69.886 93.6818C69.886 95.4268 70.5456 97.0202 71.6276 98.2272H34.0537C35.1358 97.0202 35.7953 95.4268 35.7953 93.6818C35.7953 90.3095 33.3337 87.5026 30.1135 86.9601V82.3181H32.3862C33.0139 82.3181 33.5226 81.8095 33.5226 81.1817V77.7726H72.1587V81.1817C72.1587 81.8095 72.6674 82.3181 73.2951 82.3181H75.5678V86.9601ZM78.9769 80.0454H74.4314V77.7726H78.9769V80.0454ZM88.0677 72.9431C88.0677 74.3528 86.9207 75.4999 85.5109 75.4999C78.3348 75.4999 29.3494 75.4999 21.3067 75.4999C19.897 75.4999 18.7499 74.3528 18.7499 72.9431V72.0908C22.8442 72.0908 84.0914 72.0908 88.0677 72.0908V72.9431Z" fill="#B3658C"/>
<path d="M97.7275 11.8637C98.6689 11.8637 99.432 11.1005 99.432 10.1591C99.432 9.21774 98.6689 8.45459 97.7275 8.45459C96.7861 8.45459 96.0229 9.21774 96.0229 10.1591C96.0229 11.1005 96.7861 11.8637 97.7275 11.8637Z" fill="#B3658C"/>
<path d="M57.9545 7.31852C58.8959 7.31852 59.6591 6.55537 59.6591 5.61397C59.6591 4.67258 58.8959 3.90942 57.9545 3.90942C57.0131 3.90942 56.25 4.67258 56.25 5.61397C56.25 6.55537 57.0131 7.31852 57.9545 7.31852Z" fill="#B3658C"/>
<path d="M69.3173 28.9091C70.2587 28.9091 71.0219 28.1459 71.0219 27.2045C71.0219 26.2632 70.2587 25.5 69.3173 25.5C68.3759 25.5 67.6128 26.2632 67.6128 27.2045C67.6128 28.1459 68.3759 28.9091 69.3173 28.9091Z" fill="#B3658C"/>
<path d="M51.1357 43.6823C52.0771 43.6823 52.8402 42.9191 52.8402 41.9777C52.8402 41.0363 52.0771 40.2732 51.1357 40.2732C50.1943 40.2732 49.4312 41.0363 49.4312 41.9777C49.4312 42.9191 50.1943 43.6823 51.1357 43.6823Z" fill="#B3658C"/>
<path d="M94.3173 86.8639C95.2587 86.8639 96.0219 86.1008 96.0219 85.1594C96.0219 84.218 95.2587 83.4548 94.3173 83.4548C93.3759 83.4548 92.6128 84.218 92.6128 85.1594C92.6128 86.1008 93.3759 86.8639 94.3173 86.8639Z" fill="#B3658C"/>
<path d="M11.5909 34.591H15.3409V38.1144C12.7504 38.6424 10.7954 40.938 10.7954 43.6819C10.7954 46.8149 13.3443 49.3637 16.4772 49.3637C19.6102 49.3637 22.159 46.8149 22.159 43.6819C22.159 40.938 20.2038 38.6424 17.6136 38.1144V34.591H35.7953V38.1144C33.2049 38.6424 31.2499 40.938 31.2499 43.6819C31.2499 46.8149 33.7987 49.3637 36.9317 49.3637C40.0646 49.3637 42.6134 46.8149 42.6134 43.6819C42.6134 40.938 40.6582 38.6424 38.068 38.1144V34.591H44.0907C47.0357 34.591 49.4316 32.1951 49.4316 29.2501V5.84092C49.4316 2.89591 47.0357 0.5 44.0907 0.5H11.5909C8.6459 0.5 6.25 2.89591 6.25 5.84092V29.2501C6.25 32.1951 8.6459 34.591 11.5909 34.591ZM19.8863 43.6819C19.8863 45.5617 18.357 47.091 16.4772 47.091C14.5972 47.091 13.0681 45.5617 13.0681 43.6819C13.0681 41.8021 14.5972 40.2728 16.4772 40.2728C18.357 40.2728 19.8863 41.8021 19.8863 43.6819ZM40.3407 43.6819C40.3407 45.5617 38.8114 47.091 36.9317 47.091C35.0517 47.091 33.5226 45.5617 33.5226 43.6819C33.5226 41.8021 35.0517 40.2728 36.9317 40.2728C38.8114 40.2728 40.3407 41.8021 40.3407 43.6819ZM11.5909 2.77273H44.0907C45.7825 2.77273 47.1589 4.1491 47.1589 5.84092V29.2501C47.1589 30.9419 45.7825 32.3183 44.0907 32.3183H11.5909C9.89907 32.3183 8.52272 30.9419 8.52272 29.2501V19.8182H17.6136C17.9588 19.8182 18.2852 19.6614 18.5008 19.3916L19.5888 18.0316L22.2508 24.243C22.4117 24.6187 22.7622 24.8789 23.1683 24.9246C23.211 24.9294 23.2533 24.9316 23.2956 24.9316C23.6565 24.9316 23.9992 24.7596 24.2145 24.4637L28.4194 18.6819H31.2499C31.8776 18.6819 32.3862 18.173 32.3862 17.5455C32.3862 16.918 31.8776 16.4091 31.2499 16.4091H27.8408C27.4772 16.4091 27.1356 16.5832 26.9217 16.8771L23.5524 21.5103L20.9308 15.3934C20.7736 15.0264 20.4349 14.7687 20.0392 14.715C19.6427 14.6621 19.2486 14.8193 18.999 15.1312L17.0674 17.5455H8.52272V5.84092C8.52272 4.1491 9.89907 2.77273 11.5909 2.77273Z" fill="#B3658C"/>
<path d="M40.9084 30.0454C43.1013 30.0454 44.8857 28.2611 44.8857 26.0681C44.8857 23.8751 43.1013 22.0908 40.9084 22.0908C38.7155 22.0908 36.9312 23.8751 36.9312 26.0681C36.9312 28.2611 38.7155 30.0454 40.9084 30.0454ZM40.9084 24.3636C41.8484 24.3636 42.6129 25.1281 42.6129 26.0681C42.6129 27.0081 41.8484 27.7727 40.9084 27.7727C39.9684 27.7727 39.2039 27.0081 39.2039 26.0681C39.2039 25.1281 39.9684 24.3636 40.9084 24.3636Z" fill="#B3658C"/>
<path d="M40.9084 19.8183C43.1013 19.8183 44.8857 18.034 44.8857 15.8411C44.8857 13.6481 43.1013 11.8638 40.9084 11.8638C38.7155 11.8638 36.9312 13.6481 36.9312 15.8411C36.9312 18.034 38.7155 19.8183 40.9084 19.8183ZM40.9084 14.1365C41.8484 14.1365 42.6129 14.901 42.6129 15.8411C42.6129 16.7811 41.8484 17.5456 40.9084 17.5456C39.9684 17.5456 39.2039 16.7811 39.2039 15.8411C39.2039 14.901 39.9684 14.1365 40.9084 14.1365Z" fill="#B3658C"/>
<path d="M6.2499 78.9094C3.11697 78.9094 0.568115 81.4583 0.568115 84.5913C0.568115 87.7242 3.11697 90.2731 6.2499 90.2731C9.38284 90.2731 11.9317 87.7242 11.9317 84.5913C11.9317 81.4583 9.38284 78.9094 6.2499 78.9094ZM6.2499 88.0004C4.36991 88.0004 2.84083 86.4713 2.84083 84.5913C2.84083 82.7113 4.36991 81.1822 6.2499 81.1822C8.12967 81.1822 9.65898 82.7113 9.65898 84.5913C9.65898 86.4713 8.12967 88.0004 6.2499 88.0004Z" fill="#B3658C"/>
<path d="M77.8407 17.5454C82.2268 17.5454 85.7952 13.9769 85.7952 9.59079C85.7952 5.20465 82.2268 1.63623 77.8407 1.63623C73.4546 1.63623 69.8862 5.20465 69.8862 9.59079C69.8862 13.9769 73.4546 17.5454 77.8407 17.5454ZM77.8407 3.90896C80.9737 3.90896 83.5225 6.45783 83.5225 9.59079C83.5225 12.7238 80.9737 15.2726 77.8407 15.2726C74.7078 15.2726 72.1589 12.7238 72.1589 9.59079C72.1589 6.45783 74.7078 3.90896 77.8407 3.90896Z" fill="#B3658C"/>
</svg>
