<svg width="28" height="30" viewBox="0 0 28 30" fill="none" xmlns="http://www.w3.org/2000/svg">
<path d="M13.9999 13.125C12.7622 13.125 11.5753 12.6311 10.7001 11.7521C9.82492 10.873 9.33325 9.6807 9.33325 8.4375C9.33325 7.1943 9.82492 6.00201 10.7001 5.12294C11.5753 4.24386 12.7622 3.75 13.9999 3.75C15.2376 3.75 16.4246 4.24386 17.2997 5.12294C18.1749 6.00201 18.6666 7.1943 18.6666 8.4375C18.6666 9.6807 18.1749 10.873 17.2997 11.7521C16.4246 12.6311 15.2376 13.125 13.9999 13.125ZM13.9999 5.625C12.4506 5.625 11.1999 6.88125 11.1999 8.4375C11.1999 9.99375 12.4506 11.25 13.9999 11.25C15.5493 11.25 16.7999 9.99375 16.7999 8.4375C16.7999 6.88125 15.5493 5.625 13.9999 5.625Z" fill="#B3658C"/>
<path d="M25.2 20.625C24.6773 20.625 24.2667 20.2125 24.2667 19.6875C24.2667 19.1625 24.6773 18.75 25.2 18.75C25.7227 18.75 26.1333 18.3375 26.1333 17.8125C26.1333 16.5693 25.6417 15.377 24.7665 14.4979C23.8913 13.6189 22.7043 13.125 21.4667 13.125H19.6C19.0773 13.125 18.6667 12.7125 18.6667 12.1875C18.6667 11.6625 19.0773 11.25 19.6 11.25C21.1493 11.25 22.4 9.99375 22.4 8.4375C22.4 6.88125 21.1493 5.625 19.6 5.625C19.0773 5.625 18.6667 5.2125 18.6667 4.6875C18.6667 4.1625 19.0773 3.75 19.6 3.75C20.8377 3.75 22.0247 4.24386 22.8998 5.12294C23.775 6.00201 24.2667 7.1943 24.2667 8.4375C24.2667 9.6 23.856 10.65 23.1467 11.475C25.928 12.225 28 14.775 28 17.8125C28 19.3687 26.7493 20.625 25.2 20.625ZM2.8 20.625C1.25067 20.625 0 19.3687 0 17.8125C0 14.775 2.05333 12.225 4.85333 11.475C4.16267 10.65 3.73333 9.6 3.73333 8.4375C3.73333 7.1943 4.225 6.00201 5.10017 5.12294C5.97534 4.24386 7.16232 3.75 8.4 3.75C8.92267 3.75 9.33333 4.1625 9.33333 4.6875C9.33333 5.2125 8.92267 5.625 8.4 5.625C6.85067 5.625 5.6 6.88125 5.6 8.4375C5.6 9.99375 6.85067 11.25 8.4 11.25C8.92267 11.25 9.33333 11.6625 9.33333 12.1875C9.33333 12.7125 8.92267 13.125 8.4 13.125H6.53333C5.29566 13.125 4.10867 13.6189 3.2335 14.4979C2.35833 15.377 1.86667 16.5693 1.86667 17.8125C1.86667 18.3375 2.27733 18.75 2.8 18.75C3.32267 18.75 3.73333 19.1625 3.73333 19.6875C3.73333 20.2125 3.32267 20.625 2.8 20.625ZM19.6 26.25H8.4C6.85067 26.25 5.6 24.9937 5.6 23.4375V21.5625C5.6 17.9438 8.53067 15 12.1333 15H15.8667C19.4693 15 22.4 17.9438 22.4 21.5625V23.4375C22.4 24.9937 21.1493 26.25 19.6 26.25ZM12.1333 16.875C10.8957 16.875 9.70867 17.3689 8.8335 18.2479C7.95833 19.127 7.46667 20.3193 7.46667 21.5625V23.4375C7.46667 23.9625 7.87733 24.375 8.4 24.375H19.6C20.1227 24.375 20.5333 23.9625 20.5333 23.4375V21.5625C20.5333 20.3193 20.0417 19.127 19.1665 18.2479C18.2913 17.3689 17.1043 16.875 15.8667 16.875H12.1333Z" fill="#B3658C"/>
</svg>
