<svg width="80" height="100" viewBox="0 0 80 100" fill="none" xmlns="http://www.w3.org/2000/svg">
<path d="M70 99.9999H10C7.34784 99.9999 4.8043 98.9464 2.92893 97.071C1.05357 95.1956 0 92.6521 0 89.9999V53.3333C0 50.6811 1.05357 48.1375 2.92893 46.2622C4.8043 44.3868 7.34784 43.3333 10 43.3333H70C72.6522 43.3333 75.1957 44.3868 77.0711 46.2622C78.9464 48.1375 80 50.6811 80 53.3333V89.9999C80 92.6521 78.9464 95.1956 77.0711 97.071C75.1957 98.9464 72.6522 99.9999 70 99.9999ZM10 49.9999C9.11594 49.9999 8.2681 50.3511 7.64298 50.9762C7.01786 51.6013 6.66667 52.4492 6.66667 53.3333V89.9999C6.66667 90.884 7.01786 91.7318 7.64298 92.3569C8.2681 92.9821 9.11594 93.3333 10 93.3333H70C70.8841 93.3333 71.7319 92.9821 72.357 92.3569C72.9821 91.7318 73.3333 90.884 73.3333 89.9999V53.3333C73.3333 52.4492 72.9821 51.6013 72.357 50.9762C71.7319 50.3511 70.8841 49.9999 70 49.9999H10Z" fill="#B3658C"/>
<path d="M66.6667 49.9998H13.3333C12.4493 49.9998 11.6014 49.6486 10.9763 49.0234C10.3512 48.3983 10 47.5505 10 46.6664V26.6664C10 19.594 12.8095 12.8112 17.8105 7.81024C22.8115 2.80927 29.5942 -0.000244141 36.6667 -0.000244141H43.3333C50.4058 -0.000244141 57.1885 2.80927 62.1895 7.81024C67.1905 12.8112 70 19.594 70 26.6664V46.6664C70 47.5505 69.6488 48.3983 69.0237 49.0234C68.3986 49.6486 67.5507 49.9998 66.6667 49.9998ZM16.6667 43.3331H63.3333V26.6664C63.3333 21.3621 61.2262 16.275 57.4755 12.5243C53.7247 8.77356 48.6377 6.66642 43.3333 6.66642H36.6667C31.3623 6.66642 26.2753 8.77356 22.5245 12.5243C18.7738 16.275 16.6667 21.3621 16.6667 26.6664V43.3331Z" fill="#B3658C"/>
<path d="M40.0007 73.3331C38.6821 73.3331 37.3932 72.9421 36.2969 72.2096C35.2005 71.477 34.346 70.4358 33.8415 69.2177C33.3369 67.9995 33.2049 66.659 33.4621 65.3658C33.7193 64.0726 34.3543 62.8847 35.2866 61.9524C36.219 61.02 37.4068 60.3851 38.7001 60.1279C39.9933 59.8706 41.3337 60.0026 42.5519 60.5072C43.7701 61.0118 44.8112 61.8663 45.5438 62.9626C46.2763 64.0589 46.6673 65.3479 46.6673 66.6664C46.6673 68.4345 45.9649 70.1302 44.7147 71.3805C43.4645 72.6307 41.7688 73.3331 40.0007 73.3331Z" fill="#B3658C"/>
<path d="M43.3327 69.9998H36.666V83.3331H43.3327V69.9998Z" fill="#B3658C"/>
</svg>
