<svg width="257" height="345" viewBox="0 0 257 345" fill="none" xmlns="http://www.w3.org/2000/svg">
<path d="M202.361 8.49757C174.697 -2.2904 151.721 -2.81496 134.083 6.97175C106.687 22.1668 99.8739 58.5894 97.3105 72.3045C94.121 89.3892 82.2667 120.805 38.6496 139.51C23.9772 145.787 -21.2979 172.927 11.895 258.304L13.3979 262.081C20.3799 279.451 27.5802 297.451 2.29975 331.7C0.34126 334.359 0.902198 338.089 3.55372 340.045C6.18802 342.004 9.94801 341.443 11.895 338.809C41.1422 299.174 31.9049 276.139 24.4673 257.628L23.0104 253.943C-5.50933 180.605 27.7371 157.151 43.3515 150.478C92.0687 129.589 105.411 93.8996 109.031 74.4908C112.919 53.7285 119.941 28.473 139.863 17.4055C154.25 9.43183 173.808 10.1727 198.011 19.6263C249.77 39.8104 259.073 94.5831 225.661 182.451C212.791 216.281 169.729 282.252 123.962 288.86C116.424 289.955 107.559 289.282 98.1279 288.592C79.3356 287.145 59.879 285.678 46.2117 297.789C36.961 306.008 32.0523 319.088 31.231 337.834C31.0855 341.11 33.6452 343.918 36.938 344.047H37.2003C40.3898 344.047 43.0126 341.55 43.1696 338.345C43.8397 322.982 47.4197 312.628 54.1279 306.718C64.0142 297.927 80.9035 299.198 97.2186 300.47C106.866 301.203 116.844 301.961 125.656 300.69C179.322 292.925 224.448 219.157 236.815 186.68C281.935 68.1023 242.962 24.3397 202.361 8.49757Z" fill="#B3658C"/>
<path d="M67.7399 179.639C52.9354 182.672 46.5755 192.522 45.8825 193.63C33.898 213.389 36.5208 231.272 40.8456 242.824C47.864 261.58 62.9786 273.938 74.0174 277.458C82.1596 280.07 89.7255 281.352 96.6979 281.352C106.607 281.352 115.308 278.728 122.712 273.518C139.551 261.651 144.469 239.663 145.882 228.998L147.584 229.021C198.631 229.021 214.089 179.559 220.081 160.412C230.503 127.061 230.677 101.409 220.571 84.1499C212.341 70.0844 200.079 67.0193 199.809 67.0193V67.0308C188.502 62.6467 178.755 62.9224 170.876 67.8981L170.129 68.3882C169.57 62.281 168.111 57.0278 165.793 52.9768C163.03 48.1906 159.008 44.9801 154.158 43.7376L151.128 43.1307C137.977 41.3656 131.654 51.5371 130.109 57.1675L130.098 60.246C133.274 72.399 128.227 83.432 124.752 88.0477C109.196 108.71 110.857 128.598 114.979 141.624C103.397 136.332 91.5538 134.018 84.1908 141.829C79.7493 146.555 77.674 152.502 78.1985 158.994C78.7691 166.15 82.4257 173.45 87.1046 180.07C80.2834 178.533 73.8374 178.395 67.7399 179.639ZM118.735 195.46C111.129 189.619 91.1594 171.459 90.0988 158.027C89.848 154.839 90.7287 152.299 92.8671 150.007C95.6488 147.082 105.696 148.497 125.719 161.322L127.758 162.143C134.262 167.352 141.496 169.686 149.131 169.091C171.992 167.352 190.34 139.371 191.123 138.176C192.896 135.419 192.115 131.717 189.362 129.94C186.622 128.175 182.927 128.925 181.12 131.682C176.749 138.415 162.305 156.128 148.233 157.188C142.021 157.631 136.507 154.945 131.518 149.36C130.766 148.3 113.302 123.159 134.309 95.2231C139.993 87.6916 145.262 73.8884 142.12 59.1145C143.001 57.179 145.145 54.3169 149.587 54.9583L151.126 55.255C152.256 55.546 153.9 56.2467 155.451 58.9441C158.68 64.5325 159.331 74.8112 157.444 86.7019C155.217 93.2876 154.785 98.8663 154.752 99.3086C154.53 102.376 156.663 105.096 159.682 105.621C162.865 106.17 165.639 104.275 166.455 101.325C167.562 97.2907 168.437 93.3508 169.078 89.5276C170.663 85.1741 173.204 80.5622 177.272 77.9873C181.782 75.1558 187.905 75.1826 196.357 78.418C196.694 78.4984 204.807 80.5163 210.509 90.5193C216.093 100.323 220.301 119.791 208.736 156.844C199.388 186.751 183.218 220.463 141.071 216.78C139.515 216.686 137.836 217.153 136.593 218.25C135.351 219.347 134.646 220.884 134.56 222.517C134.549 222.787 133.308 251.544 115.844 263.808C106.448 270.429 93.631 271.175 77.7065 266.081C69.2542 263.389 57.3884 252.85 52.0777 238.616C48.6853 229.559 46.633 215.476 56.1459 199.82C56.1804 199.749 60.3252 193.337 70.1865 191.331C72.0685 190.959 74.0384 190.735 76.0792 190.735C86.3848 190.735 98.5607 195.61 111.663 205.029C114.351 206.941 117.981 206.357 119.939 203.759C121.814 201.137 121.312 197.465 118.735 195.46Z" fill="#B3658C"/>
</svg>
