<svg width="284" height="284" viewBox="0 0 284 284" fill="none" xmlns="http://www.w3.org/2000/svg">
<path d="M281.028 43.543L240.456 2.97154C240.309 2.8242 240.099 2.76539 239.944 2.62672C239.264 2.02436 238.525 1.52663 237.711 1.12609C237.297 0.912511 236.917 0.712551 236.479 0.561497C235.46 0.220389 234.396 0 233.285 0H50.7136C49.6049 0 48.5426 0.219151 47.5254 0.559021C47.076 0.714408 46.6791 0.919321 46.2557 1.14095C45.4565 1.53715 44.7309 2.02993 44.0617 2.62115C43.9039 2.76229 43.6921 2.82173 43.5423 2.97154L2.97089 43.543C-0.78811 47.297 -1.00602 53.3193 2.46573 57.3408L90.7681 159.648L32.8943 226.659C29.4225 230.681 29.6405 236.703 33.3995 240.457L73.9709 281.028C75.8776 282.93 78.4579 284 81.1422 284C81.266 284 81.3898 284 81.5137 283.99C84.3317 283.891 86.9763 282.623 88.8187 280.484L142.01 218.894L195.18 280.484C197.022 282.623 199.667 283.891 202.485 283.99C202.609 284 202.733 284 202.856 284C205.541 284 208.121 282.93 210.028 281.028L250.599 240.457C254.358 236.703 254.576 230.681 251.104 226.659L193.203 159.618L281.533 57.3408C285.005 53.3193 284.787 47.297 281.028 43.543ZM211.117 20.2857L184.829 50.7143H99.1696L72.8813 20.2857H211.117ZM50.1689 25.0303L128.598 115.831L104.167 144.13L23.9797 51.2194L50.1689 25.0303ZM116.677 71H167.327L142.004 100.322L116.677 71ZM179.822 175.162L229.59 232.781L203.401 258.97L155.41 203.377L159.544 198.591L179.822 175.162ZM146.329 182.86L134.328 196.726C134.303 196.754 134.297 196.791 134.272 196.821L80.5974 258.97L54.4082 232.781L111.843 166.278L112.34 165.702L233.83 25.0303L260.019 51.2194L146.329 182.86Z" fill="#B3658C"/>
</svg>
