<svg width="100" height="100" viewBox="0 0 100 100" fill="none" xmlns="http://www.w3.org/2000/svg">
<path d="M53.4473 68.9653H46.5508V72.4136H53.4473V68.9653Z" fill="#B3658C"/>
<path d="M93.1034 0H6.89655C5.0681 0.00205354 3.31513 0.729312 2.02222 2.02222C0.729312 3.31513 0.00205354 5.0681 0 6.89655V72.4138C0.00205354 74.2422 0.729312 75.9952 2.02222 77.2881C3.31513 78.581 5.0681 79.3083 6.89655 79.3103H37.931V96.5517H32.7586V100H67.2414V96.5517H62.069V79.3103H93.1034C94.9319 79.3083 96.6849 78.581 97.9778 77.2881C99.2707 75.9952 99.9979 74.2422 100 72.4138V6.89655C99.9979 5.0681 99.2707 3.31513 97.9778 2.02222C96.6849 0.729312 94.9319 0.00205354 93.1034 0ZM3.44828 6.89655C3.44936 5.98234 3.81301 5.10589 4.45945 4.45945C5.10589 3.81301 5.98234 3.44936 6.89655 3.44828H93.1034C94.0177 3.44936 94.8941 3.81301 95.5406 4.45945C96.187 5.10589 96.5506 5.98234 96.5517 6.89655V62.069H3.44828V6.89655ZM58.6207 96.5517H41.3793V79.3103H58.6207V96.5517ZM93.1034 75.8621H6.89655C5.98234 75.861 5.10589 75.4973 4.45945 74.8509C3.81301 74.2045 3.44936 73.328 3.44828 72.4138V65.5172H96.5517V72.4138C96.5506 73.328 96.187 74.2045 95.5406 74.8509C94.8941 75.4973 94.0177 75.861 93.1034 75.8621Z" fill="#B3658C"/>
<path d="M56.8957 10.3447C55.0447 10.3442 53.2183 10.7696 51.558 11.588C49.8977 12.4064 48.448 13.5957 47.321 15.0641C46.194 16.5325 45.4199 18.2405 45.0587 20.0559C44.6975 21.8714 44.7588 23.7456 45.2379 25.5335L39.8373 27.8482C39.1211 26.813 38.1865 25.9475 37.0995 25.3127C36.0125 24.6779 34.7994 24.2892 33.5459 24.1741C32.2923 24.0591 31.0288 24.2203 29.8444 24.6466C28.66 25.0729 27.5834 25.7538 26.6907 26.6413L17.0821 20.237C17.3843 19.0524 17.258 17.7992 16.7254 16.6988C16.1927 15.5984 15.2882 14.7218 14.1716 14.224C13.0551 13.7262 11.7985 13.6393 10.624 13.9785C9.44952 14.3178 8.43286 15.0615 7.75377 16.078C7.07468 17.0946 6.77691 18.3185 6.91313 19.5334C7.04935 20.7482 7.61078 21.8758 8.49813 22.7167C9.38548 23.5576 10.5416 24.0576 11.762 24.1284C12.9825 24.1992 14.1886 23.8361 15.1672 23.1033L24.7748 29.5089C24.306 30.6569 24.0912 31.8928 24.1453 33.1316C24.1993 34.3704 24.5208 35.5829 25.0877 36.6857L21.0315 39.9314C19.3886 38.5631 17.2962 37.8536 15.16 37.9405C13.0238 38.0274 10.9959 38.9044 9.46955 40.4015C7.94323 41.8986 7.02719 43.9092 6.89907 46.0433C6.77094 48.1775 7.43985 50.2832 8.7761 51.9522C10.1123 53.6211 12.0207 54.7345 14.1312 55.0763C16.2417 55.4181 18.404 54.9641 20.1987 53.8022C21.9934 52.6403 23.2928 50.8534 23.8449 48.7879C24.3969 46.7224 24.1624 44.5255 23.1866 42.6232L27.2429 39.3775C28.7668 40.6513 30.6847 41.3582 32.6708 41.3781C34.6568 41.398 36.5886 40.7297 38.1377 39.4868L48.5983 48.2031C48.2509 49.1398 48.1821 50.1571 48.4004 51.132C48.6187 52.1069 49.1147 52.9977 49.8283 53.6968C50.542 54.3959 51.4428 54.8734 52.422 55.0715C53.4012 55.2696 54.4168 55.1799 55.3462 54.8133C56.2755 54.4466 57.0787 53.8187 57.6589 53.0054C58.239 52.192 58.5712 51.2281 58.6152 50.23C58.6593 49.232 58.4134 48.2425 57.9072 47.3812C57.4011 46.5199 56.6563 45.8236 55.7629 45.3764L57.1267 34.4768C60.3051 34.4139 63.3303 33.0992 65.5449 30.8185C67.7596 28.5378 68.9848 25.4753 68.9543 22.2964C68.9239 19.1176 67.6403 16.0791 65.3824 13.8412C63.1245 11.6033 60.0747 10.3468 56.8957 10.3447ZM46.5987 28.7021C48.2034 31.3214 50.7431 33.2336 53.7041 34.0516L52.3405 44.9484C51.7998 45.0668 51.2817 45.2717 50.8062 45.5553L40.3483 36.8411C41.3076 35.0595 41.6095 32.9972 41.2011 31.0154L46.5987 28.7021ZM12.0681 20.6896C11.7271 20.6896 11.3937 20.5884 11.1102 20.399C10.8267 20.2095 10.6057 19.9403 10.4752 19.6252C10.3447 19.3102 10.3106 18.9635 10.3771 18.6291C10.4436 18.2946 10.6078 17.9874 10.8489 17.7463C11.0901 17.5051 11.3973 17.3409 11.7317 17.2744C12.0662 17.2079 12.4128 17.242 12.7279 17.3725C13.0429 17.503 13.3122 17.724 13.5017 18.0075C13.6911 18.2911 13.7922 18.6244 13.7922 18.9654C13.7917 19.4225 13.6099 19.8608 13.2867 20.184C12.9634 20.5072 12.5252 20.689 12.0681 20.6896ZM15.5164 51.724C14.4934 51.724 13.4933 51.4207 12.6427 50.8523C11.7921 50.284 11.1292 49.4762 10.7377 48.531C10.3462 47.5859 10.2438 46.5459 10.4433 45.5425C10.6429 44.5392 11.1355 43.6175 11.8589 42.8942C12.5823 42.1708 13.5039 41.6782 14.5073 41.4786C15.5106 41.279 16.5506 41.3814 17.4958 41.7729C18.4409 42.1644 19.2487 42.8274 19.8171 43.678C20.3854 44.5286 20.6888 45.5286 20.6888 46.5516C20.6872 47.9229 20.1417 49.2376 19.1721 50.2073C18.2024 51.177 16.8877 51.7224 15.5164 51.724ZM32.7577 37.9309C31.7347 37.9309 30.7347 37.6276 29.8841 37.0592C29.0335 36.4909 28.3705 35.6831 27.9791 34.7379C27.5876 33.7928 27.4851 32.7528 27.6847 31.7494C27.8843 30.7461 28.3769 29.8244 29.1003 29.1011C29.8237 28.3777 30.7453 27.8851 31.7487 27.6855C32.752 27.4859 33.792 27.5883 34.7371 27.9798C35.6823 28.3713 36.4901 29.0343 37.0585 29.8849C37.6268 30.7355 37.9302 31.7355 37.9302 32.7585C37.9286 34.1298 37.3831 35.4445 36.4134 36.4142C35.4438 37.3839 34.1291 37.9293 32.7577 37.9309ZM53.4474 51.724C53.1064 51.724 52.7731 51.6229 52.4895 51.4335C52.206 51.244 51.985 50.9747 51.8545 50.6597C51.724 50.3447 51.6899 49.998 51.7564 49.6635C51.8229 49.3291 51.9871 49.0219 52.2282 48.7807C52.4694 48.5396 52.7766 48.3754 53.111 48.3089C53.4455 48.2424 53.7922 48.2765 54.1072 48.407C54.4222 48.5375 54.6915 48.7585 54.881 49.042C55.0704 49.3256 55.1715 49.6589 55.1715 49.9999C55.171 50.457 54.9892 50.8953 54.666 51.2185C54.3428 51.5417 53.9045 51.7235 53.4474 51.724ZM56.8957 31.0344C55.1907 31.0344 53.5239 30.5288 52.1063 29.5815C50.6886 28.6343 49.5837 27.2879 48.9312 25.7127C48.2787 24.1375 48.108 22.4041 48.4406 20.7319C48.7733 19.0596 49.5943 17.5236 50.7999 16.3179C52.0056 15.1123 53.5416 14.2913 55.2139 13.9586C56.8861 13.626 58.6194 13.7967 60.1947 14.4492C61.7699 15.1017 63.1163 16.2066 64.0635 17.6243C65.0108 19.042 65.5164 20.7087 65.5164 22.4137C65.5138 24.6993 64.6047 26.8905 62.9886 28.5066C61.3725 30.1227 59.1812 31.0318 56.8957 31.0344Z" fill="#B3658C"/>
<path d="M91.3801 10.3447H74.1387V13.793H91.3801V10.3447Z" fill="#B3658C"/>
<path d="M81.0352 17.2412H74.1387V20.6895H81.0352V17.2412Z" fill="#B3658C"/>
<path d="M87.9318 24.1377H74.1387V27.586H87.9318V24.1377Z" fill="#B3658C"/>
<path d="M91.3801 31.0347H74.1387V34.4829H91.3801V31.0347Z" fill="#B3658C"/>
<path d="M84.4835 37.9312H74.1387V41.3794H84.4835V37.9312Z" fill="#B3658C"/>
<path d="M87.9318 44.8276H74.1387V48.2759H87.9318V44.8276Z" fill="#B3658C"/>
<path d="M91.3801 51.7241H74.1387V55.1724H91.3801V51.7241Z" fill="#B3658C"/>
</svg>
