<svg width="100" height="100" viewBox="0 0 100 100" fill="none" xmlns="http://www.w3.org/2000/svg">
<path d="M98.4376 51.5526H69.8291L62.4039 32.2453C62.2844 31.9323 62.0673 31.6661 61.7848 31.4859C61.5024 31.3056 61.1695 31.221 60.8352 31.2445C60.501 31.2679 60.1831 31.3982 59.9286 31.6161C59.6741 31.8341 59.4964 32.128 59.4217 32.4547L55.0163 51.5526H51.092L46.7866 40.0688C46.6731 39.7595 46.4646 39.494 46.191 39.3103C45.9174 39.1266 45.5928 39.0341 45.2634 39.046C44.9341 39.058 44.617 39.1738 44.3575 39.3769C44.0979 39.5799 43.9093 39.8599 43.8184 40.1766L37.4915 61.6881L29.6352 35.4822C29.5439 35.1777 29.3619 34.9084 29.1134 34.7101C28.865 34.5117 28.562 34.3939 28.2448 34.3724C27.9277 34.3508 27.6115 34.4265 27.3385 34.5894C27.0655 34.7522 26.8487 34.9945 26.717 35.2838L19.3216 51.5526H17.5266C13.5992 45.41 10.9544 38.9815 10.9544 32.8062C10.9544 22.1598 20.9635 15.622 28.1386 15.622C35.7934 15.622 45.2541 20.107 48.5519 28.6804C48.6655 28.9748 48.8655 29.2279 49.1256 29.4064C49.3858 29.5849 49.6939 29.6804 50.0094 29.6804C50.325 29.6804 50.6331 29.5849 50.8932 29.4064C51.1534 29.2279 51.3534 28.9748 51.467 28.6804C54.7648 20.107 64.2255 15.622 71.8802 15.622C79.0554 15.622 89.0644 22.1598 89.0644 32.8062C88.9189 37.4736 87.7126 42.0466 85.537 46.1786C85.4467 46.3632 85.3937 46.5638 85.381 46.769C85.3682 46.9741 85.396 47.1797 85.4628 47.3741C85.5295 47.5685 85.6338 47.7478 85.7699 47.9019C85.9059 48.0559 86.071 48.1817 86.2556 48.2719C86.4402 48.3622 86.6408 48.4152 86.846 48.428C87.0511 48.4407 87.2567 48.4129 87.4511 48.3462C87.6455 48.2795 87.8248 48.1751 87.9789 48.0391C88.1329 47.903 88.2587 47.738 88.349 47.5533C90.7339 42.9937 92.0472 37.95 92.1888 32.8062C92.1888 19.729 80.1802 12.4976 71.8802 12.4976C64.3145 12.4976 54.7757 16.2796 50.0094 24.5078C45.2432 16.2796 35.7044 12.4976 28.1386 12.4976C19.8387 12.4976 7.83004 19.729 7.83004 32.8062C7.83004 38.5863 9.8609 44.8617 13.8429 51.5526H1.58124C1.16692 51.5526 0.76957 51.7171 0.476601 52.0101C0.183631 52.3031 0.019043 52.7004 0.019043 53.1148C0.019043 53.5291 0.183631 53.9264 0.476601 54.2194C0.76957 54.5124 1.16692 54.677 1.58124 54.677H15.816C19.5835 60.1272 23.8631 65.205 28.5964 69.8412C34.9665 76.1642 41.8296 81.9705 49.1205 87.2051C49.3817 87.3858 49.6918 87.4826 50.0094 87.4826C50.3271 87.4826 50.6371 87.3858 50.8983 87.2051C51.781 86.5943 72.3708 72.2252 84.1732 54.677H98.4376C98.852 54.677 99.2493 54.5124 99.5423 54.2194C99.8353 53.9264 99.9998 53.5291 99.9998 53.1148C99.9998 52.7004 99.8353 52.3031 99.5423 52.0101C99.2493 51.7171 98.852 51.5526 98.4376 51.5526ZM50.0094 84.001C46.0618 81.1359 29.9117 68.968 19.6575 54.677H20.3276C20.6275 54.6769 20.9209 54.5905 21.173 54.4282C21.4251 54.2659 21.6251 54.0344 21.7492 53.7615L27.8418 40.3656L36.0184 67.6229C36.1147 67.9443 36.3119 68.2262 36.5809 68.4268C36.8499 68.6274 37.1763 68.7361 37.5118 68.7368C37.8484 68.7356 38.1756 68.6258 38.4447 68.4237C38.7138 68.2216 38.9104 67.938 39.0053 67.6151L45.4978 45.5443L48.541 53.6678C48.6537 53.9656 48.8548 54.2219 49.1172 54.4023C49.3797 54.5826 49.691 54.6785 50.0094 54.677H56.2582C56.6116 54.6772 56.9547 54.5576 57.2313 54.3377C57.508 54.1178 57.7019 53.8106 57.7814 53.4663L61.3198 38.1317L67.2967 53.6756C67.4102 53.9705 67.6103 54.224 67.8708 54.4028C68.1313 54.5816 68.4399 54.6772 68.7558 54.677H80.3661C70.1259 68.9711 53.9602 81.1391 50.0094 84.001Z" fill="#B3658C"/>
<path d="M9.84981 12.0397C10.1444 12.3243 10.5391 12.4818 10.9487 12.4782C11.3583 12.4746 11.7501 12.3103 12.0397 12.0207C12.3294 11.731 12.4937 11.3392 12.4972 10.9296C12.5008 10.52 12.3433 10.1254 12.0588 9.83077L2.68556 0.457571C2.39093 0.173004 1.99632 0.0155427 1.58671 0.019102C1.17711 0.0226614 0.785288 0.186956 0.495644 0.476601C0.205999 0.766245 0.0417043 1.15806 0.038145 1.56767C0.0345856 1.97727 0.192047 2.37189 0.476614 2.66652L9.84981 12.0397Z" fill="#B3658C"/>
<path d="M89.065 12.4974C89.4793 12.4974 89.8766 12.3327 90.1695 12.0397L99.5427 2.66652C99.8273 2.37189 99.9847 1.97727 99.9812 1.56767C99.9776 1.15806 99.8133 0.766245 99.5237 0.476601C99.234 0.186956 98.8422 0.0226614 98.4326 0.019102C98.023 0.0155427 97.6284 0.173004 97.3338 0.457571L87.9606 9.83077C87.7422 10.0492 87.5934 10.3276 87.5332 10.6306C87.4729 10.9336 87.5039 11.2476 87.6221 11.533C87.7403 11.8184 87.9405 12.0624 88.1973 12.2341C88.4541 12.4057 88.7561 12.4974 89.065 12.4974Z" fill="#B3658C"/>
<path d="M9.85012 87.941L0.476921 97.3142C0.327715 97.4583 0.208703 97.6307 0.12683 97.8213C0.0449567 98.0118 0.00186148 98.2168 5.89836e-05 98.4243C-0.00174351 98.6317 0.0377828 98.8374 0.116332 99.0294C0.19488 99.2214 0.310879 99.3958 0.457558 99.5425C0.604237 99.6892 0.77866 99.8052 0.970648 99.8837C1.16264 99.9623 1.36835 100.002 1.57577 100C1.7832 99.9982 1.98819 99.9551 2.17879 99.8732C2.36938 99.7913 2.54176 99.6723 2.68587 99.5231L12.0591 90.1499C12.3436 89.8553 12.5011 89.4607 12.4975 89.0511C12.494 88.6415 12.3297 88.2496 12.04 87.96C11.7504 87.6704 11.3586 87.5061 10.949 87.5025C10.5394 87.4989 10.1448 87.6564 9.85012 87.941Z" fill="#B3658C"/>
<path d="M90.1687 87.941C89.8741 87.6564 89.4795 87.4989 89.0699 87.5025C88.6603 87.5061 88.2684 87.6704 87.9788 87.96C87.6892 88.2496 87.5249 88.6415 87.5213 89.0511C87.5177 89.4607 87.6752 89.8553 87.9598 90.1499L97.333 99.5231C97.6276 99.8077 98.0222 99.9652 98.4318 99.9616C98.8414 99.958 99.2332 99.7937 99.5229 99.5041C99.8125 99.2144 99.9768 98.8226 99.9804 98.413C99.9839 98.0034 99.8265 97.6088 99.5419 97.3142L90.1687 87.941Z" fill="#B3658C"/>
<path d="M50.0095 9.3732C50.4238 9.3732 50.8211 9.20861 51.1141 8.91564C51.4071 8.62267 51.5717 8.22532 51.5717 7.811V1.5622C51.5717 1.14788 51.4071 0.750527 51.1141 0.457558C50.8211 0.164588 50.4238 0 50.0095 0C49.5951 0 49.1978 0.164588 48.9048 0.457558C48.6119 0.750527 48.4473 1.14788 48.4473 1.5622V7.811C48.4473 8.22532 48.6119 8.62267 48.9048 8.91564C49.1978 9.20861 49.5951 9.3732 50.0095 9.3732Z" fill="#B3658C"/>
<path d="M50.0095 90.6077C49.5951 90.6077 49.1978 90.7723 48.9048 91.0652C48.6119 91.3582 48.4473 91.7555 48.4473 92.1699V98.4187C48.4473 98.833 48.6119 99.2303 48.9048 99.5233C49.1978 99.8163 49.5951 99.9809 50.0095 99.9809C50.4238 99.9809 50.8211 99.8163 51.1141 99.5233C51.4071 99.2303 51.5717 98.833 51.5717 98.4187V92.1699C51.5717 91.7555 51.4071 91.3582 51.1141 91.0652C50.8211 90.7723 50.4238 90.6077 50.0095 90.6077Z" fill="#B3658C"/>
<path d="M77.2232 20.0693C77.0362 19.9756 76.8322 19.9204 76.6235 19.907C76.4147 19.8936 76.2053 19.9223 76.0078 19.9913C75.8104 20.0604 75.6287 20.1684 75.4738 20.3089C75.3188 20.4495 75.1937 20.6197 75.1058 20.8096C75.0179 20.9994 74.969 21.205 74.962 21.4141C74.9551 21.6232 74.9902 21.8315 75.0653 22.0268C75.1404 22.222 75.2539 22.4002 75.3992 22.5508C75.5445 22.7013 75.7185 22.8212 75.911 22.9032C77.531 23.6546 82.8159 26.5868 82.8159 32.806C82.8159 33.2203 82.9805 33.6176 83.2735 33.9106C83.5664 34.2036 83.9638 34.3682 84.3781 34.3682C84.7924 34.3682 85.1898 34.2036 85.4827 33.9106C85.7757 33.6176 85.9403 33.2203 85.9403 32.806C85.8895 30.0637 85.037 27.3964 83.4879 25.133C81.9389 22.8697 79.7611 21.1094 77.2232 20.0693Z" fill="#B3658C"/>
<path d="M73.4423 18.7466H70.3179V21.871H73.4423V18.7466Z" fill="#B3658C"/>
</svg>
