<svg width="30" height="30" viewBox="0 0 30 30" fill="none" xmlns="http://www.w3.org/2000/svg">
<path fill-rule="evenodd" clip-rule="evenodd" d="M15 1.56249C12.715 1.56249 10.8263 1.76374 9.3725 2.00874L9.205 2.03749C7.9425 2.24874 6.8925 2.42499 6.07125 3.43499C5.54625 4.08374 5.375 4.78499 5.33625 5.56624L4.72125 5.77124C4.1425 5.96374 3.63375 6.13374 3.2325 6.32124C2.7975 6.52374 2.39875 6.78374 2.09375 7.20749C1.78875 7.63124 1.6675 8.09124 1.6125 8.56749C1.5625 9.00874 1.5625 9.54249 1.5625 10.1537V10.335C1.5625 10.8375 1.5625 11.2812 1.6 11.6525C1.64 12.0537 1.72875 12.445 1.95 12.8225C2.17375 13.2012 2.47125 13.4687 2.80375 13.6987C3.11 13.9112 3.4975 14.1275 3.9375 14.3712L7.2375 16.205C7.9125 17.5312 8.83875 18.7137 10.1125 19.5675C11.2213 20.3125 12.5525 20.78 14.1288 20.9037C14.0863 21.0143 14.0639 21.1316 14.0625 21.25V23.4375H12.275C11.7693 23.4375 11.2792 23.6128 10.8881 23.9334C10.497 24.2541 10.2291 24.7003 10.13 25.1962L9.85625 26.5625H7.5C7.25136 26.5625 7.0129 26.6613 6.83709 26.8371C6.66127 27.0129 6.5625 27.2514 6.5625 27.5C6.5625 27.7486 6.66127 27.9871 6.83709 28.1629C7.0129 28.3387 7.25136 28.4375 7.5 28.4375H22.5C22.7486 28.4375 22.9871 28.3387 23.1629 28.1629C23.3387 27.9871 23.4375 27.7486 23.4375 27.5C23.4375 27.2514 23.3387 27.0129 23.1629 26.8371C22.9871 26.6613 22.7486 26.5625 22.5 26.5625H20.1437L19.87 25.1962C19.7709 24.7003 19.503 24.2541 19.1119 23.9334C18.7208 23.6128 18.2307 23.4375 17.725 23.4375H15.9375V21.25C15.9361 21.1316 15.9137 21.0143 15.8712 20.9037C17.4475 20.7787 18.7787 20.3125 19.8875 19.5687C21.1625 18.7137 22.0875 17.5312 22.7625 16.205L26.0625 14.3712C26.5025 14.1275 26.89 13.9112 27.1963 13.6987C27.5275 13.4687 27.8262 13.2012 28.0487 12.8237C28.2712 12.445 28.3612 12.0537 28.4 11.6525C28.4375 11.2812 28.4375 10.8375 28.4375 10.335V10.1537C28.4375 9.54374 28.4375 9.00874 28.3875 8.56749C28.3325 8.09124 28.2125 7.62999 27.9062 7.20749C27.6013 6.78374 27.2025 6.52374 26.7688 6.31999C26.365 6.13249 25.8575 5.96374 25.2787 5.77124L24.6638 5.56624C24.6263 4.78374 24.455 4.08374 23.9287 3.43499C23.1087 2.42374 22.0587 2.24749 20.7962 2.03749L20.6275 2.00874C18.7674 1.7031 16.885 1.55382 15 1.56249ZM18.2313 26.5625L18.0312 25.5637C18.0171 25.4929 17.9789 25.4292 17.923 25.3834C17.8672 25.3376 17.7972 25.3125 17.725 25.3125H12.275C12.2028 25.3125 12.1328 25.3376 12.077 25.3834C12.0211 25.4292 11.9829 25.4929 11.9688 25.5637L11.7688 26.5625H18.2313ZM5.36 7.53499L5.3775 7.52874C5.4675 9.42874 5.68125 11.5287 6.21625 13.4912L4.88375 12.7525C4.3975 12.4812 4.0925 12.3112 3.8725 12.1587C3.67 12.0175 3.60375 11.9337 3.5675 11.8712C3.53 11.8087 3.49 11.7112 3.465 11.4662C3.43916 11.076 3.42999 10.6848 3.4375 10.2937V10.2025C3.4375 9.52874 3.43875 9.10249 3.475 8.77999C3.51 8.48249 3.565 8.37124 3.615 8.30374C3.66375 8.23499 3.75125 8.14749 4.0225 8.02124C4.3175 7.88374 4.7225 7.74874 5.36 7.53499ZM24.6225 7.52749C24.5338 9.42749 24.3188 11.5275 23.785 13.49L25.1163 12.7512C25.6025 12.48 25.9075 12.31 26.1275 12.1575C26.33 12.0162 26.3962 11.9325 26.4325 11.87C26.47 11.8075 26.51 11.71 26.535 11.465C26.5613 11.1975 26.5625 10.8487 26.5625 10.2925V10.2012C26.5625 9.52749 26.5612 9.10124 26.525 8.77874C26.49 8.48124 26.435 8.36999 26.385 8.30249C26.3363 8.23374 26.2487 8.14624 25.9775 8.01999C25.6825 7.88249 25.2775 7.74624 24.64 7.53249L24.6225 7.52749ZM9.685 3.85749C11.4419 3.56989 13.2197 3.4294 15 3.43749C17.175 3.43749 18.9588 3.62874 20.315 3.85749C21.8238 4.11249 22.14 4.20749 22.4738 4.61749C22.8013 5.01999 22.8325 5.40249 22.765 7.09624C22.6525 9.91874 22.28 12.9662 21.1275 15.2837C20.5575 16.4262 19.8125 17.3612 18.8438 18.0112C17.88 18.6575 16.6362 19.0625 15 19.0625C13.3638 19.0625 12.1212 18.6575 11.1575 18.0112C10.1875 17.3612 9.4425 16.4262 8.87375 15.2825C7.72 12.9662 7.34875 9.91999 7.23625 7.09499C7.16875 5.40249 7.19875 5.01999 7.5275 4.61749C7.86 4.20749 8.17625 4.11249 9.685 3.85749Z" fill="white"/>
</svg>
