<svg width="100" height="100" viewBox="0 0 100 100" fill="none" xmlns="http://www.w3.org/2000/svg">
<path d="M53.0393 57.258C53.0393 58.5918 54.1248 59.6773 55.4587 59.6773C56.7925 59.6773 57.878 58.5918 57.878 57.258C57.878 55.9241 56.7925 54.8386 55.4587 54.8386C54.1248 54.8386 53.0393 55.9241 53.0393 57.258Z" fill="#B3658C"/>
<path d="M41.7485 57.258C41.7485 58.5918 42.834 59.6773 44.1679 59.6773C45.5018 59.6773 46.5872 58.5918 46.5872 57.258C46.5872 55.9241 45.5018 54.8386 44.1679 54.8386C42.834 54.8386 41.7485 55.9241 41.7485 57.258Z" fill="#B3658C"/>
<path d="M93.4993 29.5613L87.6009 28.2516C85.9525 27.8839 84.5961 26.6613 84.0606 25.0581L83.9057 24.5968C87.5944 22.7371 90.1364 18.9226 90.1364 14.5177V11.2903C90.1364 5.06452 85.0703 0 78.8461 0C72.6219 0 67.5557 5.06452 67.5557 11.2903V14.5161C67.5557 18.921 70.0977 22.7355 73.7864 24.5952L73.6331 25.0565C73.0977 26.6597 71.7412 27.8823 70.0912 28.25L64.1944 29.5597C62.0767 30.0306 60.2928 31.3081 59.159 33.0855C57.7541 32.5597 56.2396 32.2581 54.6525 32.2581H44.9751C43.5041 32.2581 42.0961 32.5177 40.7767 32.9726C39.6412 31.2532 37.8831 30.021 35.809 29.5597L29.9106 28.25C28.2622 27.8839 26.9057 26.6597 26.3702 25.0565L26.2154 24.5952C29.9041 22.7355 32.4461 18.921 32.4461 14.5161V11.2903C32.4461 5.06452 27.3799 0 21.1557 0C14.9315 0 9.86541 5.06452 9.86541 11.2903V14.5161C9.86541 18.921 12.4073 22.7355 16.0961 24.5952L15.9412 25.0565C15.4057 26.6597 14.0493 27.8839 12.4009 28.25L6.5025 29.5597C2.78315 30.3871 0.187988 33.6242 0.187988 37.4323V50C0.187988 50.8903 0.908956 51.6129 1.80089 51.6129H32.0719V52.5097C30.1525 53.629 28.8461 55.6871 28.8461 58.0645C28.8461 61.6226 31.7396 64.5161 35.2977 64.5161H36.1444C36.9267 66.7177 38.2202 68.6742 39.8912 70.2435L29.9525 72.9548C26.4525 73.9097 24.0073 77.1081 24.0073 80.7355V98.3871C24.0073 99.2774 24.7283 100 25.6202 100H74.0073C74.8993 100 75.6202 99.2774 75.6202 98.3871V80.7339C75.6202 77.1065 73.1767 73.9081 69.6767 72.9532L59.7364 70.2419C61.4057 68.6726 62.7009 66.7177 63.4815 64.5145H64.3283C67.8864 64.5145 70.7799 61.621 70.7799 58.0629C70.7799 55.6855 69.4735 53.6274 67.5541 52.5081V51.6129H98.1993C99.0912 51.6129 99.8122 50.8903 99.8122 50V37.4323C99.8138 33.6242 97.217 30.3871 93.4993 29.5613ZM70.7815 11.2903C70.7815 6.84355 74.3993 3.22581 78.8461 3.22581C83.2928 3.22581 86.9106 6.84355 86.9106 11.2903V14.5161C86.9106 14.8613 86.8509 15.1903 86.809 15.5258C84.6138 13.8323 81.9428 12.9032 79.1219 12.9032H78.5686C75.7493 12.9032 73.0783 13.8323 70.8815 15.5258C70.8396 15.1919 70.7799 14.8613 70.7799 14.5161V11.2903H70.7815ZM72.0299 18.7839C73.7944 17.0742 76.109 16.129 78.5702 16.129H79.1235C81.5848 16.129 83.8993 17.0742 85.6606 18.7839C84.2315 21.0548 81.7219 22.5806 78.8461 22.5806C75.9703 22.5806 73.459 21.0548 72.0299 18.7839ZM78.8461 25.8065C79.5299 25.8065 80.1961 25.7355 80.8477 25.6177L81.0009 26.0774C81.267 26.8774 81.6702 27.6113 82.159 28.2774L78.8461 31.5903L75.5348 28.279C76.0251 27.6129 76.4283 26.8774 76.6944 26.0758L76.8461 25.6177C77.4961 25.7355 78.1622 25.8065 78.8461 25.8065ZM54.6525 35.4839C59.9896 35.4839 64.3299 39.8242 64.3299 45.1613H35.2977C35.2977 39.8242 39.638 35.4839 44.9751 35.4839H54.6525ZM60.7251 62.5242L59.7009 62.0113C53.5944 58.9581 46.0348 58.9565 39.9251 62.0113L38.8993 62.5242C38.6622 61.6129 38.5235 60.6629 38.5235 59.6774V54.8387H44.1686H55.459H61.1041V59.6774C61.1041 60.6629 60.9638 61.6129 60.7251 62.5242ZM43.3622 93.5484C44.2525 93.5484 44.9751 94.2726 44.9751 95.1613V96.7742H41.7493V95.1613C41.7493 94.2726 42.4719 93.5484 43.3622 93.5484ZM44.9751 90.6194V77.9064L48.4719 83.1516C48.7702 83.6016 49.2751 83.871 49.8138 83.871C50.3525 83.871 50.8557 83.6016 51.1557 83.1532L54.6525 77.9081V90.621C52.7799 91.2887 51.4267 93.0629 51.4267 95.1629C51.4267 95.7306 51.5428 96.2694 51.7235 96.7758H48.2009V95.1629C48.2009 93.0613 46.8477 91.2871 44.9751 90.6194ZM46.0299 73.6758C47.238 74.0032 48.5025 74.1936 49.8138 74.1936C51.1251 74.1936 52.388 74.0032 53.5961 73.6758L49.8138 79.35L46.0299 73.6758ZM54.6525 95.1613C54.6525 94.2726 55.3751 93.5484 56.2654 93.5484C57.1557 93.5484 57.8783 94.2726 57.8783 95.1613C57.8783 96.05 57.1557 96.7742 56.2654 96.7742C55.3751 96.7742 54.6525 96.05 54.6525 95.1613ZM49.8138 70.9677C45.7202 70.9677 42.1396 68.771 40.1606 65.5016L41.3702 64.8968C46.5864 62.2855 53.0428 62.2871 58.2606 64.8968L59.4686 65.5016C57.4864 68.771 53.9057 70.9677 49.8138 70.9677ZM62.717 51.6129H36.9106H35.2977V48.3871H64.3299V51.6129H62.717ZM13.0912 11.2903C13.0912 6.84355 16.709 3.22581 21.1557 3.22581C25.6025 3.22581 29.2202 6.84355 29.2202 11.2903V14.5161C29.2202 14.8613 29.1606 15.1903 29.1186 15.5258C26.9235 13.8323 24.2525 12.9032 21.4331 12.9032H20.8783C18.059 12.9032 15.388 13.8323 13.1928 15.5258C13.1509 15.1903 13.0912 14.8613 13.0912 14.5161V11.2903ZM14.3412 18.7839C16.1025 17.0742 18.417 16.129 20.8783 16.129H21.4331C23.8944 16.129 26.209 17.0742 27.9702 18.7839C26.5428 21.0548 24.0315 22.5806 21.1557 22.5806C18.2799 22.5806 15.7686 21.0548 14.3412 18.7839ZM21.1557 25.8065C21.8396 25.8065 22.5057 25.7355 23.1573 25.6177L23.3106 26.0774C23.5767 26.8774 23.9799 27.6113 24.4686 28.2774L21.1557 31.5903L17.8428 28.2774C18.3315 27.6113 18.7348 26.8774 19.0009 26.0774L19.1541 25.6177C19.8057 25.7355 20.4719 25.8065 21.1557 25.8065ZM3.41379 48.3871V37.4323C3.41379 35.1468 4.97186 33.2048 7.2025 32.7081L13.1009 31.3984C13.9412 31.2113 14.7267 30.8774 15.4509 30.4468L20.0154 35.0113C20.3299 35.3258 20.7428 35.4839 21.1557 35.4839C21.5686 35.4839 21.9815 35.3258 22.2961 35.0113L26.8606 30.4468C27.5848 30.8774 28.3702 31.2113 29.2106 31.3984L35.109 32.7081C36.2106 32.9532 37.1412 33.5806 37.817 34.4306C34.3557 36.7468 32.0702 40.6903 32.0702 45.1597V48.3855L3.41379 48.3871ZM35.2977 61.2903C33.5186 61.2903 32.0719 59.8435 32.0719 58.0645C32.0719 56.2855 33.5186 54.8387 35.2977 54.8387V59.6774C35.2977 60.2226 35.3331 60.7597 35.3928 61.2903H35.2977ZM30.7993 76.0661L41.7493 73.079V90.6194C39.8767 91.2871 38.5235 93.0613 38.5235 95.1613V96.7742H36.9106V85.4839H33.6848V90.3226H27.2331V80.7339C27.2331 78.5581 28.6993 76.6387 30.7993 76.0661ZM27.2331 93.5484H33.6848V96.7742H27.2331V93.5484ZM65.9428 96.7742V93.5484H72.3944V96.7742H65.9428ZM72.3944 80.7339V90.3226H65.9428V85.4839H62.717V96.7742H60.8073C60.988 96.2677 61.1041 95.729 61.1041 95.1613C61.1041 93.0613 59.7509 91.2871 57.8783 90.6194V73.079L68.8299 76.0661C70.9267 76.6387 72.3944 78.5581 72.3944 80.7339ZM64.3299 61.2903H64.2348C64.2944 60.7597 64.3299 60.2226 64.3299 59.6774V54.8387C66.109 54.8387 67.5557 56.2855 67.5557 58.0645C67.5557 59.8435 66.1073 61.2903 64.3299 61.2903ZM96.588 48.3871H67.5557V45.1613C67.5557 40.7935 65.3686 36.9339 62.0396 34.5984C62.7235 33.6548 63.7186 32.971 64.8944 32.7097L70.7912 31.4C71.6315 31.2129 72.4186 30.879 73.1428 30.4484L77.7073 35.0129C78.0202 35.3258 78.4332 35.4839 78.8461 35.4839C79.259 35.4839 79.6719 35.3258 79.9864 35.0113L84.5509 30.4468C85.2751 30.8774 86.0606 31.2113 86.9009 31.3984L92.7993 32.7081C95.0299 33.2048 96.588 35.1468 96.588 37.4323V48.3871Z" fill="#B3658C"/>
<path d="M93.3615 41.9355H83.6841V45.1614H93.3615V41.9355Z" fill="#B3658C"/>
<path d="M15.9438 41.9355H6.26636V45.1614H15.9438V41.9355Z" fill="#B3658C"/>
</svg>
