<svg width="30" height="31" viewBox="0 0 30 31" fill="none" xmlns="http://www.w3.org/2000/svg">
<path d="M21.5466 4.78589H8.45375C7.34923 4.78872 6.29076 5.22874 5.50975 6.00975C4.72874 6.79076 4.28872 7.84923 4.28589 8.95375V19.7859C4.28589 20.07 4.39877 20.3426 4.5997 20.5435C4.80063 20.7444 5.07316 20.8573 5.35732 20.8573H24.643C24.9272 20.8573 25.1997 20.7444 25.4006 20.5435C25.6016 20.3426 25.7145 20.07 25.7145 19.7859V8.95375C25.7116 7.84923 25.2716 6.79076 24.4906 6.00975C23.7096 5.22874 22.6511 4.78872 21.5466 4.78589ZM23.5716 15.5002V18.7145H6.42875V8.95375C6.42875 8.41668 6.64209 7.90162 7.02185 7.52185C7.40162 7.14209 7.91668 6.92875 8.45375 6.92875H21.5466C22.0837 6.92875 22.5987 7.14209 22.9785 7.52185C23.3583 7.90162 23.5716 8.41668 23.5716 8.95375V15.5002Z" fill="#B3658C"/>
<path d="M25.7143 0.5H4.28571C3.14907 0.5 2.05898 0.951529 1.25526 1.75526C0.451529 2.55898 0 3.64907 0 4.78571V28.3571C0 28.9255 0.225765 29.4705 0.627628 29.8724C1.02949 30.2742 1.57454 30.5 2.14286 30.5H27.8571C28.4255 30.5 28.9705 30.2742 29.3724 29.8724C29.7742 29.4705 30 28.9255 30 28.3571V4.78571C30 3.64907 29.5485 2.55898 28.7447 1.75526C27.941 0.951529 26.8509 0.5 25.7143 0.5ZM8.57143 28.3571H2.14286V4.78571C2.14286 4.21739 2.36862 3.67235 2.77049 3.27049C3.17235 2.86862 3.71739 2.64286 4.28571 2.64286H25.7143C26.2826 2.64286 26.8277 2.86862 27.2295 3.27049C27.6314 3.67235 27.8571 4.21739 27.8571 4.78571V28.3571H8.57143Z" fill="#B3658C"/>
<path d="M22.5001 14.4285H18.9859L18.2144 11.9428C18.1499 11.7529 18.0333 11.5849 17.878 11.458C17.7226 11.3311 17.5348 11.2503 17.3359 11.2249C17.1308 11.1911 16.9203 11.2177 16.7301 11.3014C16.5398 11.3851 16.378 11.5223 16.2644 11.6963L15.193 13.2071L13.8109 9.74635C13.7424 9.56881 13.6279 9.41271 13.4792 9.29408C13.3304 9.17544 13.1527 9.09857 12.9644 9.07135C12.7712 9.05227 12.5764 9.08605 12.4009 9.16909C12.2254 9.25212 12.0758 9.38129 11.968 9.54278L10.1359 12.2856H7.50014C7.21598 12.2856 6.94346 12.3985 6.74253 12.5994C6.54159 12.8004 6.42871 13.0729 6.42871 13.3571C6.42871 13.6412 6.54159 13.9137 6.74253 14.1147C6.94346 14.3156 7.21598 14.4285 7.50014 14.4285H10.7144C10.8909 14.4276 11.0644 14.3831 11.2196 14.299C11.3747 14.2149 11.5067 14.0937 11.6037 13.9463L12.6216 12.4356L14.0037 15.8963C14.0771 16.0777 14.1989 16.2355 14.3556 16.3526C14.5124 16.4697 14.6982 16.5417 14.893 16.5606H15.0001C15.1766 16.5597 15.3501 16.5152 15.5053 16.4311C15.6604 16.347 15.7924 16.2259 15.8894 16.0785L16.8216 14.6963L17.1966 15.8321C17.2666 16.0469 17.4028 16.234 17.5856 16.3668C17.7684 16.4996 17.9885 16.5712 18.2144 16.5713H22.5001C22.7843 16.5713 23.0568 16.4585 23.2578 16.2575C23.4587 16.0566 23.5716 15.7841 23.5716 15.4999C23.5716 15.2158 23.4587 14.9432 23.2578 14.7423C23.0568 14.5414 22.7843 14.4285 22.5001 14.4285Z" fill="#B3658C"/>
<path d="M11.7858 25.1425C11.7858 24.5068 11.5972 23.8853 11.244 23.3567C10.8909 22.8282 10.3889 22.4162 9.80152 22.1729C9.21418 21.9296 8.5679 21.866 7.94439 21.99C7.32088 22.114 6.74815 22.4201 6.29862 22.8697C5.8491 23.3192 5.54296 23.8919 5.41894 24.5154C5.29492 25.1389 5.35857 25.7852 5.60185 26.3726C5.84513 26.9599 6.25712 27.4619 6.7857 27.8151C7.31429 28.1683 7.93574 28.3568 8.57147 28.3568C9.42395 28.3568 10.2415 28.0181 10.8443 27.4154C11.4471 26.8126 11.7858 25.995 11.7858 25.1425ZM8.57147 26.2139C8.35956 26.2139 8.15241 26.1511 7.97621 26.0334C7.80002 25.9156 7.66269 25.7483 7.58159 25.5525C7.5005 25.3567 7.47928 25.1413 7.52062 24.9335C7.56196 24.7256 7.66401 24.5347 7.81385 24.3849C7.96369 24.2351 8.1546 24.133 8.36244 24.0917C8.57028 24.0503 8.78571 24.0715 8.98148 24.1526C9.17726 24.2337 9.3446 24.3711 9.46233 24.5473C9.58006 24.7235 9.64289 24.9306 9.64289 25.1425C9.64289 25.4267 9.53001 25.6992 9.32908 25.9001C9.12815 26.1011 8.85563 26.2139 8.57147 26.2139Z" fill="#B3658C"/>
<path d="M22.4999 21.9282H17.1427C16.8586 21.9282 16.586 22.0411 16.3851 22.242C16.1842 22.443 16.0713 22.7155 16.0713 22.9997C16.0713 23.2838 16.1842 23.5563 16.3851 23.7573C16.586 23.9582 16.8586 24.0711 17.1427 24.0711H22.4999C22.784 24.0711 23.0565 23.9582 23.2575 23.7573C23.4584 23.5563 23.5713 23.2838 23.5713 22.9997C23.5713 22.7155 23.4584 22.443 23.2575 22.242C23.0565 22.0411 22.784 21.9282 22.4999 21.9282Z" fill="#B3658C"/>
<path d="M22.4999 25.1428H17.1427C16.8586 25.1428 16.586 25.2557 16.3851 25.4566C16.1842 25.6576 16.0713 25.9301 16.0713 26.2143C16.0713 26.4984 16.1842 26.7709 16.3851 26.9719C16.586 27.1728 16.8586 27.2857 17.1427 27.2857H22.4999C22.784 27.2857 23.0565 27.1728 23.2575 26.9719C23.4584 26.7709 23.5713 26.4984 23.5713 26.2143C23.5713 25.9301 23.4584 25.6576 23.2575 25.4566C23.0565 25.2557 22.784 25.1428 22.4999 25.1428Z" fill="#B3658C"/>
</svg>
