<svg width="352" height="261" viewBox="0 0 352 261" fill="none" xmlns="http://www.w3.org/2000/svg">
<path d="M260.613 103.808L267.451 98.3833C280.754 87.6966 288.353 71.8955 288.302 55.0336C288.248 38.1439 280.634 22.4414 267.41 11.9543C255.864 2.79506 241.44 -1.31734 226.8 0.370851C212.158 2.06015 199.052 9.3505 189.892 20.8974C186.508 25.1638 181.446 27.6102 176.002 27.6102C170.559 27.6102 165.495 25.1638 162.081 20.8586C151.432 7.60024 135.703 0.00727623 118.902 0.00727623C118.844 0.00727623 118.787 0.00727623 118.73 0.00727623C101.842 0.0593739 86.1392 7.6734 75.6509 20.8985C66.4917 32.4453 62.3782 46.8686 64.0675 61.5103C65.7568 76.152 73.0471 89.2584 84.5951 98.4187L91.3944 103.809C96.7627 108.067 100.15 114.16 100.936 120.967C101.721 127.774 99.8076 134.478 95.5522 139.846C84.6206 153.625 84.6206 172.873 95.5511 186.655C101.803 194.537 110.749 199.513 120.743 200.667C130.738 201.814 140.581 199.014 148.464 192.76C164.678 179.898 187.33 179.898 203.543 192.759C210.433 198.226 218.688 200.958 226.946 200.958C235.202 200.957 243.461 198.225 250.351 192.76C266.622 179.855 269.36 156.119 256.455 139.849C247.666 128.764 249.531 112.598 260.613 103.808ZM250.281 90.7814C232.015 105.267 228.941 131.912 243.428 150.177C250.636 159.266 249.106 172.523 240.019 179.731C232.319 185.836 221.569 185.836 213.875 179.731C202.724 170.887 189.367 166.466 176.002 166.466C162.642 166.466 149.278 170.889 138.13 179.731C133.728 183.221 128.235 184.79 122.647 184.146C117.065 183.502 112.068 180.723 108.577 176.319C102.471 168.623 102.471 157.872 108.577 150.177C115.594 141.33 118.747 130.278 117.453 119.059C116.159 107.841 110.573 97.7969 101.725 90.7792L94.926 85.3888C78.2724 72.1792 75.468 47.8829 88.6776 31.2293C96.0056 21.9892 106.978 16.6697 118.781 16.6331C118.821 16.6331 118.86 16.6331 118.9 16.6331C130.634 16.6331 141.643 21.9637 149.084 31.2282C155.64 39.494 165.451 44.2349 176.001 44.2349C186.551 44.2349 196.361 39.4951 202.918 31.2282C209.316 23.1619 218.474 18.0686 228.704 16.8869C238.936 15.7064 249.01 18.5807 257.078 24.9798C266.316 32.3068 271.637 43.2805 271.674 55.0834C271.71 66.8619 266.376 77.92 257.077 85.3888L250.281 90.7814Z" fill="#B3658C"/>
<path d="M325.952 113.783C323.904 113.783 322.002 112.767 320.862 111.065C315.126 102.491 305.551 97.3711 295.247 97.3711C278.256 97.3711 264.433 111.194 264.433 128.184C264.433 138.785 269.781 148.513 278.741 154.205C281.585 156.012 283.352 159.233 283.352 162.613V248.159C283.352 254.752 288.717 260.117 295.311 260.117H314.101C320.695 260.117 326.06 254.752 326.06 248.159V165.881C340.373 165.822 352 154.16 352 139.832C352.001 125.468 340.316 113.783 325.952 113.783ZM325.952 149.254C321.539 149.254 317.391 150.972 314.269 154.093C311.151 157.214 309.434 161.361 309.434 165.773V243.489H299.98V162.612C299.98 153.459 295.373 145.07 287.656 140.169C283.526 137.546 281.061 133.066 281.061 128.183C281.061 120.361 287.424 113.997 295.248 113.997C299.99 113.997 304.4 116.357 307.045 120.307C311.275 126.632 318.344 130.408 325.954 130.408C331.15 130.408 335.376 134.634 335.376 139.83C335.376 145.025 331.147 149.254 325.952 149.254Z" fill="#B3658C"/>
<path d="M56.7555 97.3711C46.4512 97.3711 36.8752 102.49 31.14 111.064C30.0016 112.767 28.0973 113.783 26.0489 113.783C11.6854 113.783 0 125.468 0 139.832C0 154.16 11.6278 165.822 25.9413 165.881V248.159C25.9413 254.752 31.3063 260.117 37.8994 260.117H56.6901C63.2832 260.117 68.6482 254.752 68.6482 248.159V162.613C68.6482 159.233 70.4162 156.012 73.2627 154.204C82.2213 148.512 87.5685 138.785 87.5685 128.184C87.5685 111.193 73.746 97.3711 56.7555 97.3711ZM64.3484 140.169C56.6302 145.069 52.0223 153.459 52.0223 162.612V243.489H42.5694V165.773C42.5694 161.36 40.8513 157.211 37.7321 154.091C34.6117 150.972 30.4628 149.254 26.05 149.254C20.8546 149.254 16.628 145.027 16.628 139.832C16.628 134.636 20.8546 130.41 26.05 130.41C33.6585 130.41 40.7271 126.634 44.9603 120.31C47.6051 116.359 52.0146 113.999 56.7577 113.999C64.5801 113.999 70.9438 120.363 70.9438 128.185C70.9416 133.065 68.4753 137.546 64.3484 140.169Z" fill="#B3658C"/>
<path d="M122.739 25.8789C106.453 25.8789 93.2021 39.1295 93.2021 55.4161C93.2021 60.0085 96.9233 63.7296 101.516 63.7296C106.108 63.7296 109.829 60.0085 109.829 55.4161C109.829 48.2964 115.621 42.5058 122.739 42.5058C127.332 42.5058 131.053 38.7847 131.053 34.1924C131.053 29.6 127.331 25.8789 122.739 25.8789Z" fill="#B3658C"/>
</svg>
