<svg width="82" height="100" viewBox="0 0 82 100" fill="none" xmlns="http://www.w3.org/2000/svg">
<path d="M74.2981 92.8052L61.3394 92.024L60.821 90.8679C74.1724 83.2122 81.5 70.924 81.5 56.0892C81.5 39.6841 69.8764 26.5054 59.3838 19.8184L60.6325 17.5998C60.831 17.2361 60.8763 16.8089 60.7585 16.412C60.6408 16.0151 60.3695 15.6809 60.0042 15.4828L55.6375 13.1392L59.211 6.65528C59.3105 6.47484 59.3732 6.27662 59.3955 6.07201C59.4177 5.8674 59.3991 5.66043 59.3408 5.46298C59.2824 5.26554 59.1854 5.08152 59.0553 4.92148C58.9252 4.76144 58.7646 4.62855 58.5827 4.53043L50.7289 0.233875C50.5495 0.123401 50.3495 0.0500276 50.1409 0.0181364C49.9323 -0.0137549 49.7194 -0.00351025 49.5149 0.0482586C49.3103 0.100027 49.1184 0.192259 48.9505 0.319446C48.7826 0.446632 48.6422 0.606166 48.5377 0.788521L44.9642 7.27242L41.3201 5.31163C41.138 5.21293 40.9381 5.15107 40.7318 5.12962C40.5256 5.10817 40.3171 5.12754 40.1185 5.18664C39.9181 5.24822 39.7322 5.34906 39.5717 5.48323C39.4112 5.61739 39.2793 5.78217 39.1838 5.96783L23.8219 34.1064L7.42318 37.903C7.21408 37.9506 7.01701 38.0404 6.84412 38.1666C6.67122 38.2929 6.52617 38.4531 6.41789 38.6373C6.31265 38.8189 6.2452 39.0196 6.21956 39.2276C6.19393 39.4357 6.21063 39.6467 6.26867 39.8482L8.79759 48.4413C8.90796 48.8194 9.15777 49.1421 9.49705 49.3449C9.83633 49.5476 10.2401 49.6155 10.6275 49.5349L18.7954 47.8007L22.2904 49.699L17.5781 58.3312C17.379 58.6939 17.3325 59.1204 17.4488 59.5172C17.5651 59.9139 17.8347 60.2487 18.1986 60.4482L26.0759 64.7682C26.3168 64.8977 26.5875 64.9624 26.8613 64.9557C27.0102 64.9574 27.1586 64.9363 27.3011 64.8932C27.5014 64.8316 27.6873 64.7308 27.8478 64.5966C28.0083 64.4624 28.1402 64.2977 28.2357 64.112L32.9872 55.5189L36.9926 57.7062C37.2335 57.8357 37.5043 57.9004 37.778 57.8937C37.927 57.8965 38.0755 57.8754 38.2178 57.8312C38.6233 57.7047 38.9621 57.4239 39.1603 57.05L51.585 34.1376C55.9203 38.3873 60.3576 44.1447 60.3576 52.0348C60.3576 60.3076 57.436 66.4087 50.9331 71.674C49.6801 70.7257 48.2224 70.0805 46.6753 69.7894C45.1283 69.4983 43.5344 69.5693 42.0197 69.9967C40.505 70.4241 39.1111 71.1963 37.9483 72.2521C36.7854 73.3079 35.8855 74.6184 35.3198 76.0799C35.144 76.5376 35.0023 77.0076 34.8957 77.486C32.7477 77.9219 30.5614 78.1444 28.3692 78.15H28.1022L31.0552 72.6817C31.1622 72.4828 31.2246 72.2632 31.2382 72.0379C31.2517 71.8128 31.2161 71.5873 31.1337 71.3771C31.0507 71.1667 30.9227 70.9767 30.7586 70.8202C30.5946 70.6637 30.3983 70.5446 30.1834 70.4709L7.60381 62.7684C7.20909 62.6337 6.77676 62.6605 6.40191 62.8429C6.02707 63.0253 5.74042 63.3483 5.60503 63.7409C5.46964 64.1336 5.49659 64.5636 5.67996 64.9364C5.86333 65.3093 6.1881 65.5944 6.58282 65.7291L27.4189 72.8145L24.7722 77.7204C23.9397 77.5309 23.121 77.2855 22.3218 76.9861C22.2932 76.785 22.2485 76.5864 22.1883 76.3924C21.0495 72.7442 15.434 71.338 9.41018 73.1973C3.38634 75.0565 -0.438454 79.3765 0.700343 83.0247C1.48572 85.587 4.49372 87.04 8.28709 87.04C8.88312 87.0346 9.47835 86.9955 10.0699 86.9228C10.4204 87.6771 10.8467 88.3943 11.3422 89.0633L5.55398 88.7196C5.34032 88.7069 5.1263 88.7377 4.92507 88.8103C4.72384 88.8828 4.53963 88.9955 4.38376 89.1414C4.22727 89.2878 4.10262 89.4645 4.01752 89.6607C3.93241 89.8568 3.88866 90.0683 3.88898 90.282V98.4376C3.88898 98.852 4.05447 99.2494 4.34904 99.5424C4.64361 99.8354 5.04314 100 5.45973 100H74.2038C74.6204 100 75.02 99.8354 75.3145 99.5424C75.6091 99.2494 75.7746 98.852 75.7746 98.4376V94.3676C75.7753 93.969 75.6228 93.5851 75.3483 93.2947C75.0739 93.0042 74.6981 92.8291 74.2981 92.8052ZM50.5326 3.68675L55.6768 6.49123L52.8573 11.6002L50.1085 10.1082L47.7523 8.80356L50.5326 3.68675ZM9.74789 40.5747L21.8192 37.778L18.0022 44.8087L11.3972 46.2149L9.74789 40.5747ZM26.1858 61.2763L21.0495 58.4718L25.0392 51.2223L29.2174 53.4956L30.1756 54.019L26.1858 61.2763ZM37.0712 54.2065L33.0736 52.0348L27.466 48.9881L21.183 45.5509L26.3115 36.2078C26.3637 36.0999 26.4057 35.9874 26.4372 35.8719L41.1944 8.81137L44.8229 10.7878L52.7238 15.0843L57.0905 17.467L55.9909 19.4747C55.9691 19.4973 55.9454 19.5182 55.9202 19.5371C55.9202 19.6153 55.8417 19.6934 55.8103 19.7715L37.0712 54.2065ZM63.4991 52.0348C63.4991 42.598 58.1272 36.0203 53.14 31.2863L57.8523 22.5838C67.6381 28.9115 78.3585 41.0278 78.3585 56.1048C78.3585 69.8616 71.8556 80.8373 59.5487 87.9931L54.0511 75.6346C53.787 75.0363 53.4634 74.4657 53.085 73.9316C60.1848 68.1195 63.4991 61.1278 63.4991 52.0348ZM38.2492 77.2048C38.7512 75.9195 39.6244 74.8108 40.7588 74.0184C41.8932 73.226 43.2381 72.7853 44.6239 72.7518C46.0097 72.7184 47.3744 73.0938 48.5461 73.8306C49.7178 74.5674 50.644 75.6328 51.208 76.8923L57.8052 91.8287L41.9091 90.8913L38.3671 82.5482C37.9944 81.7092 37.7922 80.8052 37.772 79.8882C37.7518 78.9712 37.914 78.0592 38.2492 77.2048ZM3.69263 82.1029C3.17428 80.4389 5.89954 77.5563 10.3369 76.1892C11.7307 75.7436 13.1846 75.5118 14.6487 75.5018C17.0676 75.5018 18.8426 76.2361 19.1803 77.3142C19.4159 78.0954 18.9682 79.1031 17.9551 80.1499C16.425 81.6064 14.567 82.6777 12.536 83.2747C8.11431 84.6027 4.21884 83.7668 3.70049 82.1029H3.69263ZM15.5597 89.1961C14.6635 88.3281 13.887 87.3456 13.2507 86.2744L13.4706 86.2198C16.002 85.4806 18.3147 84.1401 20.2091 82.3138C20.8455 81.6688 21.3756 80.928 21.7799 80.1186C23.8991 80.8527 26.1252 81.2354 28.3692 81.2514C30.4759 81.2446 32.5781 81.0564 34.6522 80.6889C34.7501 81.7495 35.0152 82.7882 35.4376 83.7668L38.3592 90.6569L15.7089 89.3367C15.6539 89.2898 15.6147 89.2352 15.5675 89.1961H15.5597ZM72.6331 96.8752H7.03049V91.9537L60.2006 95.0785H60.2869H60.3341L72.6331 95.805V96.8752Z" fill="#B3658C"/>
</svg>
