<svg width="370" height="286" viewBox="0 0 370 286" fill="none" xmlns="http://www.w3.org/2000/svg">
<path d="M307.988 29.7916H270.546C250.424 10.5582 224.124 0 196.198 0H173.216C145.284 0 118.984 10.5582 98.8623 29.7916H61.4202C29.0665 29.7916 2.14676 54.2327 0.126883 85.4245C-1.58316 111.874 14.1349 135.927 38.6236 145.115C44.0874 157.872 56.7608 166.833 71.4957 166.833C91.2118 166.833 107.246 150.799 107.246 131.083C107.246 121.854 103.7 113.458 97.9388 107.107L114.151 90.8943L117.488 96.1376C130.412 116.438 138.723 139.806 141.536 163.711L148.805 225.374L148.954 255.422C148.954 258.651 148.007 261.779 146.213 264.472L144.646 266.826C141.619 271.366 136.543 274.083 131.079 274.083V286C140.541 286 149.311 281.304 154.561 273.434L156.128 271.086C159.232 266.427 160.871 261.01 160.871 255.422L160.859 227.477L153.369 162.311C150.348 136.636 141.417 111.54 127.54 89.7324L113.687 67.9726C116.755 68.9736 119.758 70.1891 122.576 71.8038C139.641 81.5516 151.021 98.3005 153.792 117.76C154.638 123.659 156.187 129.474 158.41 135.04L162.301 144.758C165.31 152.265 166.829 160.166 166.829 168.239V286H178.746V168.239C178.746 158.646 176.934 149.25 173.377 140.325L169.486 130.606C167.621 125.923 166.311 121.037 165.602 116.068C162.301 92.9439 148.781 73.0372 128.493 61.4542C119.526 56.33 109.337 53.6249 99.0053 53.6249H88.2029H83.4124H60.8601C41.9126 53.6249 25.7239 67.7938 24.0019 85.8833C22.7983 98.4554 28.3336 110.598 38.2602 118.011C36.711 121.937 35.8292 126.191 35.7755 130.654C20.2899 121.741 10.828 104.7 12.0257 86.1931C13.6284 61.2456 35.3346 41.7083 61.4202 41.7083H101.287H103.754H113.204C119.067 41.7083 125.901 45.4799 133.808 49.8414C146.469 56.8365 162.223 65.5416 184.704 65.5416C207.179 65.5416 222.938 56.8365 235.6 49.8414C243.507 45.4799 250.341 41.7083 256.204 41.7083H265.654H268.12H307.988C334.073 41.7083 355.779 61.2456 357.388 86.1931C358.586 104.706 349.124 121.741 333.638 130.654C333.585 126.197 332.703 121.943 331.154 118.011C341.074 110.598 346.609 98.4494 345.412 85.8833C343.69 67.7938 327.495 53.6249 308.548 53.6249H285.995H281.199H270.397C260.071 53.6249 249.876 56.33 240.915 61.4601C220.633 73.0431 207.107 92.9499 203.806 116.074C203.097 121.043 201.786 125.929 199.921 130.606L196.031 140.336C192.474 149.256 190.662 158.646 190.662 168.239V286H202.579V168.239C202.579 160.166 204.098 152.259 207.101 144.763L210.992 135.034C213.214 129.468 214.77 123.659 215.61 117.76C218.386 98.3005 229.761 81.5516 246.825 71.8038C249.644 70.195 252.647 68.9736 255.715 67.9726L241.862 89.7324C227.985 111.54 219.054 136.636 216.033 162.311L208.71 224.694L208.537 255.422C208.537 261.01 210.176 266.427 213.28 271.08L214.847 273.428C220.09 281.304 228.867 286 238.329 286V274.083C232.865 274.083 227.789 271.366 224.762 266.82L223.195 264.466C221.401 261.785 220.454 258.651 220.454 255.422L220.442 228.15L227.872 163.711C230.684 139.806 238.996 116.438 251.92 96.1376L255.256 90.8943L271.469 107.107C265.707 113.458 262.162 121.854 262.162 131.083C262.162 150.799 278.196 166.833 297.912 166.833C312.647 166.833 325.32 157.872 330.784 145.115C355.279 135.927 370.991 111.874 369.281 85.4245C367.267 54.2327 340.341 29.7916 307.988 29.7916ZM71.4957 154.916C58.3516 154.916 47.6624 144.227 47.6624 131.083C47.6624 117.939 58.3516 107.25 71.4957 107.25C84.6398 107.25 95.329 117.939 95.329 131.083C95.329 144.227 84.6398 154.916 71.4957 154.916ZM35.859 87.0154C37.0089 74.9736 47.9901 65.5416 60.8601 65.5416H83.4124H88.2088C94.3519 65.5416 99.9884 68.6399 103.283 73.8237L107.597 80.5983L88.5365 99.659C83.466 96.9003 77.6626 95.3332 71.4957 95.3332C60.6992 95.3332 51.0289 100.165 44.4687 107.75C38.421 102.763 35.0903 95.0174 35.859 87.0154ZM229.838 39.4143C217.779 46.0698 204.11 53.6249 184.704 53.6249C165.298 53.6249 151.629 46.0698 139.57 39.4143C131.633 35.029 124.608 31.1859 117.202 30.1134C133.415 18.3576 152.797 11.9167 173.21 11.9167H196.192C216.605 11.9167 235.993 18.3576 252.2 30.1134C244.8 31.1859 237.775 35.029 229.838 39.4143ZM297.912 154.916C284.768 154.916 274.079 144.227 274.079 131.083C274.079 117.939 284.768 107.25 297.912 107.25C311.056 107.25 321.745 117.939 321.745 131.083C321.745 144.227 311.056 154.916 297.912 154.916ZM324.939 107.756C318.379 100.165 308.709 95.3332 297.912 95.3332C291.745 95.3332 285.942 96.9003 280.871 99.659L261.811 80.5983L266.124 73.8237C269.425 68.6399 275.056 65.5416 281.199 65.5416H285.995H308.548C321.418 65.5416 332.399 74.9736 333.549 87.0154C334.311 95.0234 330.987 102.769 324.939 107.756Z" fill="#B3658C"/>
</svg>
