<svg width="279" height="279" viewBox="0 0 279 279" fill="none" xmlns="http://www.w3.org/2000/svg">
<path fill-rule="evenodd" clip-rule="evenodd" d="M228.277 228.277C179.247 277.308 99.753 277.308 50.7229 228.277C8.89251 186.447 2.74976 122.443 32.2945 74.1011L68.9528 62.3182C86.3387 56.7299 99.3185 78.4926 86.1392 91.1334C65.5776 110.856 80.0744 145.551 108.555 144.782L115.765 144.586C125.078 144.335 133.331 150.545 135.669 159.563L136.575 163.055C134.263 162.832 131.874 162.993 129.493 163.588L90.0361 173.453C78.8245 176.256 72.0079 187.617 74.8111 198.828C77.6137 210.04 88.9745 216.856 100.186 214.053L119.342 209.264L124.132 228.42C126.672 238.581 136.333 245.299 146.743 244.143C201.283 238.083 226.301 199.434 233.074 181.372C235.584 174.679 234.503 167.169 230.21 161.455C225.916 155.741 219.003 152.613 211.876 153.161L197.437 154.272L191.859 131.959C189.056 120.748 177.695 113.931 166.484 116.734C155.272 119.537 148.455 130.898 151.258 142.109L161.123 181.566C162.397 186.665 165.471 190.907 169.542 193.716C166.686 195.394 163.549 196.93 160.111 198.253L149.173 156.062C145.204 140.755 131.195 130.214 115.388 130.641L108.179 130.836C92.4453 131.261 84.4373 112.096 95.7954 101.201C119.653 78.3175 96.1567 38.9209 64.6841 49.0371L46.849 54.7699C48.1045 53.3993 49.3956 52.0496 50.7229 50.723C99.753 1.6924 179.247 1.6924 228.277 50.723C277.308 99.7531 277.308 179.247 228.277 228.277ZM238.141 238.141C183.664 292.62 95.3364 292.62 40.8586 238.141C-13.6195 183.663 -13.6195 95.3365 40.8586 40.8587C95.3372 -13.6195 183.663 -13.6195 238.141 40.8587C292.62 95.3365 292.62 183.663 238.141 238.141ZM238.141 129.636C232.694 135.084 223.861 135.084 218.413 129.636C212.966 124.188 212.966 115.355 218.413 109.908C223.861 104.46 232.694 104.46 238.141 109.908C243.589 115.355 243.589 124.188 238.141 129.636ZM248.005 139.5C237.11 150.396 219.445 150.396 208.549 139.5C197.654 128.604 197.654 110.939 208.549 100.043C219.445 89.1476 237.11 89.1476 248.005 100.043C258.901 110.939 258.901 128.604 248.005 139.5ZM219.057 169.834C217.626 167.93 215.322 166.887 212.946 167.07L192.634 168.633C189.242 168.894 186.157 166.67 185.332 163.37L178.325 135.342C177.391 131.605 173.604 129.333 169.866 130.267C166.129 131.202 163.857 134.989 164.791 138.726L174.656 178.182C175.481 181.483 178.566 183.706 181.958 183.445L185.23 183.194C188.17 182.968 190.933 184.614 192.135 187.305C193.336 189.998 192.715 193.154 190.584 195.191C182.574 202.845 171.441 210.111 156.573 214.028C154.769 214.503 152.85 214.236 151.245 213.287C149.64 212.337 148.481 210.784 148.029 208.975L141.335 182.197C140.401 178.46 136.613 176.188 132.876 177.122L93.4197 186.986C89.6825 187.921 87.41 191.707 88.3447 195.445C89.2787 199.182 93.0661 201.454 96.8033 200.52L122.726 194.039C124.521 193.591 126.42 193.873 128.007 194.824C129.593 195.777 130.736 197.319 131.184 199.114L137.665 225.037C138.512 228.424 141.732 230.663 145.202 230.278C192.959 224.972 214.459 191.282 220.012 176.474C220.848 174.243 220.488 171.739 219.057 169.834Z" fill="#B3658C"/>
</svg>
