<svg width="32" height="31" viewBox="0 0 32 31" fill="none" xmlns="http://www.w3.org/2000/svg">
<path d="M23.9008 30.1422C23.6626 30.1422 23.4299 30.0493 23.2561 29.8783L15.4179 22.1707L4.13625 22.9065C3.18339 22.9691 2.43103 22.7493 1.90769 22.2526C1.1489 21.5333 1.07716 20.4324 1.08727 19.6662C1.1351 16.5041 1.19029 12.9199 1.07716 9.4487C1.02197 7.85293 0.846298 6.24152 0.658668 4.53445C0.570372 3.73427 0.481156 2.91477 0.400217 2.06491C0.375384 1.80738 0.460921 1.54985 0.635674 1.35762C0.809507 1.16631 1.05692 1.05686 1.31629 1.05686C2.13671 1.05686 2.90838 1.06238 3.65062 1.06882C5.13327 1.07986 6.53405 1.08905 7.89896 1.0495C11.2174 0.95385 14.5387 0.830605 17.8581 0.707358L22.2572 0.547321C22.306 0.545482 22.3584 0.537203 22.4127 0.529845C22.7383 0.491215 23.2754 0.424074 23.6874 0.823247C24.3846 1.50938 25.1048 2.17896 25.8231 2.84578C27.7748 4.65954 29.7918 6.534 31.3508 8.73865C32.2476 10.0116 32.0213 11.841 31.8052 13.6097C31.7426 14.1266 31.6783 14.6361 31.6497 15.1125C31.5578 16.6099 31.3738 18.087 31.1788 19.6534C31.0905 20.3616 31.0004 21.0873 30.9149 21.8424C30.8661 22.2747 30.5221 22.6131 30.0908 22.6545L27.544 22.9019C27.5431 22.9185 27.5421 22.9323 27.5412 22.9488C27.5155 23.3627 27.4897 23.7555 27.5697 24.0424C27.784 24.8215 28.094 25.6005 28.4518 26.5037C28.6164 26.9185 28.7902 27.3591 28.9705 27.8346C29.0634 28.0811 29.0459 28.3533 28.9254 28.586C28.804 28.8178 28.5907 28.9879 28.335 29.0523L24.1262 30.1137C24.0517 30.134 23.9753 30.1422 23.9008 30.1422ZM16.7341 20.8868L24.1768 28.2043L26.8762 27.5237C26.8312 27.4087 26.7843 27.2947 26.7419 27.1834C26.3639 26.2305 26.0374 25.4073 25.7974 24.5345C25.6336 23.9468 25.6714 23.3545 25.7054 22.8293C25.7173 22.6536 25.7284 22.4752 25.7302 22.3013C25.7081 22.2167 25.698 22.1284 25.7008 22.042L25.7229 21.377C25.8351 18.2719 25.7725 16.6347 23.1779 16.2576C19.7757 15.7637 18.6775 16.1252 16.7157 20.8389C16.7212 20.8555 16.7277 20.8702 16.7341 20.8868ZM2.33078 2.90097C2.38229 3.3866 2.43379 3.86487 2.4853 4.33486C2.67661 6.07688 2.85688 7.7214 2.91482 9.38891C3.02979 12.9042 2.97369 16.5124 2.92586 19.6957C2.9139 20.5014 3.0537 20.8058 3.17419 20.9199C3.30756 21.0459 3.6074 21.0983 4.01485 21.0716L14.9222 20.3607C16.9999 15.3002 18.5975 13.7283 23.4428 14.4393C27.5936 15.0417 27.6654 18.2903 27.5743 21.0523L29.1729 20.8978C29.2317 20.3965 29.2933 19.9081 29.3522 19.428C29.5435 17.893 29.7238 16.4425 29.8121 15.0031C29.8424 14.4926 29.9087 13.9454 29.9786 13.3871C30.145 12.0304 30.3336 10.4935 29.8452 9.8028C28.3993 7.75267 26.4531 5.94627 24.5704 4.19598C23.9155 3.5871 23.2588 2.97823 22.6224 2.35831C22.5175 2.37211 22.4136 2.38223 22.3216 2.38499L17.9243 2.54594C14.5994 2.66919 11.2754 2.79244 7.95047 2.88901C6.55153 2.92856 5.13327 2.91844 3.63591 2.90833C3.2119 2.90557 2.7787 2.90281 2.33078 2.90097Z" fill="#B3658C"/>
<path d="M20.141 13.677C19.911 13.677 19.6802 13.6751 19.4502 13.6705C14.7908 13.5887 10.1295 13.5031 5.46723 13.4185L5.33847 13.4167C4.83076 13.4065 4.42699 12.9881 4.43619 12.4785C4.44723 11.9708 4.88595 11.6001 5.37434 11.5771L5.50218 11.5799C10.1635 11.6654 14.8239 11.751 19.4843 11.831C19.8871 11.8402 20.2937 11.8374 20.6993 11.8356L21.264 11.8338C21.7726 11.8338 22.1837 12.244 22.1837 12.7535C22.1837 13.2621 21.7726 13.6733 21.264 13.6733L20.7085 13.6751C20.5181 13.676 20.3295 13.677 20.141 13.677Z" fill="#B3658C"/>
<path d="M21.264 10.3391C21.2584 10.3391 21.2538 10.3391 21.2483 10.3391L5.3412 10.0825C4.83349 10.0742 4.42788 9.65576 4.43616 9.14714C4.44444 8.63851 4.90063 8.23566 5.37155 8.24302L21.2787 8.49963C21.7864 8.50791 22.192 8.9264 22.1828 9.43503C22.1754 9.93721 21.7643 10.3391 21.264 10.3391Z" fill="#B3658C"/>
<path d="M12.2079 6.4981C11.1511 6.4981 10.0943 6.49625 9.03658 6.49349L5.87263 6.48982C5.36401 6.48982 4.95288 6.07869 4.95288 5.57006C4.95288 5.06144 5.36401 4.65031 5.87263 4.65031L9.04026 4.65399C11.6579 4.66043 14.2746 4.66503 16.8922 4.63835C17.8653 4.62916 18.866 4.55741 19.8326 4.48843C20.2916 4.45532 20.7506 4.42313 21.2086 4.39462C21.7043 4.36795 22.1504 4.75241 22.1808 5.25827C22.2111 5.76597 21.8239 6.2001 21.3181 6.23045C20.8674 6.25712 20.4167 6.28931 19.9651 6.32334C18.9699 6.39416 17.9398 6.46774 16.9115 6.47786C15.3424 6.49442 13.7752 6.4981 12.2079 6.4981Z" fill="#B3658C"/>
<path d="M23.9806 9.15504C23.7378 9.15504 23.5042 9.05938 23.3313 8.88647C23.1428 8.69884 23.0443 8.43855 23.0627 8.17366L23.4233 2.9421C23.4582 2.4344 23.8933 2.06833 24.4028 2.08581C24.9105 2.12076 25.2931 2.56132 25.2582 3.06626L24.9703 7.24103L28.893 6.95958C29.4035 6.92463 29.8404 7.30449 29.8763 7.81219C29.9121 8.31897 29.5314 8.7577 29.0246 8.79357L24.0469 9.15227C24.0248 9.15411 24.0027 9.15504 23.9806 9.15504Z" fill="#B3658C"/>
<path d="M21.7764 27.0133C21.4701 27.0133 21.1702 26.8597 20.9946 26.58C20.726 26.1487 20.8575 25.5812 21.287 25.3126L25.391 22.7474C25.8233 22.4779 26.3898 22.6095 26.6584 23.039C26.9279 23.4694 26.7973 24.0369 26.3678 24.3064L22.262 26.8716C22.1111 26.9682 21.9428 27.0133 21.7764 27.0133Z" fill="#B3658C"/>
<path d="M18.8734 30.4997C18.7133 30.4997 18.5515 30.4583 18.4061 30.3709L13.8938 27.7036C13.6685 27.5693 13.5103 27.3458 13.4597 27.0911C13.4082 26.8345 13.4698 26.5687 13.6262 26.3589L16.1665 22.9743C16.4728 22.5696 17.0477 22.4868 17.4542 22.7931C17.8598 23.0975 17.9417 23.6751 17.6363 24.0789L15.7131 26.6404L18.6471 28.3769L20.2788 26.2946C20.5915 25.8917 21.17 25.8227 21.5692 26.1355C21.9702 26.4482 22.041 27.0267 21.7283 27.4249L19.5972 30.1447C19.4179 30.3764 19.1484 30.4997 18.8734 30.4997Z" fill="#B3658C"/>
<path d="M21.2857 23.9307C21.1781 23.9307 21.0687 23.9279 20.9574 23.9224C20.3209 23.8884 19.4039 23.7578 18.7923 23.022C18.0813 22.1629 18.0859 20.8596 18.314 19.1682C18.3545 18.8674 18.5421 18.6053 18.8134 18.4692L20.5904 17.5752C20.7642 17.4869 20.9546 17.4602 21.133 17.486C21.1487 17.4841 21.1643 17.4823 21.179 17.4805C22.2138 17.3876 23.5069 17.3903 24.3402 18.2549C24.9077 18.8463 25.1248 19.7081 24.9804 20.821C24.7238 22.8114 23.3837 23.9307 21.2857 23.9307ZM20.0818 19.8902C19.9429 21.1972 20.068 21.6773 20.2096 21.8484C20.32 21.9817 20.6042 22.0599 21.0549 22.0848C22.7178 22.174 23.0544 21.3765 23.1574 20.5855C23.2236 20.0686 23.174 19.6952 23.0158 19.5315C22.8668 19.3761 22.4538 19.2114 21.3473 19.3145C21.305 19.3181 21.2627 19.32 21.2241 19.3172L20.0818 19.8902Z" fill="#B3658C"/>
</svg>
