<svg width="43" height="43" viewBox="0 0 43 43" fill="none" xmlns="http://www.w3.org/2000/svg">
<g clip-path="url(#clip0_193_218)">
<path d="M26.6019 27.9745C26.5796 27.7277 26.5632 27.3312 26.5503 26.9201C30.287 26.5374 32.9083 25.6413 32.9083 24.5973C32.898 24.5956 32.8988 24.5543 32.8988 24.5371C30.1056 22.0199 35.3206 4.13099 25.6121 4.49391C25.0023 3.97791 23.9351 3.51953 22.4043 3.51953C9.25399 4.51455 15.0685 21.4075 12.0722 24.5964C12.0705 24.5973 12.0679 24.5973 12.0662 24.5973C12.0662 24.599 12.0671 24.6007 12.0671 24.6024L12.0662 24.6042L12.0679 24.605C12.08 25.6276 14.6127 26.5073 18.241 26.8995C18.2307 27.1489 18.2092 27.4576 18.1619 27.9745C16.6552 32.0251 6.48909 30.8882 6.01953 38.7004H38.6995C38.2308 30.8882 28.1086 32.0251 26.6019 27.9745Z" stroke="white" stroke-width="2" stroke-miterlimit="10" stroke-linecap="round"/>
</g>
<defs>
<clipPath id="clip0_193_218">
<rect width="43" height="43" fill="white"/>
</clipPath>
</defs>
</svg>
