<svg width="122" height="131" viewBox="0 0 122 131" fill="none" xmlns="http://www.w3.org/2000/svg">
<path d="M76.0586 89.8901C75.9793 89.0131 75.9213 87.6045 75.8755 86.1439C89.1392 84.7841 98.4436 81.6001 98.4436 77.8906C98.4069 77.8845 98.41 77.7378 98.41 77.6767C88.4951 68.7329 107.006 5.17256 72.5451 6.46204C70.3807 4.62865 66.5924 3 61.1587 3C14.4809 6.53537 35.1198 66.5572 24.4844 77.8875C24.4783 77.8906 24.4692 77.8906 24.4631 77.8906C24.4631 77.8967 24.4661 77.9028 24.4661 77.9089L24.4631 77.915L24.4692 77.9181C24.5119 81.5513 33.5019 84.6772 46.3809 86.0705C46.3443 86.9567 46.268 88.0537 46.1001 89.8901C40.7519 104.282 4.66674 100.243 3 128H119C117.336 100.243 81.4068 104.282 76.0586 89.8901Z" stroke="#B3658C" stroke-width="5" stroke-miterlimit="10" stroke-linecap="round"/>
</svg>
